<mxfile host="app.diagrams.net" modified="2022-05-19T08:39:56.095Z" agent="5.0 (Windows NT 10.0; Win64; x64) AppleWebKit/537.36 (KHTML, like Gecko) Chrome/101.0.4951.64 Safari/537.36 Edg/101.0.1210.47" etag="iN_FSa_zn7gIrbw98Kvy" version="18.0.7" type="github">
  <diagram name="Page-1" id="7a6c530e-6e37-e111-ec74-82921da8cc10">
    <mxGraphModel dx="1298" dy="5674" grid="1" gridSize="10" guides="1" tooltips="1" connect="1" arrows="1" fold="1" page="1" pageScale="1.5" pageWidth="4681" pageHeight="3300" background="#184380" math="0" shadow="0">
      <root>
        <mxCell id="0" style=";html=1;" />
        <mxCell id="1" style=";html=1;" parent="0" />
        <mxCell id="23046e2b9bb16c14-113" value="Title" style="text;strokeColor=none;fillColor=none;html=1;fontSize=24;fontStyle=1;verticalAlign=middle;align=center;rounded=0;shadow=0;fontColor=#FFFFFF;" parent="1" vertex="1">
          <mxGeometry x="120" y="40" width="1510" height="40" as="geometry" />
        </mxCell>
        <mxCell id="23046e2b9bb16c14-114" value="Subtitle" style="text;html=1;strokeColor=none;fillColor=none;align=center;verticalAlign=middle;whiteSpace=wrap;rounded=0;shadow=0;fontSize=10;fontColor=#009BFF;" parent="1" vertex="1">
          <mxGeometry x="114" y="90" width="1526" height="20" as="geometry" />
        </mxCell>
        <mxCell id="fT7zzyfTvzehRH6RShBd-1" value="" style="rounded=1;whiteSpace=wrap;html=1;fillColor=#f5f5f5;strokeColor=#666666;gradientColor=#b3b3b3;" vertex="1" parent="1">
          <mxGeometry x="1323.5" y="1390" width="2650" height="1750" as="geometry" />
        </mxCell>
        <mxCell id="fT7zzyfTvzehRH6RShBd-6" value="" style="edgeStyle=orthogonalEdgeStyle;rounded=0;orthogonalLoop=1;jettySize=auto;html=1;" edge="1" parent="1" source="fT7zzyfTvzehRH6RShBd-2" target="fT7zzyfTvzehRH6RShBd-5">
          <mxGeometry relative="1" as="geometry" />
        </mxCell>
        <mxCell id="fT7zzyfTvzehRH6RShBd-98" style="edgeStyle=orthogonalEdgeStyle;rounded=0;orthogonalLoop=1;jettySize=auto;html=1;entryX=0.5;entryY=0;entryDx=0;entryDy=0;fontColor=#FFFFFF;" edge="1" parent="1" source="fT7zzyfTvzehRH6RShBd-2" target="fT7zzyfTvzehRH6RShBd-86">
          <mxGeometry relative="1" as="geometry" />
        </mxCell>
        <mxCell id="fT7zzyfTvzehRH6RShBd-117" style="edgeStyle=orthogonalEdgeStyle;rounded=0;orthogonalLoop=1;jettySize=auto;html=1;entryX=-0.004;entryY=0.54;entryDx=0;entryDy=0;entryPerimeter=0;fontColor=#FFFFFF;" edge="1" parent="1" source="fT7zzyfTvzehRH6RShBd-2" target="fT7zzyfTvzehRH6RShBd-115">
          <mxGeometry relative="1" as="geometry" />
        </mxCell>
        <mxCell id="fT7zzyfTvzehRH6RShBd-2" value="" style="rounded=1;whiteSpace=wrap;html=1;fillColor=#1ba1e2;fontColor=#ffffff;strokeColor=#006EAF;" vertex="1" parent="1">
          <mxGeometry x="2220" y="-117" width="830" height="610" as="geometry" />
        </mxCell>
        <mxCell id="fT7zzyfTvzehRH6RShBd-5" value="" style="whiteSpace=wrap;html=1;rounded=1;fillColor=#1ba1e2;fontColor=#ffffff;strokeColor=#006EAF;" vertex="1" parent="1">
          <mxGeometry x="1730" y="-30" width="420" height="440" as="geometry" />
        </mxCell>
        <mxCell id="fT7zzyfTvzehRH6RShBd-11" value="" style="rounded=1;whiteSpace=wrap;html=1;fillColor=#647687;fontColor=#ffffff;strokeColor=#314354;" vertex="1" parent="1">
          <mxGeometry x="2615" y="-80" width="250" height="110" as="geometry" />
        </mxCell>
        <mxCell id="fT7zzyfTvzehRH6RShBd-12" value="" style="whiteSpace=wrap;html=1;rounded=1;fillColor=#647687;fontColor=#ffffff;strokeColor=#314354;" vertex="1" parent="1">
          <mxGeometry x="2450" y="110" width="580" height="310" as="geometry" />
        </mxCell>
        <mxCell id="fT7zzyfTvzehRH6RShBd-14" value="" style="rounded=0;whiteSpace=wrap;html=1;" vertex="1" parent="1">
          <mxGeometry x="2510" y="157" width="450" height="93" as="geometry" />
        </mxCell>
        <mxCell id="fT7zzyfTvzehRH6RShBd-15" value="" style="rounded=0;whiteSpace=wrap;html=1;" vertex="1" parent="1">
          <mxGeometry x="2510" y="289" width="450" height="75" as="geometry" />
        </mxCell>
        <mxCell id="fT7zzyfTvzehRH6RShBd-29" style="edgeStyle=orthogonalEdgeStyle;rounded=0;orthogonalLoop=1;jettySize=auto;html=1;" edge="1" parent="1" source="fT7zzyfTvzehRH6RShBd-16" target="fT7zzyfTvzehRH6RShBd-17">
          <mxGeometry relative="1" as="geometry" />
        </mxCell>
        <mxCell id="fT7zzyfTvzehRH6RShBd-30" style="edgeStyle=orthogonalEdgeStyle;rounded=0;orthogonalLoop=1;jettySize=auto;html=1;entryX=0.5;entryY=0;entryDx=0;entryDy=0;" edge="1" parent="1" source="fT7zzyfTvzehRH6RShBd-16" target="fT7zzyfTvzehRH6RShBd-18">
          <mxGeometry relative="1" as="geometry" />
        </mxCell>
        <mxCell id="fT7zzyfTvzehRH6RShBd-31" style="edgeStyle=orthogonalEdgeStyle;rounded=0;orthogonalLoop=1;jettySize=auto;html=1;entryX=0.5;entryY=0;entryDx=0;entryDy=0;" edge="1" parent="1" source="fT7zzyfTvzehRH6RShBd-16" target="fT7zzyfTvzehRH6RShBd-19">
          <mxGeometry relative="1" as="geometry" />
        </mxCell>
        <mxCell id="fT7zzyfTvzehRH6RShBd-34" style="edgeStyle=orthogonalEdgeStyle;rounded=0;orthogonalLoop=1;jettySize=auto;html=1;entryX=0.5;entryY=0;entryDx=0;entryDy=0;" edge="1" parent="1" source="fT7zzyfTvzehRH6RShBd-16" target="fT7zzyfTvzehRH6RShBd-20">
          <mxGeometry relative="1" as="geometry" />
        </mxCell>
        <mxCell id="fT7zzyfTvzehRH6RShBd-35" style="edgeStyle=orthogonalEdgeStyle;rounded=0;orthogonalLoop=1;jettySize=auto;html=1;entryX=0.5;entryY=0;entryDx=0;entryDy=0;" edge="1" parent="1" source="fT7zzyfTvzehRH6RShBd-16" target="fT7zzyfTvzehRH6RShBd-21">
          <mxGeometry relative="1" as="geometry" />
        </mxCell>
        <mxCell id="fT7zzyfTvzehRH6RShBd-16" value="" style="shape=image;verticalLabelPosition=bottom;labelBackgroundColor=#ffffff;verticalAlign=top;aspect=fixed;imageAspect=0;image=data:image/svg+xml,PHN2ZyB4bWxuczpjYz0iaHR0cDovL2NyZWF0aXZlY29tbW9ucy5vcmcvbnMjIiB4bWxuczpkYz0iaHR0cDovL3B1cmwub3JnL2RjL2VsZW1lbnRzLzEuMS8iIHhtbG5zOmlua3NjYXBlPSJodHRwOi8vd3d3Lmlua3NjYXBlLm9yZy9uYW1lc3BhY2VzL2lua3NjYXBlIiB4bWxuczpyZGY9Imh0dHA6Ly93d3cudzMub3JnLzE5OTkvMDIvMjItcmRmLXN5bnRheC1ucyMiIHhtbG5zOnNvZGlwb2RpPSJodHRwOi8vc29kaXBvZGkuc291cmNlZm9yZ2UubmV0L0RURC9zb2RpcG9kaS0wLmR0ZCIgeG1sbnM6c3ZnPSJodHRwOi8vd3d3LnczLm9yZy8yMDAwL3N2ZyIgeG1sbnM9Imh0dHA6Ly93d3cudzMub3JnLzIwMDAvc3ZnIiB4bWxuczp4bGluaz0iaHR0cDovL3d3dy53My5vcmcvMTk5OS94bGluayIgdmVyc2lvbj0iMS4xIiBpZD0ic3ZnNjUxNSIgaW5rc2NhcGU6dmVyc2lvbj0iMC45Mi4zICgyNDA1NTQ2LCAyMDE4LTAzLTExKSIgc29kaXBvZGk6ZG9jbmFtZT0ic2VydmVyXzIuc3ZnIiB4PSIwcHgiIHk9IjBweCIgdmlld0JveD0iMCAwIDMxLjgzIDU5Ljg1IiBzdHlsZT0iZW5hYmxlLWJhY2tncm91bmQ6bmV3IDAgMCAzMS44MyA1OS44NTsiIHhtbDpzcGFjZT0icHJlc2VydmUiPiYjeGE7PHNvZGlwb2RpOm5hbWVkdmlldyBib3JkZXJjb2xvcj0iIzY2NjY2NiIgYm9yZGVyb3BhY2l0eT0iMSIgZml0LW1hcmdpbi1ib3R0b209IjAiIGZpdC1tYXJnaW4tbGVmdD0iMCIgZml0LW1hcmdpbi1yaWdodD0iMCIgZml0LW1hcmdpbi10b3A9IjAiIGdyaWR0b2xlcmFuY2U9IjEwIiBndWlkZXRvbGVyYW5jZT0iMTAiIGlkPSJuYW1lZHZpZXc2NTE3IiBpbmtzY2FwZTpjdXJyZW50LWxheWVyPSJzdmc2NTE1IiBpbmtzY2FwZTpjeD0iMjEuMjIyNDA5IiBpbmtzY2FwZTpjeT0iMzkuODk4OTE5IiBpbmtzY2FwZTpwYWdlb3BhY2l0eT0iMCIgaW5rc2NhcGU6cGFnZXNoYWRvdz0iMiIgaW5rc2NhcGU6d2luZG93LWhlaWdodD0iMTAxNyIgaW5rc2NhcGU6d2luZG93LW1heGltaXplZD0iMSIgaW5rc2NhcGU6d2luZG93LXdpZHRoPSIxOTIwIiBpbmtzY2FwZTp3aW5kb3cteD0iLTgiIGlua3NjYXBlOndpbmRvdy15PSItOCIgaW5rc2NhcGU6em9vbT0iMTAuODY0Mzc0IiBvYmplY3R0b2xlcmFuY2U9IjEwIiBwYWdlY29sb3I9IiNmZmZmZmYiIHNob3dncmlkPSJmYWxzZSI+JiN4YTsJPC9zb2RpcG9kaTpuYW1lZHZpZXc+JiN4YTs8ZyBpZD0iZzY1MTMiIHRyYW5zZm9ybT0idHJhbnNsYXRlKDAuMDA0MzM4OSkiPiYjeGE7CTx0aXRsZSBpZD0idGl0bGU2NDQ4Ij5QYWdlLTE8L3RpdGxlPiYjeGE7CTxnIGlkPSJncm91cDc2MzItMSIgdHJhbnNmb3JtPSJ0cmFuc2xhdGUoMC4zMDYyMTYpIj4mI3hhOwkJPHRpdGxlIGlkPSJ0aXRsZTY0NTAiPlNlcnZlciAjMjwvdGl0bGU+JiN4YTsJCTxnIGlkPSJzaGFwZTc2MzMtMiIgdHJhbnNmb3JtPSJ0cmFuc2xhdGUoMC4wOTUyMjI3KSI+JiN4YTsJCQk8dGl0bGUgaWQ9InRpdGxlNjQ1MiI+U2hlZXQuNzYzMzwvdGl0bGU+JiN4YTsJCQk8cGF0aCBpZD0icGF0aDY0NTQiIGlua3NjYXBlOmNvbm5lY3Rvci1jdXJ2YXR1cmU9IjAiIHN0eWxlPSJmaWxsOiMzRjU3NjU7IiBkPSJNMzEuMjMsNTguNGMwLDAuODMtMC42MiwxLjQ1LTEuMjUsMS40NSAgICAgYy0yOC43MiwwLTI4LjcyLDAtMjguNzIsMEMwLjYzLDU5Ljg1LDAsNTkuMjMsMCw1OC40QzAsMS40NywwLDEuNDcsMCwxLjQ3QzAsMC42MywwLjYzLDAsMS4yNiwwYzI4LjcyLDAsMjguNzIsMCwyOC43MiwwICAgICBjMC42MywwLDEuMjUsMC42MywxLjI1LDEuNDdWNTguNHoiLz4mI3hhOwkJPC9nPiYjeGE7CQk8ZyBpZD0ic2hhcGU3NjM0LTQiIHRyYW5zZm9ybT0idHJhbnNsYXRlKDAsLTUzLjA4NDkpIj4mI3hhOwkJCTx0aXRsZSBpZD0idGl0bGU2NDU3Ij5TaGVldC43NjM0PC90aXRsZT4mI3hhOwkJCSYjeGE7CQkJCTxwYXRoIGlkPSJwYXRoNjQ1OSIgaW5rc2NhcGU6Y29ubmVjdG9yLWN1cnZhdHVyZT0iMCIgc3R5bGU9ImZpbGw6bm9uZTtzdHJva2U6IzAwMDAwMDtzdHJva2Utd2lkdGg6MC42MTI0O3N0cm9rZS1saW5lY2FwOnJvdW5kO3N0cm9rZS1saW5lam9pbjpyb3VuZDtzdHJva2UtbWl0ZXJsaW1pdDozOyIgZD0iICAgICBNMCw1OS44NWgyOC4zOCIvPiYjeGE7CQk8L2c+JiN4YTsJCTxnIGlkPSJzaGFwZTc2MzUtNyIgdHJhbnNmb3JtPSJ0cmFuc2xhdGUoMTYuNDczNSwtNTIuMDM2NikiPiYjeGE7CQkJPHRpdGxlIGlkPSJ0aXRsZTY0NjIiPlNoZWV0Ljc2MzU8L3RpdGxlPiYjeGE7CQkJPHBhdGggaWQ9InBhdGg2NDY0IiBpbmtzY2FwZTpjb25uZWN0b3ItY3VydmF0dXJlPSIwIiBzdHlsZT0iZmlsbDojMDBCQ0YyOyIgZD0iTTE1LjA1LDU3Ljc1Yy0xNCwwLTE0LDAtMTQsMCAgICAgQzAuNDMsNTcuNzUsMCw1OC4xOCwwLDU4LjhjMCwwLjQzLDAuNDMsMS4wNSwxLjA1LDEuMDVjMTQsMCwxNCwwLDE0LDBWNTcuNzV6Ii8+JiN4YTsJCTwvZz4mI3hhOwkJPGcgaWQ9InNoYXBlNzYzNi05IiB0cmFuc2Zvcm09InRyYW5zbGF0ZSgwLC00Ni4yMjMpIj4mI3hhOwkJCTx0aXRsZSBpZD0idGl0bGU2NDY3Ij5TaGVldC43NjM2PC90aXRsZT4mI3hhOwkJCSYjeGE7CQkJCTxwYXRoIGlkPSJwYXRoNjQ2OSIgaW5rc2NhcGU6Y29ubmVjdG9yLWN1cnZhdHVyZT0iMCIgc3R5bGU9ImZpbGw6bm9uZTtzdHJva2U6IzAwMDAwMDtzdHJva2Utd2lkdGg6MC42MTI0O3N0cm9rZS1saW5lY2FwOnJvdW5kO3N0cm9rZS1saW5lam9pbjpyb3VuZDtzdHJva2UtbWl0ZXJsaW1pdDozOyIgZD0iICAgICBNMCw1OS44NWgyOC4zOCIvPiYjeGE7CQk8L2c+JiN4YTsJCTxnIGlkPSJzaGFwZTc2MzctMTIiIHRyYW5zZm9ybT0idHJhbnNsYXRlKDE2LjQ3MzUsLTQ1LjE3NDYpIj4mI3hhOwkJCTx0aXRsZSBpZD0idGl0bGU2NDcyIj5TaGVldC43NjM3PC90aXRsZT4mI3hhOwkJCTxwYXRoIGlkPSJwYXRoNjQ3NCIgaW5rc2NhcGU6Y29ubmVjdG9yLWN1cnZhdHVyZT0iMCIgc3R5bGU9ImZpbGw6IzAwQkNGMjsiIGQ9Ik0xNS4wNSw1Ny41NmMtMTQsMC0xNCwwLTE0LDAgICAgIEMwLjQzLDU3LjU2LDAsNTguMDMsMCw1OC43MWMwLDAuNjksMC40MywxLjE0LDEuMDUsMS4xNGMxNCwwLDE0LDAsMTQsMFY1Ny41NnoiLz4mI3hhOwkJPC9nPiYjeGE7CQk8ZyBpZD0ic2hhcGU3NjM4LTE0IiB0cmFuc2Zvcm09InRyYW5zbGF0ZSgwLC0zOS4zNjEpIj4mI3hhOwkJCTx0aXRsZSBpZD0idGl0bGU2NDc3Ij5TaGVldC43NjM4PC90aXRsZT4mI3hhOwkJCSYjeGE7CQkJCTxwYXRoIGlkPSJwYXRoNjQ3OSIgaW5rc2NhcGU6Y29ubmVjdG9yLWN1cnZhdHVyZT0iMCIgc3R5bGU9ImZpbGw6bm9uZTtzdHJva2U6IzAwMDAwMDtzdHJva2Utd2lkdGg6MC42MTI0O3N0cm9rZS1saW5lY2FwOnJvdW5kO3N0cm9rZS1saW5lam9pbjpyb3VuZDtzdHJva2UtbWl0ZXJsaW1pdDozOyIgZD0iICAgICBNMCw1OS44NWgyOC4zOCIvPiYjeGE7CQk8L2c+JiN4YTsJCTxnIGlkPSJzaGFwZTc2MzktMTciIHRyYW5zZm9ybT0idHJhbnNsYXRlKDE2LjQ3MzUsLTM4LjMxMjYpIj4mI3hhOwkJCTx0aXRsZSBpZD0idGl0bGU2NDgyIj5TaGVldC43NjM5PC90aXRsZT4mI3hhOwkJCTxwYXRoIGlkPSJwYXRoNjQ4NCIgaW5rc2NhcGU6Y29ubmVjdG9yLWN1cnZhdHVyZT0iMCIgc3R5bGU9ImZpbGw6IzAwQkNGMjsiIGQ9Ik0xNS4wNSw1Ny43NWMtMTQsMC0xNCwwLTE0LDAgICAgIEMwLjQzLDU3Ljc1LDAsNTguMTgsMCw1OC44YzAsMC42MywwLjQzLDEuMDUsMS4wNSwxLjA1YzE0LDAsMTQsMCwxNCwwVjU3Ljc1eiIvPiYjeGE7CQk8L2c+JiN4YTsJCTxnIGlkPSJzaGFwZTc2NDAtMTkiIHRyYW5zZm9ybT0idHJhbnNsYXRlKDAsLTMyLjQ5OSkiPiYjeGE7CQkJPHRpdGxlIGlkPSJ0aXRsZTY0ODciPlNoZWV0Ljc2NDA8L3RpdGxlPiYjeGE7CQkJJiN4YTsJCQkJPHBhdGggaWQ9InBhdGg2NDg5IiBpbmtzY2FwZTpjb25uZWN0b3ItY3VydmF0dXJlPSIwIiBzdHlsZT0iZmlsbDpub25lO3N0cm9rZTojMDAwMDAwO3N0cm9rZS13aWR0aDowLjYxMjQ7c3Ryb2tlLWxpbmVjYXA6cm91bmQ7c3Ryb2tlLWxpbmVqb2luOnJvdW5kO3N0cm9rZS1taXRlcmxpbWl0OjM7IiBkPSIgICAgIE0wLDU5Ljg1aDI4LjM4Ii8+JiN4YTsJCTwvZz4mI3hhOwkJPGcgaWQ9InNoYXBlNzY0MS0yMiIgdHJhbnNmb3JtPSJ0cmFuc2xhdGUoMTYuNDczNSwtMzEuNDUwNykiPiYjeGE7CQkJPHRpdGxlIGlkPSJ0aXRsZTY0OTIiPlNoZWV0Ljc2NDE8L3RpdGxlPiYjeGE7CQkJPHBhdGggaWQ9InBhdGg2NDk0IiBpbmtzY2FwZTpjb25uZWN0b3ItY3VydmF0dXJlPSIwIiBzdHlsZT0iZmlsbDojMDBCQ0YyOyIgZD0iTTE1LjA1LDU3Ljc1Yy0xNCwwLTE0LDAtMTQsMCAgICAgQzAuNDMsNTcuNzUsMCw1OC4zOSwwLDU4LjhjMCwwLjYzLDAuNDMsMS4wNSwxLjA1LDEuMDVjMTQsMCwxNCwwLDE0LDBWNTcuNzV6Ii8+JiN4YTsJCTwvZz4mI3hhOwkJPGcgaWQ9InNoYXBlNzY0Mi0yNCIgdHJhbnNmb3JtPSJ0cmFuc2xhdGUoMTMuOTk3NywtOS45MTE3MykiPiYjeGE7CQkJPHRpdGxlIGlkPSJ0aXRsZTY0OTciPlNoZWV0Ljc2NDI8L3RpdGxlPiYjeGE7CQkJPHBhdGggaWQ9InBhdGg2NDk5IiBpbmtzY2FwZTpjb25uZWN0b3ItY3VydmF0dXJlPSIwIiBzdHlsZT0iZmlsbDojREZERkRGOyIgZD0iTTAsNTguMDRjMC0wLjk5LDAuNzctMS44MSwxLjcxLTEuODEgICAgIGMwLjk2LDAsMS43MiwwLjgyLDEuNzIsMS44MWMwLDEtMC43NiwxLjgxLTEuNzIsMS44MUMwLjc3LDU5Ljg1LDAsNTkuMDQsMCw1OC4wNHoiLz4mI3hhOwkJPC9nPiYjeGE7CQk8ZyBpZD0ic2hhcGU3NjQzLTI2IiB0cmFuc2Zvcm09InRyYW5zbGF0ZSgwLjA5NTIyMjcpIj4mI3hhOwkJCTx0aXRsZSBpZD0idGl0bGU2NTAyIj5TaGVldC43NjQzPC90aXRsZT4mI3hhOwkJCTxwYXRoIGlkPSJwYXRoNjUwNCIgaW5rc2NhcGU6Y29ubmVjdG9yLWN1cnZhdHVyZT0iMCIgc3R5bGU9ImZpbGw6Izk2OTY5NjsiIGQ9Ik0wLDU3LjM3YzAsMC45MSwwLDAuOTEsMCwwLjkxICAgICBjMCwwLjksMC42MywxLjU3LDEuMjYsMS41N2MyOC43MiwwLDI4LjcyLDAsMjguNzIsMGMwLjYzLDAsMS4yNS0wLjY3LDEuMjUtMS41N2MwLTAuOTEsMC0wLjkxLDAtMC45MUgweiIvPiYjeGE7CQk8L2c+JiN4YTsJCTxnIGlkPSJzaGFwZTc2NDQtMjgiIHRyYW5zZm9ybT0idHJhbnNsYXRlKDAuMDk1MjIyNywtMi40Nzc5MykiPiYjeGE7CQkJPHRpdGxlIGlkPSJ0aXRsZTY1MDciPlNoZWV0Ljc2NDQ8L3RpdGxlPiYjeGE7CQkJPHBhdGggaWQ9InBhdGg2NTA5IiBpbmtzY2FwZTpjb25uZWN0b3ItY3VydmF0dXJlPSIwIiBzdHlsZT0iZmlsbDojMjMxRjIwOyIgZD0iTTAsNTYuMjN2My42MmgzMS4yM3YtMy42MkgweiIvPiYjeGE7CQk8L2c+JiN4YTsJPC9nPiYjeGE7PC9nPiYjeGE7PC9zdmc+;" vertex="1" parent="1">
          <mxGeometry x="2724" y="-40" width="32" height="60" as="geometry" />
        </mxCell>
        <mxCell id="fT7zzyfTvzehRH6RShBd-36" style="edgeStyle=orthogonalEdgeStyle;rounded=0;orthogonalLoop=1;jettySize=auto;html=1;" edge="1" parent="1" source="fT7zzyfTvzehRH6RShBd-17" target="fT7zzyfTvzehRH6RShBd-22">
          <mxGeometry relative="1" as="geometry" />
        </mxCell>
        <mxCell id="fT7zzyfTvzehRH6RShBd-17" value="" style="shape=image;verticalLabelPosition=bottom;labelBackgroundColor=#ffffff;verticalAlign=top;aspect=fixed;imageAspect=0;image=data:image/svg+xml,PHN2ZyB4bWxuczpjYz0iaHR0cDovL2NyZWF0aXZlY29tbW9ucy5vcmcvbnMjIiB4bWxuczpkYz0iaHR0cDovL3B1cmwub3JnL2RjL2VsZW1lbnRzLzEuMS8iIHhtbG5zOmlua3NjYXBlPSJodHRwOi8vd3d3Lmlua3NjYXBlLm9yZy9uYW1lc3BhY2VzL2lua3NjYXBlIiB4bWxuczpyZGY9Imh0dHA6Ly93d3cudzMub3JnLzE5OTkvMDIvMjItcmRmLXN5bnRheC1ucyMiIHhtbG5zOnNvZGlwb2RpPSJodHRwOi8vc29kaXBvZGkuc291cmNlZm9yZ2UubmV0L0RURC9zb2RpcG9kaS0wLmR0ZCIgeG1sbnM6c3ZnPSJodHRwOi8vd3d3LnczLm9yZy8yMDAwL3N2ZyIgeG1sbnM9Imh0dHA6Ly93d3cudzMub3JnLzIwMDAvc3ZnIiB4bWxuczp4bGluaz0iaHR0cDovL3d3dy53My5vcmcvMTk5OS94bGluayIgdmVyc2lvbj0iMS4xIiBpZD0ic3ZnNzI0MSIgaW5rc2NhcGU6dmVyc2lvbj0iMC45Mi4zICgyNDA1NTQ2LCAyMDE4LTAzLTExKSIgc29kaXBvZGk6ZG9jbmFtZT0ic2VydmVyXzMuc3ZnIiB4PSIwcHgiIHk9IjBweCIgdmlld0JveD0iMCAwIDM2Ljc1IDYyLjc2IiBzdHlsZT0iZW5hYmxlLWJhY2tncm91bmQ6bmV3IDAgMCAzNi43NSA2Mi43NjsiIHhtbDpzcGFjZT0icHJlc2VydmUiPiYjeGE7PHNvZGlwb2RpOm5hbWVkdmlldyBib3JkZXJjb2xvcj0iIzY2NjY2NiIgYm9yZGVyb3BhY2l0eT0iMSIgZml0LW1hcmdpbi1ib3R0b209IjAiIGZpdC1tYXJnaW4tbGVmdD0iMCIgZml0LW1hcmdpbi1yaWdodD0iMCIgZml0LW1hcmdpbi10b3A9IjAiIGdyaWR0b2xlcmFuY2U9IjEwIiBndWlkZXRvbGVyYW5jZT0iMTAiIGlkPSJuYW1lZHZpZXc3MjQzIiBpbmtzY2FwZTpjdXJyZW50LWxheWVyPSJzdmc3MjQxIiBpbmtzY2FwZTpjeD0iMjQuNTAwMDE1IiBpbmtzY2FwZTpjeT0iNDEuODQxNjI2IiBpbmtzY2FwZTpwYWdlb3BhY2l0eT0iMCIgaW5rc2NhcGU6cGFnZXNoYWRvdz0iMiIgaW5rc2NhcGU6d2luZG93LWhlaWdodD0iMTAxNyIgaW5rc2NhcGU6d2luZG93LW1heGltaXplZD0iMSIgaW5rc2NhcGU6d2luZG93LXdpZHRoPSIxOTIwIiBpbmtzY2FwZTp3aW5kb3cteD0iLTgiIGlua3NjYXBlOndpbmRvdy15PSItOCIgaW5rc2NhcGU6em9vbT0iMTAuMzYxMjg3IiBvYmplY3R0b2xlcmFuY2U9IjEwIiBwYWdlY29sb3I9IiNmZmZmZmYiIHNob3dncmlkPSJmYWxzZSI+JiN4YTsJPC9zb2RpcG9kaTpuYW1lZHZpZXc+JiN4YTs8ZyBpZD0iZzcyMzkiPiYjeGE7CTx0aXRsZSBpZD0idGl0bGU3MTk5Ij5QYWdlLTE8L3RpdGxlPiYjeGE7CTxnIGlkPSJncm91cDc2NDUtMSI+JiN4YTsJCTx0aXRsZSBpZD0idGl0bGU3MjAxIj5TZXJ2ZXIgIzM8L3RpdGxlPiYjeGE7CQk8ZyBpZD0ic2hhcGU3NjQ2LTIiPiYjeGE7CQkJPHRpdGxlIGlkPSJ0aXRsZTcyMDMiPlNoZWV0Ljc2NDY8L3RpdGxlPiYjeGE7CQkJPHBhdGggaWQ9InBhdGg3MjA1IiBpbmtzY2FwZTpjb25uZWN0b3ItY3VydmF0dXJlPSIwIiBzdHlsZT0iZmlsbDojM0UzRTNFOyIgZD0iTTAsMi4xMkMwLDAuOTUsMC45NSwwLDIuMTIsMGgzMi41MyAgICAgYzEuMTcsMCwyLjEsMC45NSwyLjEsMi4xMnY1OC41M2MwLDEuMTctMC45MywyLjExLTIuMSwyLjExSDIuMTJDMC45NSw2Mi43NiwwLDYxLjgyLDAsNjAuNjVWMi4xMnoiLz4mI3hhOwkJPC9nPiYjeGE7CQk8ZyBpZD0ic2hhcGU3NjQ3LTQiIHRyYW5zZm9ybT0idHJhbnNsYXRlKDUuNjA1OTMsLTQ5LjI1MDIpIj4mI3hhOwkJCTx0aXRsZSBpZD0idGl0bGU3MjA4Ij5TaGVldC43NjQ3PC90aXRsZT4mI3hhOwkJCTxwYXRoIGlkPSJwYXRoNzIxMCIgaW5rc2NhcGU6Y29ubmVjdG9yLWN1cnZhdHVyZT0iMCIgc3R5bGU9ImZpbGw6IzFFMUUxRTsiIGQ9Ik0yLjE4LDU1LjljMCwwLTIuMTgsMC0yLjE4LDMuMTIgICAgIGMwLDAuNjcsMCwwLjY3LDAsMC42N3MwLDMuMDcsMi4xOCwzLjA3YzIxLjIyLDAsMjEuMjIsMCwyMS4yMiwwczIuMTQsMCwyLjE0LTMuMDdjMC0wLjY3LDAtMC42NywwLTAuNjdzMC0zLjEyLTIuMTQtMy4xMiAgICAgYy05Ljg1LDAtOS44NSwwLTkuODUsMEgyLjE4eiIvPiYjeGE7CQk8L2c+JiN4YTsJCTxnIGlkPSJzaGFwZTc2NDgtNiIgdHJhbnNmb3JtPSJ0cmFuc2xhdGUoNi4yMjg4MSwtNDkuNDU4KSI+JiN4YTsJCQk8dGl0bGUgaWQ9InRpdGxlNzIxMyI+U2hlZXQuNzY0ODwvdGl0bGU+JiN4YTsJCQk8cGF0aCBpZD0icGF0aDcyMTUiIGlua3NjYXBlOmNvbm5lY3Rvci1jdXJ2YXR1cmU9IjAiIHN0eWxlPSJmaWxsOiNCOEQ0MzI7IiBkPSJNMCw1OS41MWMwLTEuNywxLjQ0LTMuMTksMy4xNS0zLjE5ICAgICBjMS43MiwwLDMuMDgsMS40OSwzLjA4LDMuMTljMCwxLjgzLTEuMzYsMy4yNS0zLjA4LDMuMjVDMS40NCw2Mi43NiwwLDYxLjM0LDAsNTkuNTF6Ii8+JiN4YTsJCTwvZz4mI3hhOwkJPGcgaWQ9InNoYXBlNzY0OS04IiB0cmFuc2Zvcm09InRyYW5zbGF0ZSg1LjYwNTkzLC0zNy42MTMpIj4mI3hhOwkJCTx0aXRsZSBpZD0idGl0bGU3MjE4Ij5TaGVldC43NjQ5PC90aXRsZT4mI3hhOwkJCTxwYXRoIGlkPSJwYXRoNzIyMCIgaW5rc2NhcGU6Y29ubmVjdG9yLWN1cnZhdHVyZT0iMCIgc3R5bGU9ImZpbGw6IzFFMUUxRTsiIGQ9Ik0yLjE4LDU1LjljMCwwLTIuMTgsMC0yLjE4LDMuMTIgICAgIGMwLDAuNjcsMCwwLjY3LDAsMC42N3MwLDMuMDcsMi4xOCwzLjA3YzIxLjIyLDAsMjEuMjIsMCwyMS4yMiwwczIuMTQsMCwyLjE0LTMuMDdjMC0wLjY3LDAtMC42NywwLTAuNjdzMC0zLjEyLTIuMTQtMy4xMiAgICAgYy05Ljg1LDAtOS44NSwwLTkuODUsMEgyLjE4eiIvPiYjeGE7CQk8L2c+JiN4YTsJCTxnIGlkPSJzaGFwZTc2NTAtMTAiIHRyYW5zZm9ybT0idHJhbnNsYXRlKDYuMjI4ODEsLTM3LjgyMDgpIj4mI3hhOwkJCTx0aXRsZSBpZD0idGl0bGU3MjIzIj5TaGVldC43NjUwPC90aXRsZT4mI3hhOwkJCTxwYXRoIGlkPSJwYXRoNzIyNSIgaW5rc2NhcGU6Y29ubmVjdG9yLWN1cnZhdHVyZT0iMCIgc3R5bGU9ImZpbGw6I0I4RDQzMjsiIGQ9Ik0wLDU5LjUxYzAtMS43LDEuNDQtMy4xOSwzLjE1LTMuMTkgICAgIGMxLjcyLDAsMy4wOCwxLjQ5LDMuMDgsMy4xOWMwLDEuODMtMS4zNiwzLjI1LTMuMDgsMy4yNUMxLjQ0LDYyLjc2LDAsNjEuMzQsMCw1OS41MXoiLz4mI3hhOwkJPC9nPiYjeGE7CQk8ZyBpZD0ic2hhcGU3NjUxLTEyIiB0cmFuc2Zvcm09InRyYW5zbGF0ZSg1LjYwNTkzLC0yNS45NzU4KSI+JiN4YTsJCQk8dGl0bGUgaWQ9InRpdGxlNzIyOCI+U2hlZXQuNzY1MTwvdGl0bGU+JiN4YTsJCQk8cGF0aCBpZD0icGF0aDcyMzAiIGlua3NjYXBlOmNvbm5lY3Rvci1jdXJ2YXR1cmU9IjAiIHN0eWxlPSJmaWxsOiMxRTFFMUU7IiBkPSJNMi4xOCw1NS42OWMwLDAtMi4xOCwwLTIuMTgsMy4yMSAgICAgYzAsMC43LDAsMC43LDAsMC43czAsMy4xNiwyLjE4LDMuMTZjMjEuMjIsMCwyMS4yMiwwLDIxLjIyLDBzMi4xNCwwLDIuMTQtMy4xNmMwLTAuNywwLTAuNywwLTAuN3MwLTMuMjEtMi4xNC0zLjIxICAgICBjLTkuODUsMC05Ljg1LDAtOS44NSwwSDIuMTh6Ii8+JiN4YTsJCTwvZz4mI3hhOwkJPGcgaWQ9InNoYXBlNzY1Mi0xNCIgdHJhbnNmb3JtPSJ0cmFuc2xhdGUoNi4yMjg4MSwtMjYuMTgzNikiPiYjeGE7CQkJPHRpdGxlIGlkPSJ0aXRsZTcyMzMiPlNoZWV0Ljc2NTI8L3RpdGxlPiYjeGE7CQkJPHBhdGggaWQ9InBhdGg3MjM1IiBpbmtzY2FwZTpjb25uZWN0b3ItY3VydmF0dXJlPSIwIiBzdHlsZT0iZmlsbDojQjhENDMyOyIgZD0iTTAsNTkuNTFjMC0xLjcsMS40NC0zLjE5LDMuMTUtMy4xOSAgICAgYzEuNzIsMCwzLjA4LDEuNDksMy4wOCwzLjE5YzAsMS44My0xLjM2LDMuMjUtMy4wOCwzLjI1QzEuNDQsNjIuNzYsMCw2MS4zNCwwLDU5LjUxeiIvPiYjeGE7CQk8L2c+JiN4YTsJPC9nPiYjeGE7PC9nPiYjeGE7PC9zdmc+;" vertex="1" parent="1">
          <mxGeometry x="2540" y="172" width="37" height="63" as="geometry" />
        </mxCell>
        <mxCell id="fT7zzyfTvzehRH6RShBd-37" style="edgeStyle=orthogonalEdgeStyle;rounded=0;orthogonalLoop=1;jettySize=auto;html=1;entryX=0.5;entryY=0;entryDx=0;entryDy=0;" edge="1" parent="1" source="fT7zzyfTvzehRH6RShBd-18" target="fT7zzyfTvzehRH6RShBd-23">
          <mxGeometry relative="1" as="geometry" />
        </mxCell>
        <mxCell id="fT7zzyfTvzehRH6RShBd-18" value="" style="shape=image;verticalLabelPosition=bottom;labelBackgroundColor=#ffffff;verticalAlign=top;aspect=fixed;imageAspect=0;image=data:image/svg+xml,PHN2ZyB4bWxuczpjYz0iaHR0cDovL2NyZWF0aXZlY29tbW9ucy5vcmcvbnMjIiB4bWxuczpkYz0iaHR0cDovL3B1cmwub3JnL2RjL2VsZW1lbnRzLzEuMS8iIHhtbG5zOmlua3NjYXBlPSJodHRwOi8vd3d3Lmlua3NjYXBlLm9yZy9uYW1lc3BhY2VzL2lua3NjYXBlIiB4bWxuczpyZGY9Imh0dHA6Ly93d3cudzMub3JnLzE5OTkvMDIvMjItcmRmLXN5bnRheC1ucyMiIHhtbG5zOnNvZGlwb2RpPSJodHRwOi8vc29kaXBvZGkuc291cmNlZm9yZ2UubmV0L0RURC9zb2RpcG9kaS0wLmR0ZCIgeG1sbnM6c3ZnPSJodHRwOi8vd3d3LnczLm9yZy8yMDAwL3N2ZyIgeG1sbnM9Imh0dHA6Ly93d3cudzMub3JnLzIwMDAvc3ZnIiB4bWxuczp4bGluaz0iaHR0cDovL3d3dy53My5vcmcvMTk5OS94bGluayIgdmVyc2lvbj0iMS4xIiBpZD0ic3ZnNzI0MSIgaW5rc2NhcGU6dmVyc2lvbj0iMC45Mi4zICgyNDA1NTQ2LCAyMDE4LTAzLTExKSIgc29kaXBvZGk6ZG9jbmFtZT0ic2VydmVyXzMuc3ZnIiB4PSIwcHgiIHk9IjBweCIgdmlld0JveD0iMCAwIDM2Ljc1IDYyLjc2IiBzdHlsZT0iZW5hYmxlLWJhY2tncm91bmQ6bmV3IDAgMCAzNi43NSA2Mi43NjsiIHhtbDpzcGFjZT0icHJlc2VydmUiPiYjeGE7PHNvZGlwb2RpOm5hbWVkdmlldyBib3JkZXJjb2xvcj0iIzY2NjY2NiIgYm9yZGVyb3BhY2l0eT0iMSIgZml0LW1hcmdpbi1ib3R0b209IjAiIGZpdC1tYXJnaW4tbGVmdD0iMCIgZml0LW1hcmdpbi1yaWdodD0iMCIgZml0LW1hcmdpbi10b3A9IjAiIGdyaWR0b2xlcmFuY2U9IjEwIiBndWlkZXRvbGVyYW5jZT0iMTAiIGlkPSJuYW1lZHZpZXc3MjQzIiBpbmtzY2FwZTpjdXJyZW50LWxheWVyPSJzdmc3MjQxIiBpbmtzY2FwZTpjeD0iMjQuNTAwMDE1IiBpbmtzY2FwZTpjeT0iNDEuODQxNjI2IiBpbmtzY2FwZTpwYWdlb3BhY2l0eT0iMCIgaW5rc2NhcGU6cGFnZXNoYWRvdz0iMiIgaW5rc2NhcGU6d2luZG93LWhlaWdodD0iMTAxNyIgaW5rc2NhcGU6d2luZG93LW1heGltaXplZD0iMSIgaW5rc2NhcGU6d2luZG93LXdpZHRoPSIxOTIwIiBpbmtzY2FwZTp3aW5kb3cteD0iLTgiIGlua3NjYXBlOndpbmRvdy15PSItOCIgaW5rc2NhcGU6em9vbT0iMTAuMzYxMjg3IiBvYmplY3R0b2xlcmFuY2U9IjEwIiBwYWdlY29sb3I9IiNmZmZmZmYiIHNob3dncmlkPSJmYWxzZSI+JiN4YTsJPC9zb2RpcG9kaTpuYW1lZHZpZXc+JiN4YTs8ZyBpZD0iZzcyMzkiPiYjeGE7CTx0aXRsZSBpZD0idGl0bGU3MTk5Ij5QYWdlLTE8L3RpdGxlPiYjeGE7CTxnIGlkPSJncm91cDc2NDUtMSI+JiN4YTsJCTx0aXRsZSBpZD0idGl0bGU3MjAxIj5TZXJ2ZXIgIzM8L3RpdGxlPiYjeGE7CQk8ZyBpZD0ic2hhcGU3NjQ2LTIiPiYjeGE7CQkJPHRpdGxlIGlkPSJ0aXRsZTcyMDMiPlNoZWV0Ljc2NDY8L3RpdGxlPiYjeGE7CQkJPHBhdGggaWQ9InBhdGg3MjA1IiBpbmtzY2FwZTpjb25uZWN0b3ItY3VydmF0dXJlPSIwIiBzdHlsZT0iZmlsbDojM0UzRTNFOyIgZD0iTTAsMi4xMkMwLDAuOTUsMC45NSwwLDIuMTIsMGgzMi41MyAgICAgYzEuMTcsMCwyLjEsMC45NSwyLjEsMi4xMnY1OC41M2MwLDEuMTctMC45MywyLjExLTIuMSwyLjExSDIuMTJDMC45NSw2Mi43NiwwLDYxLjgyLDAsNjAuNjVWMi4xMnoiLz4mI3hhOwkJPC9nPiYjeGE7CQk8ZyBpZD0ic2hhcGU3NjQ3LTQiIHRyYW5zZm9ybT0idHJhbnNsYXRlKDUuNjA1OTMsLTQ5LjI1MDIpIj4mI3hhOwkJCTx0aXRsZSBpZD0idGl0bGU3MjA4Ij5TaGVldC43NjQ3PC90aXRsZT4mI3hhOwkJCTxwYXRoIGlkPSJwYXRoNzIxMCIgaW5rc2NhcGU6Y29ubmVjdG9yLWN1cnZhdHVyZT0iMCIgc3R5bGU9ImZpbGw6IzFFMUUxRTsiIGQ9Ik0yLjE4LDU1LjljMCwwLTIuMTgsMC0yLjE4LDMuMTIgICAgIGMwLDAuNjcsMCwwLjY3LDAsMC42N3MwLDMuMDcsMi4xOCwzLjA3YzIxLjIyLDAsMjEuMjIsMCwyMS4yMiwwczIuMTQsMCwyLjE0LTMuMDdjMC0wLjY3LDAtMC42NywwLTAuNjdzMC0zLjEyLTIuMTQtMy4xMiAgICAgYy05Ljg1LDAtOS44NSwwLTkuODUsMEgyLjE4eiIvPiYjeGE7CQk8L2c+JiN4YTsJCTxnIGlkPSJzaGFwZTc2NDgtNiIgdHJhbnNmb3JtPSJ0cmFuc2xhdGUoNi4yMjg4MSwtNDkuNDU4KSI+JiN4YTsJCQk8dGl0bGUgaWQ9InRpdGxlNzIxMyI+U2hlZXQuNzY0ODwvdGl0bGU+JiN4YTsJCQk8cGF0aCBpZD0icGF0aDcyMTUiIGlua3NjYXBlOmNvbm5lY3Rvci1jdXJ2YXR1cmU9IjAiIHN0eWxlPSJmaWxsOiNCOEQ0MzI7IiBkPSJNMCw1OS41MWMwLTEuNywxLjQ0LTMuMTksMy4xNS0zLjE5ICAgICBjMS43MiwwLDMuMDgsMS40OSwzLjA4LDMuMTljMCwxLjgzLTEuMzYsMy4yNS0zLjA4LDMuMjVDMS40NCw2Mi43NiwwLDYxLjM0LDAsNTkuNTF6Ii8+JiN4YTsJCTwvZz4mI3hhOwkJPGcgaWQ9InNoYXBlNzY0OS04IiB0cmFuc2Zvcm09InRyYW5zbGF0ZSg1LjYwNTkzLC0zNy42MTMpIj4mI3hhOwkJCTx0aXRsZSBpZD0idGl0bGU3MjE4Ij5TaGVldC43NjQ5PC90aXRsZT4mI3hhOwkJCTxwYXRoIGlkPSJwYXRoNzIyMCIgaW5rc2NhcGU6Y29ubmVjdG9yLWN1cnZhdHVyZT0iMCIgc3R5bGU9ImZpbGw6IzFFMUUxRTsiIGQ9Ik0yLjE4LDU1LjljMCwwLTIuMTgsMC0yLjE4LDMuMTIgICAgIGMwLDAuNjcsMCwwLjY3LDAsMC42N3MwLDMuMDcsMi4xOCwzLjA3YzIxLjIyLDAsMjEuMjIsMCwyMS4yMiwwczIuMTQsMCwyLjE0LTMuMDdjMC0wLjY3LDAtMC42NywwLTAuNjdzMC0zLjEyLTIuMTQtMy4xMiAgICAgYy05Ljg1LDAtOS44NSwwLTkuODUsMEgyLjE4eiIvPiYjeGE7CQk8L2c+JiN4YTsJCTxnIGlkPSJzaGFwZTc2NTAtMTAiIHRyYW5zZm9ybT0idHJhbnNsYXRlKDYuMjI4ODEsLTM3LjgyMDgpIj4mI3hhOwkJCTx0aXRsZSBpZD0idGl0bGU3MjIzIj5TaGVldC43NjUwPC90aXRsZT4mI3hhOwkJCTxwYXRoIGlkPSJwYXRoNzIyNSIgaW5rc2NhcGU6Y29ubmVjdG9yLWN1cnZhdHVyZT0iMCIgc3R5bGU9ImZpbGw6I0I4RDQzMjsiIGQ9Ik0wLDU5LjUxYzAtMS43LDEuNDQtMy4xOSwzLjE1LTMuMTkgICAgIGMxLjcyLDAsMy4wOCwxLjQ5LDMuMDgsMy4xOWMwLDEuODMtMS4zNiwzLjI1LTMuMDgsMy4yNUMxLjQ0LDYyLjc2LDAsNjEuMzQsMCw1OS41MXoiLz4mI3hhOwkJPC9nPiYjeGE7CQk8ZyBpZD0ic2hhcGU3NjUxLTEyIiB0cmFuc2Zvcm09InRyYW5zbGF0ZSg1LjYwNTkzLC0yNS45NzU4KSI+JiN4YTsJCQk8dGl0bGUgaWQ9InRpdGxlNzIyOCI+U2hlZXQuNzY1MTwvdGl0bGU+JiN4YTsJCQk8cGF0aCBpZD0icGF0aDcyMzAiIGlua3NjYXBlOmNvbm5lY3Rvci1jdXJ2YXR1cmU9IjAiIHN0eWxlPSJmaWxsOiMxRTFFMUU7IiBkPSJNMi4xOCw1NS42OWMwLDAtMi4xOCwwLTIuMTgsMy4yMSAgICAgYzAsMC43LDAsMC43LDAsMC43czAsMy4xNiwyLjE4LDMuMTZjMjEuMjIsMCwyMS4yMiwwLDIxLjIyLDBzMi4xNCwwLDIuMTQtMy4xNmMwLTAuNywwLTAuNywwLTAuN3MwLTMuMjEtMi4xNC0zLjIxICAgICBjLTkuODUsMC05Ljg1LDAtOS44NSwwSDIuMTh6Ii8+JiN4YTsJCTwvZz4mI3hhOwkJPGcgaWQ9InNoYXBlNzY1Mi0xNCIgdHJhbnNmb3JtPSJ0cmFuc2xhdGUoNi4yMjg4MSwtMjYuMTgzNikiPiYjeGE7CQkJPHRpdGxlIGlkPSJ0aXRsZTcyMzMiPlNoZWV0Ljc2NTI8L3RpdGxlPiYjeGE7CQkJPHBhdGggaWQ9InBhdGg3MjM1IiBpbmtzY2FwZTpjb25uZWN0b3ItY3VydmF0dXJlPSIwIiBzdHlsZT0iZmlsbDojQjhENDMyOyIgZD0iTTAsNTkuNTFjMC0xLjcsMS40NC0zLjE5LDMuMTUtMy4xOSAgICAgYzEuNzIsMCwzLjA4LDEuNDksMy4wOCwzLjE5YzAsMS44My0xLjM2LDMuMjUtMy4wOCwzLjI1QzEuNDQsNjIuNzYsMCw2MS4zNCwwLDU5LjUxeiIvPiYjeGE7CQk8L2c+JiN4YTsJPC9nPiYjeGE7PC9nPiYjeGE7PC9zdmc+;" vertex="1" parent="1">
          <mxGeometry x="2630" y="172" width="37" height="63" as="geometry" />
        </mxCell>
        <mxCell id="fT7zzyfTvzehRH6RShBd-38" style="edgeStyle=orthogonalEdgeStyle;rounded=0;orthogonalLoop=1;jettySize=auto;html=1;entryX=0.5;entryY=0;entryDx=0;entryDy=0;" edge="1" parent="1" source="fT7zzyfTvzehRH6RShBd-19" target="fT7zzyfTvzehRH6RShBd-24">
          <mxGeometry relative="1" as="geometry" />
        </mxCell>
        <mxCell id="fT7zzyfTvzehRH6RShBd-19" value="" style="shape=image;verticalLabelPosition=bottom;labelBackgroundColor=#ffffff;verticalAlign=top;aspect=fixed;imageAspect=0;image=data:image/svg+xml,PHN2ZyB4bWxuczpjYz0iaHR0cDovL2NyZWF0aXZlY29tbW9ucy5vcmcvbnMjIiB4bWxuczpkYz0iaHR0cDovL3B1cmwub3JnL2RjL2VsZW1lbnRzLzEuMS8iIHhtbG5zOmlua3NjYXBlPSJodHRwOi8vd3d3Lmlua3NjYXBlLm9yZy9uYW1lc3BhY2VzL2lua3NjYXBlIiB4bWxuczpyZGY9Imh0dHA6Ly93d3cudzMub3JnLzE5OTkvMDIvMjItcmRmLXN5bnRheC1ucyMiIHhtbG5zOnNvZGlwb2RpPSJodHRwOi8vc29kaXBvZGkuc291cmNlZm9yZ2UubmV0L0RURC9zb2RpcG9kaS0wLmR0ZCIgeG1sbnM6c3ZnPSJodHRwOi8vd3d3LnczLm9yZy8yMDAwL3N2ZyIgeG1sbnM9Imh0dHA6Ly93d3cudzMub3JnLzIwMDAvc3ZnIiB4bWxuczp4bGluaz0iaHR0cDovL3d3dy53My5vcmcvMTk5OS94bGluayIgdmVyc2lvbj0iMS4xIiBpZD0ic3ZnNzI0MSIgaW5rc2NhcGU6dmVyc2lvbj0iMC45Mi4zICgyNDA1NTQ2LCAyMDE4LTAzLTExKSIgc29kaXBvZGk6ZG9jbmFtZT0ic2VydmVyXzMuc3ZnIiB4PSIwcHgiIHk9IjBweCIgdmlld0JveD0iMCAwIDM2Ljc1IDYyLjc2IiBzdHlsZT0iZW5hYmxlLWJhY2tncm91bmQ6bmV3IDAgMCAzNi43NSA2Mi43NjsiIHhtbDpzcGFjZT0icHJlc2VydmUiPiYjeGE7PHNvZGlwb2RpOm5hbWVkdmlldyBib3JkZXJjb2xvcj0iIzY2NjY2NiIgYm9yZGVyb3BhY2l0eT0iMSIgZml0LW1hcmdpbi1ib3R0b209IjAiIGZpdC1tYXJnaW4tbGVmdD0iMCIgZml0LW1hcmdpbi1yaWdodD0iMCIgZml0LW1hcmdpbi10b3A9IjAiIGdyaWR0b2xlcmFuY2U9IjEwIiBndWlkZXRvbGVyYW5jZT0iMTAiIGlkPSJuYW1lZHZpZXc3MjQzIiBpbmtzY2FwZTpjdXJyZW50LWxheWVyPSJzdmc3MjQxIiBpbmtzY2FwZTpjeD0iMjQuNTAwMDE1IiBpbmtzY2FwZTpjeT0iNDEuODQxNjI2IiBpbmtzY2FwZTpwYWdlb3BhY2l0eT0iMCIgaW5rc2NhcGU6cGFnZXNoYWRvdz0iMiIgaW5rc2NhcGU6d2luZG93LWhlaWdodD0iMTAxNyIgaW5rc2NhcGU6d2luZG93LW1heGltaXplZD0iMSIgaW5rc2NhcGU6d2luZG93LXdpZHRoPSIxOTIwIiBpbmtzY2FwZTp3aW5kb3cteD0iLTgiIGlua3NjYXBlOndpbmRvdy15PSItOCIgaW5rc2NhcGU6em9vbT0iMTAuMzYxMjg3IiBvYmplY3R0b2xlcmFuY2U9IjEwIiBwYWdlY29sb3I9IiNmZmZmZmYiIHNob3dncmlkPSJmYWxzZSI+JiN4YTsJPC9zb2RpcG9kaTpuYW1lZHZpZXc+JiN4YTs8ZyBpZD0iZzcyMzkiPiYjeGE7CTx0aXRsZSBpZD0idGl0bGU3MTk5Ij5QYWdlLTE8L3RpdGxlPiYjeGE7CTxnIGlkPSJncm91cDc2NDUtMSI+JiN4YTsJCTx0aXRsZSBpZD0idGl0bGU3MjAxIj5TZXJ2ZXIgIzM8L3RpdGxlPiYjeGE7CQk8ZyBpZD0ic2hhcGU3NjQ2LTIiPiYjeGE7CQkJPHRpdGxlIGlkPSJ0aXRsZTcyMDMiPlNoZWV0Ljc2NDY8L3RpdGxlPiYjeGE7CQkJPHBhdGggaWQ9InBhdGg3MjA1IiBpbmtzY2FwZTpjb25uZWN0b3ItY3VydmF0dXJlPSIwIiBzdHlsZT0iZmlsbDojM0UzRTNFOyIgZD0iTTAsMi4xMkMwLDAuOTUsMC45NSwwLDIuMTIsMGgzMi41MyAgICAgYzEuMTcsMCwyLjEsMC45NSwyLjEsMi4xMnY1OC41M2MwLDEuMTctMC45MywyLjExLTIuMSwyLjExSDIuMTJDMC45NSw2Mi43NiwwLDYxLjgyLDAsNjAuNjVWMi4xMnoiLz4mI3hhOwkJPC9nPiYjeGE7CQk8ZyBpZD0ic2hhcGU3NjQ3LTQiIHRyYW5zZm9ybT0idHJhbnNsYXRlKDUuNjA1OTMsLTQ5LjI1MDIpIj4mI3hhOwkJCTx0aXRsZSBpZD0idGl0bGU3MjA4Ij5TaGVldC43NjQ3PC90aXRsZT4mI3hhOwkJCTxwYXRoIGlkPSJwYXRoNzIxMCIgaW5rc2NhcGU6Y29ubmVjdG9yLWN1cnZhdHVyZT0iMCIgc3R5bGU9ImZpbGw6IzFFMUUxRTsiIGQ9Ik0yLjE4LDU1LjljMCwwLTIuMTgsMC0yLjE4LDMuMTIgICAgIGMwLDAuNjcsMCwwLjY3LDAsMC42N3MwLDMuMDcsMi4xOCwzLjA3YzIxLjIyLDAsMjEuMjIsMCwyMS4yMiwwczIuMTQsMCwyLjE0LTMuMDdjMC0wLjY3LDAtMC42NywwLTAuNjdzMC0zLjEyLTIuMTQtMy4xMiAgICAgYy05Ljg1LDAtOS44NSwwLTkuODUsMEgyLjE4eiIvPiYjeGE7CQk8L2c+JiN4YTsJCTxnIGlkPSJzaGFwZTc2NDgtNiIgdHJhbnNmb3JtPSJ0cmFuc2xhdGUoNi4yMjg4MSwtNDkuNDU4KSI+JiN4YTsJCQk8dGl0bGUgaWQ9InRpdGxlNzIxMyI+U2hlZXQuNzY0ODwvdGl0bGU+JiN4YTsJCQk8cGF0aCBpZD0icGF0aDcyMTUiIGlua3NjYXBlOmNvbm5lY3Rvci1jdXJ2YXR1cmU9IjAiIHN0eWxlPSJmaWxsOiNCOEQ0MzI7IiBkPSJNMCw1OS41MWMwLTEuNywxLjQ0LTMuMTksMy4xNS0zLjE5ICAgICBjMS43MiwwLDMuMDgsMS40OSwzLjA4LDMuMTljMCwxLjgzLTEuMzYsMy4yNS0zLjA4LDMuMjVDMS40NCw2Mi43NiwwLDYxLjM0LDAsNTkuNTF6Ii8+JiN4YTsJCTwvZz4mI3hhOwkJPGcgaWQ9InNoYXBlNzY0OS04IiB0cmFuc2Zvcm09InRyYW5zbGF0ZSg1LjYwNTkzLC0zNy42MTMpIj4mI3hhOwkJCTx0aXRsZSBpZD0idGl0bGU3MjE4Ij5TaGVldC43NjQ5PC90aXRsZT4mI3hhOwkJCTxwYXRoIGlkPSJwYXRoNzIyMCIgaW5rc2NhcGU6Y29ubmVjdG9yLWN1cnZhdHVyZT0iMCIgc3R5bGU9ImZpbGw6IzFFMUUxRTsiIGQ9Ik0yLjE4LDU1LjljMCwwLTIuMTgsMC0yLjE4LDMuMTIgICAgIGMwLDAuNjcsMCwwLjY3LDAsMC42N3MwLDMuMDcsMi4xOCwzLjA3YzIxLjIyLDAsMjEuMjIsMCwyMS4yMiwwczIuMTQsMCwyLjE0LTMuMDdjMC0wLjY3LDAtMC42NywwLTAuNjdzMC0zLjEyLTIuMTQtMy4xMiAgICAgYy05Ljg1LDAtOS44NSwwLTkuODUsMEgyLjE4eiIvPiYjeGE7CQk8L2c+JiN4YTsJCTxnIGlkPSJzaGFwZTc2NTAtMTAiIHRyYW5zZm9ybT0idHJhbnNsYXRlKDYuMjI4ODEsLTM3LjgyMDgpIj4mI3hhOwkJCTx0aXRsZSBpZD0idGl0bGU3MjIzIj5TaGVldC43NjUwPC90aXRsZT4mI3hhOwkJCTxwYXRoIGlkPSJwYXRoNzIyNSIgaW5rc2NhcGU6Y29ubmVjdG9yLWN1cnZhdHVyZT0iMCIgc3R5bGU9ImZpbGw6I0I4RDQzMjsiIGQ9Ik0wLDU5LjUxYzAtMS43LDEuNDQtMy4xOSwzLjE1LTMuMTkgICAgIGMxLjcyLDAsMy4wOCwxLjQ5LDMuMDgsMy4xOWMwLDEuODMtMS4zNiwzLjI1LTMuMDgsMy4yNUMxLjQ0LDYyLjc2LDAsNjEuMzQsMCw1OS41MXoiLz4mI3hhOwkJPC9nPiYjeGE7CQk8ZyBpZD0ic2hhcGU3NjUxLTEyIiB0cmFuc2Zvcm09InRyYW5zbGF0ZSg1LjYwNTkzLC0yNS45NzU4KSI+JiN4YTsJCQk8dGl0bGUgaWQ9InRpdGxlNzIyOCI+U2hlZXQuNzY1MTwvdGl0bGU+JiN4YTsJCQk8cGF0aCBpZD0icGF0aDcyMzAiIGlua3NjYXBlOmNvbm5lY3Rvci1jdXJ2YXR1cmU9IjAiIHN0eWxlPSJmaWxsOiMxRTFFMUU7IiBkPSJNMi4xOCw1NS42OWMwLDAtMi4xOCwwLTIuMTgsMy4yMSAgICAgYzAsMC43LDAsMC43LDAsMC43czAsMy4xNiwyLjE4LDMuMTZjMjEuMjIsMCwyMS4yMiwwLDIxLjIyLDBzMi4xNCwwLDIuMTQtMy4xNmMwLTAuNywwLTAuNywwLTAuN3MwLTMuMjEtMi4xNC0zLjIxICAgICBjLTkuODUsMC05Ljg1LDAtOS44NSwwSDIuMTh6Ii8+JiN4YTsJCTwvZz4mI3hhOwkJPGcgaWQ9InNoYXBlNzY1Mi0xNCIgdHJhbnNmb3JtPSJ0cmFuc2xhdGUoNi4yMjg4MSwtMjYuMTgzNikiPiYjeGE7CQkJPHRpdGxlIGlkPSJ0aXRsZTcyMzMiPlNoZWV0Ljc2NTI8L3RpdGxlPiYjeGE7CQkJPHBhdGggaWQ9InBhdGg3MjM1IiBpbmtzY2FwZTpjb25uZWN0b3ItY3VydmF0dXJlPSIwIiBzdHlsZT0iZmlsbDojQjhENDMyOyIgZD0iTTAsNTkuNTFjMC0xLjcsMS40NC0zLjE5LDMuMTUtMy4xOSAgICAgYzEuNzIsMCwzLjA4LDEuNDksMy4wOCwzLjE5YzAsMS44My0xLjM2LDMuMjUtMy4wOCwzLjI1QzEuNDQsNjIuNzYsMCw2MS4zNCwwLDU5LjUxeiIvPiYjeGE7CQk8L2c+JiN4YTsJPC9nPiYjeGE7PC9nPiYjeGE7PC9zdmc+;" vertex="1" parent="1">
          <mxGeometry x="2721.5" y="173.5" width="37" height="63" as="geometry" />
        </mxCell>
        <mxCell id="fT7zzyfTvzehRH6RShBd-39" style="edgeStyle=orthogonalEdgeStyle;rounded=0;orthogonalLoop=1;jettySize=auto;html=1;entryX=0.5;entryY=0;entryDx=0;entryDy=0;" edge="1" parent="1" source="fT7zzyfTvzehRH6RShBd-20" target="fT7zzyfTvzehRH6RShBd-25">
          <mxGeometry relative="1" as="geometry" />
        </mxCell>
        <mxCell id="fT7zzyfTvzehRH6RShBd-20" value="" style="shape=image;verticalLabelPosition=bottom;labelBackgroundColor=#ffffff;verticalAlign=top;aspect=fixed;imageAspect=0;image=data:image/svg+xml,PHN2ZyB4bWxuczpjYz0iaHR0cDovL2NyZWF0aXZlY29tbW9ucy5vcmcvbnMjIiB4bWxuczpkYz0iaHR0cDovL3B1cmwub3JnL2RjL2VsZW1lbnRzLzEuMS8iIHhtbG5zOmlua3NjYXBlPSJodHRwOi8vd3d3Lmlua3NjYXBlLm9yZy9uYW1lc3BhY2VzL2lua3NjYXBlIiB4bWxuczpyZGY9Imh0dHA6Ly93d3cudzMub3JnLzE5OTkvMDIvMjItcmRmLXN5bnRheC1ucyMiIHhtbG5zOnNvZGlwb2RpPSJodHRwOi8vc29kaXBvZGkuc291cmNlZm9yZ2UubmV0L0RURC9zb2RpcG9kaS0wLmR0ZCIgeG1sbnM6c3ZnPSJodHRwOi8vd3d3LnczLm9yZy8yMDAwL3N2ZyIgeG1sbnM9Imh0dHA6Ly93d3cudzMub3JnLzIwMDAvc3ZnIiB4bWxuczp4bGluaz0iaHR0cDovL3d3dy53My5vcmcvMTk5OS94bGluayIgdmVyc2lvbj0iMS4xIiBpZD0ic3ZnNzI0MSIgaW5rc2NhcGU6dmVyc2lvbj0iMC45Mi4zICgyNDA1NTQ2LCAyMDE4LTAzLTExKSIgc29kaXBvZGk6ZG9jbmFtZT0ic2VydmVyXzMuc3ZnIiB4PSIwcHgiIHk9IjBweCIgdmlld0JveD0iMCAwIDM2Ljc1IDYyLjc2IiBzdHlsZT0iZW5hYmxlLWJhY2tncm91bmQ6bmV3IDAgMCAzNi43NSA2Mi43NjsiIHhtbDpzcGFjZT0icHJlc2VydmUiPiYjeGE7PHNvZGlwb2RpOm5hbWVkdmlldyBib3JkZXJjb2xvcj0iIzY2NjY2NiIgYm9yZGVyb3BhY2l0eT0iMSIgZml0LW1hcmdpbi1ib3R0b209IjAiIGZpdC1tYXJnaW4tbGVmdD0iMCIgZml0LW1hcmdpbi1yaWdodD0iMCIgZml0LW1hcmdpbi10b3A9IjAiIGdyaWR0b2xlcmFuY2U9IjEwIiBndWlkZXRvbGVyYW5jZT0iMTAiIGlkPSJuYW1lZHZpZXc3MjQzIiBpbmtzY2FwZTpjdXJyZW50LWxheWVyPSJzdmc3MjQxIiBpbmtzY2FwZTpjeD0iMjQuNTAwMDE1IiBpbmtzY2FwZTpjeT0iNDEuODQxNjI2IiBpbmtzY2FwZTpwYWdlb3BhY2l0eT0iMCIgaW5rc2NhcGU6cGFnZXNoYWRvdz0iMiIgaW5rc2NhcGU6d2luZG93LWhlaWdodD0iMTAxNyIgaW5rc2NhcGU6d2luZG93LW1heGltaXplZD0iMSIgaW5rc2NhcGU6d2luZG93LXdpZHRoPSIxOTIwIiBpbmtzY2FwZTp3aW5kb3cteD0iLTgiIGlua3NjYXBlOndpbmRvdy15PSItOCIgaW5rc2NhcGU6em9vbT0iMTAuMzYxMjg3IiBvYmplY3R0b2xlcmFuY2U9IjEwIiBwYWdlY29sb3I9IiNmZmZmZmYiIHNob3dncmlkPSJmYWxzZSI+JiN4YTsJPC9zb2RpcG9kaTpuYW1lZHZpZXc+JiN4YTs8ZyBpZD0iZzcyMzkiPiYjeGE7CTx0aXRsZSBpZD0idGl0bGU3MTk5Ij5QYWdlLTE8L3RpdGxlPiYjeGE7CTxnIGlkPSJncm91cDc2NDUtMSI+JiN4YTsJCTx0aXRsZSBpZD0idGl0bGU3MjAxIj5TZXJ2ZXIgIzM8L3RpdGxlPiYjeGE7CQk8ZyBpZD0ic2hhcGU3NjQ2LTIiPiYjeGE7CQkJPHRpdGxlIGlkPSJ0aXRsZTcyMDMiPlNoZWV0Ljc2NDY8L3RpdGxlPiYjeGE7CQkJPHBhdGggaWQ9InBhdGg3MjA1IiBpbmtzY2FwZTpjb25uZWN0b3ItY3VydmF0dXJlPSIwIiBzdHlsZT0iZmlsbDojM0UzRTNFOyIgZD0iTTAsMi4xMkMwLDAuOTUsMC45NSwwLDIuMTIsMGgzMi41MyAgICAgYzEuMTcsMCwyLjEsMC45NSwyLjEsMi4xMnY1OC41M2MwLDEuMTctMC45MywyLjExLTIuMSwyLjExSDIuMTJDMC45NSw2Mi43NiwwLDYxLjgyLDAsNjAuNjVWMi4xMnoiLz4mI3hhOwkJPC9nPiYjeGE7CQk8ZyBpZD0ic2hhcGU3NjQ3LTQiIHRyYW5zZm9ybT0idHJhbnNsYXRlKDUuNjA1OTMsLTQ5LjI1MDIpIj4mI3hhOwkJCTx0aXRsZSBpZD0idGl0bGU3MjA4Ij5TaGVldC43NjQ3PC90aXRsZT4mI3hhOwkJCTxwYXRoIGlkPSJwYXRoNzIxMCIgaW5rc2NhcGU6Y29ubmVjdG9yLWN1cnZhdHVyZT0iMCIgc3R5bGU9ImZpbGw6IzFFMUUxRTsiIGQ9Ik0yLjE4LDU1LjljMCwwLTIuMTgsMC0yLjE4LDMuMTIgICAgIGMwLDAuNjcsMCwwLjY3LDAsMC42N3MwLDMuMDcsMi4xOCwzLjA3YzIxLjIyLDAsMjEuMjIsMCwyMS4yMiwwczIuMTQsMCwyLjE0LTMuMDdjMC0wLjY3LDAtMC42NywwLTAuNjdzMC0zLjEyLTIuMTQtMy4xMiAgICAgYy05Ljg1LDAtOS44NSwwLTkuODUsMEgyLjE4eiIvPiYjeGE7CQk8L2c+JiN4YTsJCTxnIGlkPSJzaGFwZTc2NDgtNiIgdHJhbnNmb3JtPSJ0cmFuc2xhdGUoNi4yMjg4MSwtNDkuNDU4KSI+JiN4YTsJCQk8dGl0bGUgaWQ9InRpdGxlNzIxMyI+U2hlZXQuNzY0ODwvdGl0bGU+JiN4YTsJCQk8cGF0aCBpZD0icGF0aDcyMTUiIGlua3NjYXBlOmNvbm5lY3Rvci1jdXJ2YXR1cmU9IjAiIHN0eWxlPSJmaWxsOiNCOEQ0MzI7IiBkPSJNMCw1OS41MWMwLTEuNywxLjQ0LTMuMTksMy4xNS0zLjE5ICAgICBjMS43MiwwLDMuMDgsMS40OSwzLjA4LDMuMTljMCwxLjgzLTEuMzYsMy4yNS0zLjA4LDMuMjVDMS40NCw2Mi43NiwwLDYxLjM0LDAsNTkuNTF6Ii8+JiN4YTsJCTwvZz4mI3hhOwkJPGcgaWQ9InNoYXBlNzY0OS04IiB0cmFuc2Zvcm09InRyYW5zbGF0ZSg1LjYwNTkzLC0zNy42MTMpIj4mI3hhOwkJCTx0aXRsZSBpZD0idGl0bGU3MjE4Ij5TaGVldC43NjQ5PC90aXRsZT4mI3hhOwkJCTxwYXRoIGlkPSJwYXRoNzIyMCIgaW5rc2NhcGU6Y29ubmVjdG9yLWN1cnZhdHVyZT0iMCIgc3R5bGU9ImZpbGw6IzFFMUUxRTsiIGQ9Ik0yLjE4LDU1LjljMCwwLTIuMTgsMC0yLjE4LDMuMTIgICAgIGMwLDAuNjcsMCwwLjY3LDAsMC42N3MwLDMuMDcsMi4xOCwzLjA3YzIxLjIyLDAsMjEuMjIsMCwyMS4yMiwwczIuMTQsMCwyLjE0LTMuMDdjMC0wLjY3LDAtMC42NywwLTAuNjdzMC0zLjEyLTIuMTQtMy4xMiAgICAgYy05Ljg1LDAtOS44NSwwLTkuODUsMEgyLjE4eiIvPiYjeGE7CQk8L2c+JiN4YTsJCTxnIGlkPSJzaGFwZTc2NTAtMTAiIHRyYW5zZm9ybT0idHJhbnNsYXRlKDYuMjI4ODEsLTM3LjgyMDgpIj4mI3hhOwkJCTx0aXRsZSBpZD0idGl0bGU3MjIzIj5TaGVldC43NjUwPC90aXRsZT4mI3hhOwkJCTxwYXRoIGlkPSJwYXRoNzIyNSIgaW5rc2NhcGU6Y29ubmVjdG9yLWN1cnZhdHVyZT0iMCIgc3R5bGU9ImZpbGw6I0I4RDQzMjsiIGQ9Ik0wLDU5LjUxYzAtMS43LDEuNDQtMy4xOSwzLjE1LTMuMTkgICAgIGMxLjcyLDAsMy4wOCwxLjQ5LDMuMDgsMy4xOWMwLDEuODMtMS4zNiwzLjI1LTMuMDgsMy4yNUMxLjQ0LDYyLjc2LDAsNjEuMzQsMCw1OS41MXoiLz4mI3hhOwkJPC9nPiYjeGE7CQk8ZyBpZD0ic2hhcGU3NjUxLTEyIiB0cmFuc2Zvcm09InRyYW5zbGF0ZSg1LjYwNTkzLC0yNS45NzU4KSI+JiN4YTsJCQk8dGl0bGUgaWQ9InRpdGxlNzIyOCI+U2hlZXQuNzY1MTwvdGl0bGU+JiN4YTsJCQk8cGF0aCBpZD0icGF0aDcyMzAiIGlua3NjYXBlOmNvbm5lY3Rvci1jdXJ2YXR1cmU9IjAiIHN0eWxlPSJmaWxsOiMxRTFFMUU7IiBkPSJNMi4xOCw1NS42OWMwLDAtMi4xOCwwLTIuMTgsMy4yMSAgICAgYzAsMC43LDAsMC43LDAsMC43czAsMy4xNiwyLjE4LDMuMTZjMjEuMjIsMCwyMS4yMiwwLDIxLjIyLDBzMi4xNCwwLDIuMTQtMy4xNmMwLTAuNywwLTAuNywwLTAuN3MwLTMuMjEtMi4xNC0zLjIxICAgICBjLTkuODUsMC05Ljg1LDAtOS44NSwwSDIuMTh6Ii8+JiN4YTsJCTwvZz4mI3hhOwkJPGcgaWQ9InNoYXBlNzY1Mi0xNCIgdHJhbnNmb3JtPSJ0cmFuc2xhdGUoNi4yMjg4MSwtMjYuMTgzNikiPiYjeGE7CQkJPHRpdGxlIGlkPSJ0aXRsZTcyMzMiPlNoZWV0Ljc2NTI8L3RpdGxlPiYjeGE7CQkJPHBhdGggaWQ9InBhdGg3MjM1IiBpbmtzY2FwZTpjb25uZWN0b3ItY3VydmF0dXJlPSIwIiBzdHlsZT0iZmlsbDojQjhENDMyOyIgZD0iTTAsNTkuNTFjMC0xLjcsMS40NC0zLjE5LDMuMTUtMy4xOSAgICAgYzEuNzIsMCwzLjA4LDEuNDksMy4wOCwzLjE5YzAsMS44My0xLjM2LDMuMjUtMy4wOCwzLjI1QzEuNDQsNjIuNzYsMCw2MS4zNCwwLDU5LjUxeiIvPiYjeGE7CQk8L2c+JiN4YTsJPC9nPiYjeGE7PC9nPiYjeGE7PC9zdmc+;" vertex="1" parent="1">
          <mxGeometry x="2820" y="172" width="37" height="63" as="geometry" />
        </mxCell>
        <mxCell id="fT7zzyfTvzehRH6RShBd-40" style="edgeStyle=orthogonalEdgeStyle;rounded=0;orthogonalLoop=1;jettySize=auto;html=1;entryX=0.5;entryY=0;entryDx=0;entryDy=0;" edge="1" parent="1" source="fT7zzyfTvzehRH6RShBd-21" target="fT7zzyfTvzehRH6RShBd-26">
          <mxGeometry relative="1" as="geometry" />
        </mxCell>
        <mxCell id="fT7zzyfTvzehRH6RShBd-21" value="" style="shape=image;verticalLabelPosition=bottom;labelBackgroundColor=#ffffff;verticalAlign=top;aspect=fixed;imageAspect=0;image=data:image/svg+xml,PHN2ZyB4bWxuczpjYz0iaHR0cDovL2NyZWF0aXZlY29tbW9ucy5vcmcvbnMjIiB4bWxuczpkYz0iaHR0cDovL3B1cmwub3JnL2RjL2VsZW1lbnRzLzEuMS8iIHhtbG5zOmlua3NjYXBlPSJodHRwOi8vd3d3Lmlua3NjYXBlLm9yZy9uYW1lc3BhY2VzL2lua3NjYXBlIiB4bWxuczpyZGY9Imh0dHA6Ly93d3cudzMub3JnLzE5OTkvMDIvMjItcmRmLXN5bnRheC1ucyMiIHhtbG5zOnNvZGlwb2RpPSJodHRwOi8vc29kaXBvZGkuc291cmNlZm9yZ2UubmV0L0RURC9zb2RpcG9kaS0wLmR0ZCIgeG1sbnM6c3ZnPSJodHRwOi8vd3d3LnczLm9yZy8yMDAwL3N2ZyIgeG1sbnM9Imh0dHA6Ly93d3cudzMub3JnLzIwMDAvc3ZnIiB4bWxuczp4bGluaz0iaHR0cDovL3d3dy53My5vcmcvMTk5OS94bGluayIgdmVyc2lvbj0iMS4xIiBpZD0ic3ZnNzI0MSIgaW5rc2NhcGU6dmVyc2lvbj0iMC45Mi4zICgyNDA1NTQ2LCAyMDE4LTAzLTExKSIgc29kaXBvZGk6ZG9jbmFtZT0ic2VydmVyXzMuc3ZnIiB4PSIwcHgiIHk9IjBweCIgdmlld0JveD0iMCAwIDM2Ljc1IDYyLjc2IiBzdHlsZT0iZW5hYmxlLWJhY2tncm91bmQ6bmV3IDAgMCAzNi43NSA2Mi43NjsiIHhtbDpzcGFjZT0icHJlc2VydmUiPiYjeGE7PHNvZGlwb2RpOm5hbWVkdmlldyBib3JkZXJjb2xvcj0iIzY2NjY2NiIgYm9yZGVyb3BhY2l0eT0iMSIgZml0LW1hcmdpbi1ib3R0b209IjAiIGZpdC1tYXJnaW4tbGVmdD0iMCIgZml0LW1hcmdpbi1yaWdodD0iMCIgZml0LW1hcmdpbi10b3A9IjAiIGdyaWR0b2xlcmFuY2U9IjEwIiBndWlkZXRvbGVyYW5jZT0iMTAiIGlkPSJuYW1lZHZpZXc3MjQzIiBpbmtzY2FwZTpjdXJyZW50LWxheWVyPSJzdmc3MjQxIiBpbmtzY2FwZTpjeD0iMjQuNTAwMDE1IiBpbmtzY2FwZTpjeT0iNDEuODQxNjI2IiBpbmtzY2FwZTpwYWdlb3BhY2l0eT0iMCIgaW5rc2NhcGU6cGFnZXNoYWRvdz0iMiIgaW5rc2NhcGU6d2luZG93LWhlaWdodD0iMTAxNyIgaW5rc2NhcGU6d2luZG93LW1heGltaXplZD0iMSIgaW5rc2NhcGU6d2luZG93LXdpZHRoPSIxOTIwIiBpbmtzY2FwZTp3aW5kb3cteD0iLTgiIGlua3NjYXBlOndpbmRvdy15PSItOCIgaW5rc2NhcGU6em9vbT0iMTAuMzYxMjg3IiBvYmplY3R0b2xlcmFuY2U9IjEwIiBwYWdlY29sb3I9IiNmZmZmZmYiIHNob3dncmlkPSJmYWxzZSI+JiN4YTsJPC9zb2RpcG9kaTpuYW1lZHZpZXc+JiN4YTs8ZyBpZD0iZzcyMzkiPiYjeGE7CTx0aXRsZSBpZD0idGl0bGU3MTk5Ij5QYWdlLTE8L3RpdGxlPiYjeGE7CTxnIGlkPSJncm91cDc2NDUtMSI+JiN4YTsJCTx0aXRsZSBpZD0idGl0bGU3MjAxIj5TZXJ2ZXIgIzM8L3RpdGxlPiYjeGE7CQk8ZyBpZD0ic2hhcGU3NjQ2LTIiPiYjeGE7CQkJPHRpdGxlIGlkPSJ0aXRsZTcyMDMiPlNoZWV0Ljc2NDY8L3RpdGxlPiYjeGE7CQkJPHBhdGggaWQ9InBhdGg3MjA1IiBpbmtzY2FwZTpjb25uZWN0b3ItY3VydmF0dXJlPSIwIiBzdHlsZT0iZmlsbDojM0UzRTNFOyIgZD0iTTAsMi4xMkMwLDAuOTUsMC45NSwwLDIuMTIsMGgzMi41MyAgICAgYzEuMTcsMCwyLjEsMC45NSwyLjEsMi4xMnY1OC41M2MwLDEuMTctMC45MywyLjExLTIuMSwyLjExSDIuMTJDMC45NSw2Mi43NiwwLDYxLjgyLDAsNjAuNjVWMi4xMnoiLz4mI3hhOwkJPC9nPiYjeGE7CQk8ZyBpZD0ic2hhcGU3NjQ3LTQiIHRyYW5zZm9ybT0idHJhbnNsYXRlKDUuNjA1OTMsLTQ5LjI1MDIpIj4mI3hhOwkJCTx0aXRsZSBpZD0idGl0bGU3MjA4Ij5TaGVldC43NjQ3PC90aXRsZT4mI3hhOwkJCTxwYXRoIGlkPSJwYXRoNzIxMCIgaW5rc2NhcGU6Y29ubmVjdG9yLWN1cnZhdHVyZT0iMCIgc3R5bGU9ImZpbGw6IzFFMUUxRTsiIGQ9Ik0yLjE4LDU1LjljMCwwLTIuMTgsMC0yLjE4LDMuMTIgICAgIGMwLDAuNjcsMCwwLjY3LDAsMC42N3MwLDMuMDcsMi4xOCwzLjA3YzIxLjIyLDAsMjEuMjIsMCwyMS4yMiwwczIuMTQsMCwyLjE0LTMuMDdjMC0wLjY3LDAtMC42NywwLTAuNjdzMC0zLjEyLTIuMTQtMy4xMiAgICAgYy05Ljg1LDAtOS44NSwwLTkuODUsMEgyLjE4eiIvPiYjeGE7CQk8L2c+JiN4YTsJCTxnIGlkPSJzaGFwZTc2NDgtNiIgdHJhbnNmb3JtPSJ0cmFuc2xhdGUoNi4yMjg4MSwtNDkuNDU4KSI+JiN4YTsJCQk8dGl0bGUgaWQ9InRpdGxlNzIxMyI+U2hlZXQuNzY0ODwvdGl0bGU+JiN4YTsJCQk8cGF0aCBpZD0icGF0aDcyMTUiIGlua3NjYXBlOmNvbm5lY3Rvci1jdXJ2YXR1cmU9IjAiIHN0eWxlPSJmaWxsOiNCOEQ0MzI7IiBkPSJNMCw1OS41MWMwLTEuNywxLjQ0LTMuMTksMy4xNS0zLjE5ICAgICBjMS43MiwwLDMuMDgsMS40OSwzLjA4LDMuMTljMCwxLjgzLTEuMzYsMy4yNS0zLjA4LDMuMjVDMS40NCw2Mi43NiwwLDYxLjM0LDAsNTkuNTF6Ii8+JiN4YTsJCTwvZz4mI3hhOwkJPGcgaWQ9InNoYXBlNzY0OS04IiB0cmFuc2Zvcm09InRyYW5zbGF0ZSg1LjYwNTkzLC0zNy42MTMpIj4mI3hhOwkJCTx0aXRsZSBpZD0idGl0bGU3MjE4Ij5TaGVldC43NjQ5PC90aXRsZT4mI3hhOwkJCTxwYXRoIGlkPSJwYXRoNzIyMCIgaW5rc2NhcGU6Y29ubmVjdG9yLWN1cnZhdHVyZT0iMCIgc3R5bGU9ImZpbGw6IzFFMUUxRTsiIGQ9Ik0yLjE4LDU1LjljMCwwLTIuMTgsMC0yLjE4LDMuMTIgICAgIGMwLDAuNjcsMCwwLjY3LDAsMC42N3MwLDMuMDcsMi4xOCwzLjA3YzIxLjIyLDAsMjEuMjIsMCwyMS4yMiwwczIuMTQsMCwyLjE0LTMuMDdjMC0wLjY3LDAtMC42NywwLTAuNjdzMC0zLjEyLTIuMTQtMy4xMiAgICAgYy05Ljg1LDAtOS44NSwwLTkuODUsMEgyLjE4eiIvPiYjeGE7CQk8L2c+JiN4YTsJCTxnIGlkPSJzaGFwZTc2NTAtMTAiIHRyYW5zZm9ybT0idHJhbnNsYXRlKDYuMjI4ODEsLTM3LjgyMDgpIj4mI3hhOwkJCTx0aXRsZSBpZD0idGl0bGU3MjIzIj5TaGVldC43NjUwPC90aXRsZT4mI3hhOwkJCTxwYXRoIGlkPSJwYXRoNzIyNSIgaW5rc2NhcGU6Y29ubmVjdG9yLWN1cnZhdHVyZT0iMCIgc3R5bGU9ImZpbGw6I0I4RDQzMjsiIGQ9Ik0wLDU5LjUxYzAtMS43LDEuNDQtMy4xOSwzLjE1LTMuMTkgICAgIGMxLjcyLDAsMy4wOCwxLjQ5LDMuMDgsMy4xOWMwLDEuODMtMS4zNiwzLjI1LTMuMDgsMy4yNUMxLjQ0LDYyLjc2LDAsNjEuMzQsMCw1OS41MXoiLz4mI3hhOwkJPC9nPiYjeGE7CQk8ZyBpZD0ic2hhcGU3NjUxLTEyIiB0cmFuc2Zvcm09InRyYW5zbGF0ZSg1LjYwNTkzLC0yNS45NzU4KSI+JiN4YTsJCQk8dGl0bGUgaWQ9InRpdGxlNzIyOCI+U2hlZXQuNzY1MTwvdGl0bGU+JiN4YTsJCQk8cGF0aCBpZD0icGF0aDcyMzAiIGlua3NjYXBlOmNvbm5lY3Rvci1jdXJ2YXR1cmU9IjAiIHN0eWxlPSJmaWxsOiMxRTFFMUU7IiBkPSJNMi4xOCw1NS42OWMwLDAtMi4xOCwwLTIuMTgsMy4yMSAgICAgYzAsMC43LDAsMC43LDAsMC43czAsMy4xNiwyLjE4LDMuMTZjMjEuMjIsMCwyMS4yMiwwLDIxLjIyLDBzMi4xNCwwLDIuMTQtMy4xNmMwLTAuNywwLTAuNywwLTAuN3MwLTMuMjEtMi4xNC0zLjIxICAgICBjLTkuODUsMC05Ljg1LDAtOS44NSwwSDIuMTh6Ii8+JiN4YTsJCTwvZz4mI3hhOwkJPGcgaWQ9InNoYXBlNzY1Mi0xNCIgdHJhbnNmb3JtPSJ0cmFuc2xhdGUoNi4yMjg4MSwtMjYuMTgzNikiPiYjeGE7CQkJPHRpdGxlIGlkPSJ0aXRsZTcyMzMiPlNoZWV0Ljc2NTI8L3RpdGxlPiYjeGE7CQkJPHBhdGggaWQ9InBhdGg3MjM1IiBpbmtzY2FwZTpjb25uZWN0b3ItY3VydmF0dXJlPSIwIiBzdHlsZT0iZmlsbDojQjhENDMyOyIgZD0iTTAsNTkuNTFjMC0xLjcsMS40NC0zLjE5LDMuMTUtMy4xOSAgICAgYzEuNzIsMCwzLjA4LDEuNDksMy4wOCwzLjE5YzAsMS44My0xLjM2LDMuMjUtMy4wOCwzLjI1QzEuNDQsNjIuNzYsMCw2MS4zNCwwLDU5LjUxeiIvPiYjeGE7CQk8L2c+JiN4YTsJPC9nPiYjeGE7PC9nPiYjeGE7PC9zdmc+;" vertex="1" parent="1">
          <mxGeometry x="2910" y="175" width="37" height="63" as="geometry" />
        </mxCell>
        <mxCell id="fT7zzyfTvzehRH6RShBd-22" value="" style="shape=image;verticalLabelPosition=bottom;labelBackgroundColor=#ffffff;verticalAlign=top;aspect=fixed;imageAspect=0;image=data:image/svg+xml,PHN2ZyB4bWxuczpjYz0iaHR0cDovL2NyZWF0aXZlY29tbW9ucy5vcmcvbnMjIiB4bWxuczpkYz0iaHR0cDovL3B1cmwub3JnL2RjL2VsZW1lbnRzLzEuMS8iIHhtbG5zOmlua3NjYXBlPSJodHRwOi8vd3d3Lmlua3NjYXBlLm9yZy9uYW1lc3BhY2VzL2lua3NjYXBlIiB4bWxuczpyZGY9Imh0dHA6Ly93d3cudzMub3JnLzE5OTkvMDIvMjItcmRmLXN5bnRheC1ucyMiIHhtbG5zOnNvZGlwb2RpPSJodHRwOi8vc29kaXBvZGkuc291cmNlZm9yZ2UubmV0L0RURC9zb2RpcG9kaS0wLmR0ZCIgeG1sbnM6c3ZnPSJodHRwOi8vd3d3LnczLm9yZy8yMDAwL3N2ZyIgeG1sbnM9Imh0dHA6Ly93d3cudzMub3JnLzIwMDAvc3ZnIiB4bWxuczp4bGluaz0iaHR0cDovL3d3dy53My5vcmcvMTk5OS94bGluayIgdmVyc2lvbj0iMS4xIiBpZD0ic3ZnMjMxMCIgaW5rc2NhcGU6dmVyc2lvbj0iMC45Mi4zICgyNDA1NTQ2LCAyMDE4LTAzLTExKSIgc29kaXBvZGk6ZG9jbmFtZT0ic3RvcmFnZV8xLnN2ZyIgeD0iMHB4IiB5PSIwcHgiIHZpZXdCb3g9IjAgMCA0Ni4zNSAzNy41MSIgc3R5bGU9ImVuYWJsZS1iYWNrZ3JvdW5kOm5ldyAwIDAgNDYuMzUgMzcuNTE7IiB4bWw6c3BhY2U9InByZXNlcnZlIj4mI3hhOzxzb2RpcG9kaTpuYW1lZHZpZXcgYm9yZGVyY29sb3I9IiM2NjY2NjYiIGJvcmRlcm9wYWNpdHk9IjEiIGZpdC1tYXJnaW4tYm90dG9tPSIwIiBmaXQtbWFyZ2luLWxlZnQ9IjAiIGZpdC1tYXJnaW4tcmlnaHQ9IjAiIGZpdC1tYXJnaW4tdG9wPSIwIiBncmlkdG9sZXJhbmNlPSIxMCIgZ3VpZGV0b2xlcmFuY2U9IjEwIiBpZD0ibmFtZWR2aWV3MjMxMiIgaW5rc2NhcGU6Y3VycmVudC1sYXllcj0ic3ZnMjMxMCIgaW5rc2NhcGU6Y3g9IjMwLjg3NTEzOCIgaW5rc2NhcGU6Y3k9IjI1LjAwODQzMSIgaW5rc2NhcGU6cGFnZW9wYWNpdHk9IjAiIGlua3NjYXBlOnBhZ2VzaGFkb3c9IjIiIGlua3NjYXBlOndpbmRvdy1oZWlnaHQ9IjEwMTciIGlua3NjYXBlOndpbmRvdy1tYXhpbWl6ZWQ9IjEiIGlua3NjYXBlOndpbmRvdy13aWR0aD0iMTkyMCIgaW5rc2NhcGU6d2luZG93LXg9Ii04IiBpbmtzY2FwZTp3aW5kb3cteT0iLTgiIGlua3NjYXBlOnpvb209IjE3LjMzNjY1IiBvYmplY3R0b2xlcmFuY2U9IjEwIiBwYWdlY29sb3I9IiNmZmZmZmYiIHNob3dncmlkPSJmYWxzZSI+JiN4YTsJPC9zb2RpcG9kaTpuYW1lZHZpZXc+JiN4YTs8ZyBpZD0iZzIzMDgiIHRyYW5zZm9ybT0idHJhbnNsYXRlKC0wLjAwMTkwNTU2KSI+JiN4YTsJPHRpdGxlIGlkPSJ0aXRsZTIyOTgiPlBhZ2UtMTwvdGl0bGU+JiN4YTsJPGcgaWQ9Imdyb3VwOTYzNy0xIj4mI3hhOwkJPHRpdGxlIGlkPSJ0aXRsZTIzMDAiPlN0b3JhZ2UgIzE8L3RpdGxlPiYjeGE7CQk8ZyBpZD0ic2hhcGU5NjM4LTIiPiYjeGE7CQkJPHRpdGxlIGlkPSJ0aXRsZTIzMDIiPlNoZWV0Ljk2Mzg8L3RpdGxlPiYjeGE7CQkJPHBhdGggaWQ9InBhdGgyMzA0IiBpbmtzY2FwZTpjb25uZWN0b3ItY3VydmF0dXJlPSIwIiBzdHlsZT0iZmlsbDojM0Y1NzY1OyIgZD0iTTAuMDcsMjYuNzZjMC41LTEuNTgsMS4wMS0zLjE1LDEuMjYtNC43MiAgICAgYzEuMjQtNC43MywyLjUtOS4xOCwzLjc0LTEzLjYzYzAuNzUtMi42MywxLjI2LTUuMjYsMS45OS04LjE0QzcuMzIsMCw3LjU3LDAsNy41NywwYzAuNSwwLDAuNzUsMCwxLjI0LDBjNC4yNiwwLDguNSwwLDEyLjUsMCAgICAgYzIuMjUsMCw0Ljc0LDAsNi45OSwwYzMuNDksMCw3LDAsMTAuNDksMGMwLjI1LDAsMC4yNSwwLDAuMjUsMGMwLjI1LDAsMC4yNSwwLjI3LDAuMjUsMC4yN2MwLjI1LDEuODQsMC43NCwzLjQxLDEuMjQsNC45OSAgICAgYzEuMjYsNC43MiwyLjUsOS4xNywzLjc0LDEzLjYzYzAuNzYsMi44OSwxLjI2LDUuMjYsMi4wMiw3Ljg3YzAuMjMsMC41My0wLjI1LDAuNzgtMC41MSwwLjc4Yy0xLjc0LDAtMy41LDAtNS4yNSwwICAgICBjLTQuNDksMC05LjI0LDAtMTMuNDksMGMtMS45OSwwLTMuNDgsMC01LjIzLDBjLTQuMjYsMC04LjUxLDAtMTIuNSwwYy0yLjk4LDAtNS45OSwwLTguNzQsMEMwLjMyLDI3LjU0LTAuMTgsMjcuMjksMC4wNywyNi43NnogICAgICBNNDYuMjksMjkuMzljMCwyLjYzLDAsNC45NywwLDcuNnYwLjI3Yy0wLjI1LDAuMjUtMC4yNSwwLjI1LTAuNTEsMC4yNWMtMSwwLTEuOTksMC0zLDBjLTMuNDksMC03LjI1LDAtMTAuOTksMCAgICAgYy00Ljc1LDAtOS4yNCwwLTEzLjk5LDBjLTMuOTksMC03Ljk4LDAtMTEuOTgsMGMtMS43NCwwLTMuNSwwLTUuMjUsMGMtMC4yNSwwLTAuNS0wLjI1LTAuNS0wLjUyYzAtMi42MywwLTQuOTcsMC03LjYgICAgIGMwLTAuNTIsMC4yNS0wLjUyLDAuNS0wLjUyYzEuMDEsMCwyLDAsMywwYzMuNzUsMCw3LjI1LDAsMTAuOTksMGM0Ljc1LDAsOS4yNSwwLDEzLjk5LDBjNCwwLDcuOTksMCwxMi4yMywwYzEuNSwwLDMuMjYsMCw1LDAgICAgIEM0Ni4wNCwyOC44Nyw0Ni4yOSwyOC44Nyw0Ni4yOSwyOS4zOXogTTYuMDcsMzMuMDVjMC0wLjc4LTAuNzUtMS41Ny0xLjUxLTEuNTdjLTAuNzMsMC0xLjQ5LDAuNzktMS40OSwxLjU3ICAgICBjMCwxLjA2LDAuNzYsMS41OCwxLjQ5LDEuNThDNS4zMiwzNC42Myw2LjA3LDM0LjExLDYuMDcsMzMuMDV6IE0zNy43OCwzMy4wNWMwLTAuMjUtMC4yMy0wLjc4LTAuNzQtMC43OCAgICAgYy0yNy43MywwLTI3LjczLDAtMjcuNzMsMGMtMC4yNSwwLTAuNzQsMC41My0wLjc0LDAuNzhjMCwwLjU0LDAuNDksMC43OSwwLjc0LDAuNzljMjcuNzMsMCwyNy43MywwLDI3LjczLDAgICAgIEMzNy41NSwzMy44NCwzNy43OCwzMy41OSwzNy43OCwzMy4wNXogTTQzLjI4LDMzLjA1YzAtMC43OC0wLjUtMS41Ny0xLjQ5LTEuNTdjLTAuNzUsMC0xLjUxLDAuNzktMS41MSwxLjU3ICAgICBjMCwxLjA2LDAuNzYsMS41OCwxLjUxLDEuNThDNDIuNzgsMzQuNjMsNDMuMjgsMzQuMTEsNDMuMjgsMzMuMDV6Ii8+JiN4YTsJCTwvZz4mI3hhOwk8L2c+JiN4YTs8L2c+JiN4YTs8L3N2Zz4=;" vertex="1" parent="1">
          <mxGeometry x="2535.5" y="306.99999999999636" width="46" height="38" as="geometry" />
        </mxCell>
        <mxCell id="fT7zzyfTvzehRH6RShBd-23" value="" style="shape=image;verticalLabelPosition=bottom;labelBackgroundColor=#ffffff;verticalAlign=top;aspect=fixed;imageAspect=0;image=data:image/svg+xml,PHN2ZyB4bWxuczpjYz0iaHR0cDovL2NyZWF0aXZlY29tbW9ucy5vcmcvbnMjIiB4bWxuczpkYz0iaHR0cDovL3B1cmwub3JnL2RjL2VsZW1lbnRzLzEuMS8iIHhtbG5zOmlua3NjYXBlPSJodHRwOi8vd3d3Lmlua3NjYXBlLm9yZy9uYW1lc3BhY2VzL2lua3NjYXBlIiB4bWxuczpyZGY9Imh0dHA6Ly93d3cudzMub3JnLzE5OTkvMDIvMjItcmRmLXN5bnRheC1ucyMiIHhtbG5zOnNvZGlwb2RpPSJodHRwOi8vc29kaXBvZGkuc291cmNlZm9yZ2UubmV0L0RURC9zb2RpcG9kaS0wLmR0ZCIgeG1sbnM6c3ZnPSJodHRwOi8vd3d3LnczLm9yZy8yMDAwL3N2ZyIgeG1sbnM9Imh0dHA6Ly93d3cudzMub3JnLzIwMDAvc3ZnIiB4bWxuczp4bGluaz0iaHR0cDovL3d3dy53My5vcmcvMTk5OS94bGluayIgdmVyc2lvbj0iMS4xIiBpZD0ic3ZnMjMxMCIgaW5rc2NhcGU6dmVyc2lvbj0iMC45Mi4zICgyNDA1NTQ2LCAyMDE4LTAzLTExKSIgc29kaXBvZGk6ZG9jbmFtZT0ic3RvcmFnZV8xLnN2ZyIgeD0iMHB4IiB5PSIwcHgiIHZpZXdCb3g9IjAgMCA0Ni4zNSAzNy41MSIgc3R5bGU9ImVuYWJsZS1iYWNrZ3JvdW5kOm5ldyAwIDAgNDYuMzUgMzcuNTE7IiB4bWw6c3BhY2U9InByZXNlcnZlIj4mI3hhOzxzb2RpcG9kaTpuYW1lZHZpZXcgYm9yZGVyY29sb3I9IiM2NjY2NjYiIGJvcmRlcm9wYWNpdHk9IjEiIGZpdC1tYXJnaW4tYm90dG9tPSIwIiBmaXQtbWFyZ2luLWxlZnQ9IjAiIGZpdC1tYXJnaW4tcmlnaHQ9IjAiIGZpdC1tYXJnaW4tdG9wPSIwIiBncmlkdG9sZXJhbmNlPSIxMCIgZ3VpZGV0b2xlcmFuY2U9IjEwIiBpZD0ibmFtZWR2aWV3MjMxMiIgaW5rc2NhcGU6Y3VycmVudC1sYXllcj0ic3ZnMjMxMCIgaW5rc2NhcGU6Y3g9IjMwLjg3NTEzOCIgaW5rc2NhcGU6Y3k9IjI1LjAwODQzMSIgaW5rc2NhcGU6cGFnZW9wYWNpdHk9IjAiIGlua3NjYXBlOnBhZ2VzaGFkb3c9IjIiIGlua3NjYXBlOndpbmRvdy1oZWlnaHQ9IjEwMTciIGlua3NjYXBlOndpbmRvdy1tYXhpbWl6ZWQ9IjEiIGlua3NjYXBlOndpbmRvdy13aWR0aD0iMTkyMCIgaW5rc2NhcGU6d2luZG93LXg9Ii04IiBpbmtzY2FwZTp3aW5kb3cteT0iLTgiIGlua3NjYXBlOnpvb209IjE3LjMzNjY1IiBvYmplY3R0b2xlcmFuY2U9IjEwIiBwYWdlY29sb3I9IiNmZmZmZmYiIHNob3dncmlkPSJmYWxzZSI+JiN4YTsJPC9zb2RpcG9kaTpuYW1lZHZpZXc+JiN4YTs8ZyBpZD0iZzIzMDgiIHRyYW5zZm9ybT0idHJhbnNsYXRlKC0wLjAwMTkwNTU2KSI+JiN4YTsJPHRpdGxlIGlkPSJ0aXRsZTIyOTgiPlBhZ2UtMTwvdGl0bGU+JiN4YTsJPGcgaWQ9Imdyb3VwOTYzNy0xIj4mI3hhOwkJPHRpdGxlIGlkPSJ0aXRsZTIzMDAiPlN0b3JhZ2UgIzE8L3RpdGxlPiYjeGE7CQk8ZyBpZD0ic2hhcGU5NjM4LTIiPiYjeGE7CQkJPHRpdGxlIGlkPSJ0aXRsZTIzMDIiPlNoZWV0Ljk2Mzg8L3RpdGxlPiYjeGE7CQkJPHBhdGggaWQ9InBhdGgyMzA0IiBpbmtzY2FwZTpjb25uZWN0b3ItY3VydmF0dXJlPSIwIiBzdHlsZT0iZmlsbDojM0Y1NzY1OyIgZD0iTTAuMDcsMjYuNzZjMC41LTEuNTgsMS4wMS0zLjE1LDEuMjYtNC43MiAgICAgYzEuMjQtNC43MywyLjUtOS4xOCwzLjc0LTEzLjYzYzAuNzUtMi42MywxLjI2LTUuMjYsMS45OS04LjE0QzcuMzIsMCw3LjU3LDAsNy41NywwYzAuNSwwLDAuNzUsMCwxLjI0LDBjNC4yNiwwLDguNSwwLDEyLjUsMCAgICAgYzIuMjUsMCw0Ljc0LDAsNi45OSwwYzMuNDksMCw3LDAsMTAuNDksMGMwLjI1LDAsMC4yNSwwLDAuMjUsMGMwLjI1LDAsMC4yNSwwLjI3LDAuMjUsMC4yN2MwLjI1LDEuODQsMC43NCwzLjQxLDEuMjQsNC45OSAgICAgYzEuMjYsNC43MiwyLjUsOS4xNywzLjc0LDEzLjYzYzAuNzYsMi44OSwxLjI2LDUuMjYsMi4wMiw3Ljg3YzAuMjMsMC41My0wLjI1LDAuNzgtMC41MSwwLjc4Yy0xLjc0LDAtMy41LDAtNS4yNSwwICAgICBjLTQuNDksMC05LjI0LDAtMTMuNDksMGMtMS45OSwwLTMuNDgsMC01LjIzLDBjLTQuMjYsMC04LjUxLDAtMTIuNSwwYy0yLjk4LDAtNS45OSwwLTguNzQsMEMwLjMyLDI3LjU0LTAuMTgsMjcuMjksMC4wNywyNi43NnogICAgICBNNDYuMjksMjkuMzljMCwyLjYzLDAsNC45NywwLDcuNnYwLjI3Yy0wLjI1LDAuMjUtMC4yNSwwLjI1LTAuNTEsMC4yNWMtMSwwLTEuOTksMC0zLDBjLTMuNDksMC03LjI1LDAtMTAuOTksMCAgICAgYy00Ljc1LDAtOS4yNCwwLTEzLjk5LDBjLTMuOTksMC03Ljk4LDAtMTEuOTgsMGMtMS43NCwwLTMuNSwwLTUuMjUsMGMtMC4yNSwwLTAuNS0wLjI1LTAuNS0wLjUyYzAtMi42MywwLTQuOTcsMC03LjYgICAgIGMwLTAuNTIsMC4yNS0wLjUyLDAuNS0wLjUyYzEuMDEsMCwyLDAsMywwYzMuNzUsMCw3LjI1LDAsMTAuOTksMGM0Ljc1LDAsOS4yNSwwLDEzLjk5LDBjNCwwLDcuOTksMCwxMi4yMywwYzEuNSwwLDMuMjYsMCw1LDAgICAgIEM0Ni4wNCwyOC44Nyw0Ni4yOSwyOC44Nyw0Ni4yOSwyOS4zOXogTTYuMDcsMzMuMDVjMC0wLjc4LTAuNzUtMS41Ny0xLjUxLTEuNTdjLTAuNzMsMC0xLjQ5LDAuNzktMS40OSwxLjU3ICAgICBjMCwxLjA2LDAuNzYsMS41OCwxLjQ5LDEuNThDNS4zMiwzNC42Myw2LjA3LDM0LjExLDYuMDcsMzMuMDV6IE0zNy43OCwzMy4wNWMwLTAuMjUtMC4yMy0wLjc4LTAuNzQtMC43OCAgICAgYy0yNy43MywwLTI3LjczLDAtMjcuNzMsMGMtMC4yNSwwLTAuNzQsMC41My0wLjc0LDAuNzhjMCwwLjU0LDAuNDksMC43OSwwLjc0LDAuNzljMjcuNzMsMCwyNy43MywwLDI3LjczLDAgICAgIEMzNy41NSwzMy44NCwzNy43OCwzMy41OSwzNy43OCwzMy4wNXogTTQzLjI4LDMzLjA1YzAtMC43OC0wLjUtMS41Ny0xLjQ5LTEuNTdjLTAuNzUsMC0xLjUxLDAuNzktMS41MSwxLjU3ICAgICBjMCwxLjA2LDAuNzYsMS41OCwxLjUxLDEuNThDNDIuNzgsMzQuNjMsNDMuMjgsMzQuMTEsNDMuMjgsMzMuMDV6Ii8+JiN4YTsJCTwvZz4mI3hhOwk8L2c+JiN4YTs8L2c+JiN4YTs8L3N2Zz4=;" vertex="1" parent="1">
          <mxGeometry x="2626" y="306.99999999999636" width="46" height="38" as="geometry" />
        </mxCell>
        <mxCell id="fT7zzyfTvzehRH6RShBd-24" value="" style="shape=image;verticalLabelPosition=bottom;labelBackgroundColor=#ffffff;verticalAlign=top;aspect=fixed;imageAspect=0;image=data:image/svg+xml,PHN2ZyB4bWxuczpjYz0iaHR0cDovL2NyZWF0aXZlY29tbW9ucy5vcmcvbnMjIiB4bWxuczpkYz0iaHR0cDovL3B1cmwub3JnL2RjL2VsZW1lbnRzLzEuMS8iIHhtbG5zOmlua3NjYXBlPSJodHRwOi8vd3d3Lmlua3NjYXBlLm9yZy9uYW1lc3BhY2VzL2lua3NjYXBlIiB4bWxuczpyZGY9Imh0dHA6Ly93d3cudzMub3JnLzE5OTkvMDIvMjItcmRmLXN5bnRheC1ucyMiIHhtbG5zOnNvZGlwb2RpPSJodHRwOi8vc29kaXBvZGkuc291cmNlZm9yZ2UubmV0L0RURC9zb2RpcG9kaS0wLmR0ZCIgeG1sbnM6c3ZnPSJodHRwOi8vd3d3LnczLm9yZy8yMDAwL3N2ZyIgeG1sbnM9Imh0dHA6Ly93d3cudzMub3JnLzIwMDAvc3ZnIiB4bWxuczp4bGluaz0iaHR0cDovL3d3dy53My5vcmcvMTk5OS94bGluayIgdmVyc2lvbj0iMS4xIiBpZD0ic3ZnMjMxMCIgaW5rc2NhcGU6dmVyc2lvbj0iMC45Mi4zICgyNDA1NTQ2LCAyMDE4LTAzLTExKSIgc29kaXBvZGk6ZG9jbmFtZT0ic3RvcmFnZV8xLnN2ZyIgeD0iMHB4IiB5PSIwcHgiIHZpZXdCb3g9IjAgMCA0Ni4zNSAzNy41MSIgc3R5bGU9ImVuYWJsZS1iYWNrZ3JvdW5kOm5ldyAwIDAgNDYuMzUgMzcuNTE7IiB4bWw6c3BhY2U9InByZXNlcnZlIj4mI3hhOzxzb2RpcG9kaTpuYW1lZHZpZXcgYm9yZGVyY29sb3I9IiM2NjY2NjYiIGJvcmRlcm9wYWNpdHk9IjEiIGZpdC1tYXJnaW4tYm90dG9tPSIwIiBmaXQtbWFyZ2luLWxlZnQ9IjAiIGZpdC1tYXJnaW4tcmlnaHQ9IjAiIGZpdC1tYXJnaW4tdG9wPSIwIiBncmlkdG9sZXJhbmNlPSIxMCIgZ3VpZGV0b2xlcmFuY2U9IjEwIiBpZD0ibmFtZWR2aWV3MjMxMiIgaW5rc2NhcGU6Y3VycmVudC1sYXllcj0ic3ZnMjMxMCIgaW5rc2NhcGU6Y3g9IjMwLjg3NTEzOCIgaW5rc2NhcGU6Y3k9IjI1LjAwODQzMSIgaW5rc2NhcGU6cGFnZW9wYWNpdHk9IjAiIGlua3NjYXBlOnBhZ2VzaGFkb3c9IjIiIGlua3NjYXBlOndpbmRvdy1oZWlnaHQ9IjEwMTciIGlua3NjYXBlOndpbmRvdy1tYXhpbWl6ZWQ9IjEiIGlua3NjYXBlOndpbmRvdy13aWR0aD0iMTkyMCIgaW5rc2NhcGU6d2luZG93LXg9Ii04IiBpbmtzY2FwZTp3aW5kb3cteT0iLTgiIGlua3NjYXBlOnpvb209IjE3LjMzNjY1IiBvYmplY3R0b2xlcmFuY2U9IjEwIiBwYWdlY29sb3I9IiNmZmZmZmYiIHNob3dncmlkPSJmYWxzZSI+JiN4YTsJPC9zb2RpcG9kaTpuYW1lZHZpZXc+JiN4YTs8ZyBpZD0iZzIzMDgiIHRyYW5zZm9ybT0idHJhbnNsYXRlKC0wLjAwMTkwNTU2KSI+JiN4YTsJPHRpdGxlIGlkPSJ0aXRsZTIyOTgiPlBhZ2UtMTwvdGl0bGU+JiN4YTsJPGcgaWQ9Imdyb3VwOTYzNy0xIj4mI3hhOwkJPHRpdGxlIGlkPSJ0aXRsZTIzMDAiPlN0b3JhZ2UgIzE8L3RpdGxlPiYjeGE7CQk8ZyBpZD0ic2hhcGU5NjM4LTIiPiYjeGE7CQkJPHRpdGxlIGlkPSJ0aXRsZTIzMDIiPlNoZWV0Ljk2Mzg8L3RpdGxlPiYjeGE7CQkJPHBhdGggaWQ9InBhdGgyMzA0IiBpbmtzY2FwZTpjb25uZWN0b3ItY3VydmF0dXJlPSIwIiBzdHlsZT0iZmlsbDojM0Y1NzY1OyIgZD0iTTAuMDcsMjYuNzZjMC41LTEuNTgsMS4wMS0zLjE1LDEuMjYtNC43MiAgICAgYzEuMjQtNC43MywyLjUtOS4xOCwzLjc0LTEzLjYzYzAuNzUtMi42MywxLjI2LTUuMjYsMS45OS04LjE0QzcuMzIsMCw3LjU3LDAsNy41NywwYzAuNSwwLDAuNzUsMCwxLjI0LDBjNC4yNiwwLDguNSwwLDEyLjUsMCAgICAgYzIuMjUsMCw0Ljc0LDAsNi45OSwwYzMuNDksMCw3LDAsMTAuNDksMGMwLjI1LDAsMC4yNSwwLDAuMjUsMGMwLjI1LDAsMC4yNSwwLjI3LDAuMjUsMC4yN2MwLjI1LDEuODQsMC43NCwzLjQxLDEuMjQsNC45OSAgICAgYzEuMjYsNC43MiwyLjUsOS4xNywzLjc0LDEzLjYzYzAuNzYsMi44OSwxLjI2LDUuMjYsMi4wMiw3Ljg3YzAuMjMsMC41My0wLjI1LDAuNzgtMC41MSwwLjc4Yy0xLjc0LDAtMy41LDAtNS4yNSwwICAgICBjLTQuNDksMC05LjI0LDAtMTMuNDksMGMtMS45OSwwLTMuNDgsMC01LjIzLDBjLTQuMjYsMC04LjUxLDAtMTIuNSwwYy0yLjk4LDAtNS45OSwwLTguNzQsMEMwLjMyLDI3LjU0LTAuMTgsMjcuMjksMC4wNywyNi43NnogICAgICBNNDYuMjksMjkuMzljMCwyLjYzLDAsNC45NywwLDcuNnYwLjI3Yy0wLjI1LDAuMjUtMC4yNSwwLjI1LTAuNTEsMC4yNWMtMSwwLTEuOTksMC0zLDBjLTMuNDksMC03LjI1LDAtMTAuOTksMCAgICAgYy00Ljc1LDAtOS4yNCwwLTEzLjk5LDBjLTMuOTksMC03Ljk4LDAtMTEuOTgsMGMtMS43NCwwLTMuNSwwLTUuMjUsMGMtMC4yNSwwLTAuNS0wLjI1LTAuNS0wLjUyYzAtMi42MywwLTQuOTcsMC03LjYgICAgIGMwLTAuNTIsMC4yNS0wLjUyLDAuNS0wLjUyYzEuMDEsMCwyLDAsMywwYzMuNzUsMCw3LjI1LDAsMTAuOTksMGM0Ljc1LDAsOS4yNSwwLDEzLjk5LDBjNCwwLDcuOTksMCwxMi4yMywwYzEuNSwwLDMuMjYsMCw1LDAgICAgIEM0Ni4wNCwyOC44Nyw0Ni4yOSwyOC44Nyw0Ni4yOSwyOS4zOXogTTYuMDcsMzMuMDVjMC0wLjc4LTAuNzUtMS41Ny0xLjUxLTEuNTdjLTAuNzMsMC0xLjQ5LDAuNzktMS40OSwxLjU3ICAgICBjMCwxLjA2LDAuNzYsMS41OCwxLjQ5LDEuNThDNS4zMiwzNC42Myw2LjA3LDM0LjExLDYuMDcsMzMuMDV6IE0zNy43OCwzMy4wNWMwLTAuMjUtMC4yMy0wLjc4LTAuNzQtMC43OCAgICAgYy0yNy43MywwLTI3LjczLDAtMjcuNzMsMGMtMC4yNSwwLTAuNzQsMC41My0wLjc0LDAuNzhjMCwwLjU0LDAuNDksMC43OSwwLjc0LDAuNzljMjcuNzMsMCwyNy43MywwLDI3LjczLDAgICAgIEMzNy41NSwzMy44NCwzNy43OCwzMy41OSwzNy43OCwzMy4wNXogTTQzLjI4LDMzLjA1YzAtMC43OC0wLjUtMS41Ny0xLjQ5LTEuNTdjLTAuNzUsMC0xLjUxLDAuNzktMS41MSwxLjU3ICAgICBjMCwxLjA2LDAuNzYsMS41OCwxLjUxLDEuNThDNDIuNzgsMzQuNjMsNDMuMjgsMzQuMTEsNDMuMjgsMzMuMDV6Ii8+JiN4YTsJCTwvZz4mI3hhOwk8L2c+JiN4YTs8L2c+JiN4YTs8L3N2Zz4=;" vertex="1" parent="1">
          <mxGeometry x="2717" y="306.99999999999636" width="46" height="38" as="geometry" />
        </mxCell>
        <mxCell id="fT7zzyfTvzehRH6RShBd-25" value="" style="shape=image;verticalLabelPosition=bottom;labelBackgroundColor=#ffffff;verticalAlign=top;aspect=fixed;imageAspect=0;image=data:image/svg+xml,PHN2ZyB4bWxuczpjYz0iaHR0cDovL2NyZWF0aXZlY29tbW9ucy5vcmcvbnMjIiB4bWxuczpkYz0iaHR0cDovL3B1cmwub3JnL2RjL2VsZW1lbnRzLzEuMS8iIHhtbG5zOmlua3NjYXBlPSJodHRwOi8vd3d3Lmlua3NjYXBlLm9yZy9uYW1lc3BhY2VzL2lua3NjYXBlIiB4bWxuczpyZGY9Imh0dHA6Ly93d3cudzMub3JnLzE5OTkvMDIvMjItcmRmLXN5bnRheC1ucyMiIHhtbG5zOnNvZGlwb2RpPSJodHRwOi8vc29kaXBvZGkuc291cmNlZm9yZ2UubmV0L0RURC9zb2RpcG9kaS0wLmR0ZCIgeG1sbnM6c3ZnPSJodHRwOi8vd3d3LnczLm9yZy8yMDAwL3N2ZyIgeG1sbnM9Imh0dHA6Ly93d3cudzMub3JnLzIwMDAvc3ZnIiB4bWxuczp4bGluaz0iaHR0cDovL3d3dy53My5vcmcvMTk5OS94bGluayIgdmVyc2lvbj0iMS4xIiBpZD0ic3ZnMjMxMCIgaW5rc2NhcGU6dmVyc2lvbj0iMC45Mi4zICgyNDA1NTQ2LCAyMDE4LTAzLTExKSIgc29kaXBvZGk6ZG9jbmFtZT0ic3RvcmFnZV8xLnN2ZyIgeD0iMHB4IiB5PSIwcHgiIHZpZXdCb3g9IjAgMCA0Ni4zNSAzNy41MSIgc3R5bGU9ImVuYWJsZS1iYWNrZ3JvdW5kOm5ldyAwIDAgNDYuMzUgMzcuNTE7IiB4bWw6c3BhY2U9InByZXNlcnZlIj4mI3hhOzxzb2RpcG9kaTpuYW1lZHZpZXcgYm9yZGVyY29sb3I9IiM2NjY2NjYiIGJvcmRlcm9wYWNpdHk9IjEiIGZpdC1tYXJnaW4tYm90dG9tPSIwIiBmaXQtbWFyZ2luLWxlZnQ9IjAiIGZpdC1tYXJnaW4tcmlnaHQ9IjAiIGZpdC1tYXJnaW4tdG9wPSIwIiBncmlkdG9sZXJhbmNlPSIxMCIgZ3VpZGV0b2xlcmFuY2U9IjEwIiBpZD0ibmFtZWR2aWV3MjMxMiIgaW5rc2NhcGU6Y3VycmVudC1sYXllcj0ic3ZnMjMxMCIgaW5rc2NhcGU6Y3g9IjMwLjg3NTEzOCIgaW5rc2NhcGU6Y3k9IjI1LjAwODQzMSIgaW5rc2NhcGU6cGFnZW9wYWNpdHk9IjAiIGlua3NjYXBlOnBhZ2VzaGFkb3c9IjIiIGlua3NjYXBlOndpbmRvdy1oZWlnaHQ9IjEwMTciIGlua3NjYXBlOndpbmRvdy1tYXhpbWl6ZWQ9IjEiIGlua3NjYXBlOndpbmRvdy13aWR0aD0iMTkyMCIgaW5rc2NhcGU6d2luZG93LXg9Ii04IiBpbmtzY2FwZTp3aW5kb3cteT0iLTgiIGlua3NjYXBlOnpvb209IjE3LjMzNjY1IiBvYmplY3R0b2xlcmFuY2U9IjEwIiBwYWdlY29sb3I9IiNmZmZmZmYiIHNob3dncmlkPSJmYWxzZSI+JiN4YTsJPC9zb2RpcG9kaTpuYW1lZHZpZXc+JiN4YTs8ZyBpZD0iZzIzMDgiIHRyYW5zZm9ybT0idHJhbnNsYXRlKC0wLjAwMTkwNTU2KSI+JiN4YTsJPHRpdGxlIGlkPSJ0aXRsZTIyOTgiPlBhZ2UtMTwvdGl0bGU+JiN4YTsJPGcgaWQ9Imdyb3VwOTYzNy0xIj4mI3hhOwkJPHRpdGxlIGlkPSJ0aXRsZTIzMDAiPlN0b3JhZ2UgIzE8L3RpdGxlPiYjeGE7CQk8ZyBpZD0ic2hhcGU5NjM4LTIiPiYjeGE7CQkJPHRpdGxlIGlkPSJ0aXRsZTIzMDIiPlNoZWV0Ljk2Mzg8L3RpdGxlPiYjeGE7CQkJPHBhdGggaWQ9InBhdGgyMzA0IiBpbmtzY2FwZTpjb25uZWN0b3ItY3VydmF0dXJlPSIwIiBzdHlsZT0iZmlsbDojM0Y1NzY1OyIgZD0iTTAuMDcsMjYuNzZjMC41LTEuNTgsMS4wMS0zLjE1LDEuMjYtNC43MiAgICAgYzEuMjQtNC43MywyLjUtOS4xOCwzLjc0LTEzLjYzYzAuNzUtMi42MywxLjI2LTUuMjYsMS45OS04LjE0QzcuMzIsMCw3LjU3LDAsNy41NywwYzAuNSwwLDAuNzUsMCwxLjI0LDBjNC4yNiwwLDguNSwwLDEyLjUsMCAgICAgYzIuMjUsMCw0Ljc0LDAsNi45OSwwYzMuNDksMCw3LDAsMTAuNDksMGMwLjI1LDAsMC4yNSwwLDAuMjUsMGMwLjI1LDAsMC4yNSwwLjI3LDAuMjUsMC4yN2MwLjI1LDEuODQsMC43NCwzLjQxLDEuMjQsNC45OSAgICAgYzEuMjYsNC43MiwyLjUsOS4xNywzLjc0LDEzLjYzYzAuNzYsMi44OSwxLjI2LDUuMjYsMi4wMiw3Ljg3YzAuMjMsMC41My0wLjI1LDAuNzgtMC41MSwwLjc4Yy0xLjc0LDAtMy41LDAtNS4yNSwwICAgICBjLTQuNDksMC05LjI0LDAtMTMuNDksMGMtMS45OSwwLTMuNDgsMC01LjIzLDBjLTQuMjYsMC04LjUxLDAtMTIuNSwwYy0yLjk4LDAtNS45OSwwLTguNzQsMEMwLjMyLDI3LjU0LTAuMTgsMjcuMjksMC4wNywyNi43NnogICAgICBNNDYuMjksMjkuMzljMCwyLjYzLDAsNC45NywwLDcuNnYwLjI3Yy0wLjI1LDAuMjUtMC4yNSwwLjI1LTAuNTEsMC4yNWMtMSwwLTEuOTksMC0zLDBjLTMuNDksMC03LjI1LDAtMTAuOTksMCAgICAgYy00Ljc1LDAtOS4yNCwwLTEzLjk5LDBjLTMuOTksMC03Ljk4LDAtMTEuOTgsMGMtMS43NCwwLTMuNSwwLTUuMjUsMGMtMC4yNSwwLTAuNS0wLjI1LTAuNS0wLjUyYzAtMi42MywwLTQuOTcsMC03LjYgICAgIGMwLTAuNTIsMC4yNS0wLjUyLDAuNS0wLjUyYzEuMDEsMCwyLDAsMywwYzMuNzUsMCw3LjI1LDAsMTAuOTksMGM0Ljc1LDAsOS4yNSwwLDEzLjk5LDBjNCwwLDcuOTksMCwxMi4yMywwYzEuNSwwLDMuMjYsMCw1LDAgICAgIEM0Ni4wNCwyOC44Nyw0Ni4yOSwyOC44Nyw0Ni4yOSwyOS4zOXogTTYuMDcsMzMuMDVjMC0wLjc4LTAuNzUtMS41Ny0xLjUxLTEuNTdjLTAuNzMsMC0xLjQ5LDAuNzktMS40OSwxLjU3ICAgICBjMCwxLjA2LDAuNzYsMS41OCwxLjQ5LDEuNThDNS4zMiwzNC42Myw2LjA3LDM0LjExLDYuMDcsMzMuMDV6IE0zNy43OCwzMy4wNWMwLTAuMjUtMC4yMy0wLjc4LTAuNzQtMC43OCAgICAgYy0yNy43MywwLTI3LjczLDAtMjcuNzMsMGMtMC4yNSwwLTAuNzQsMC41My0wLjc0LDAuNzhjMCwwLjU0LDAuNDksMC43OSwwLjc0LDAuNzljMjcuNzMsMCwyNy43MywwLDI3LjczLDAgICAgIEMzNy41NSwzMy44NCwzNy43OCwzMy41OSwzNy43OCwzMy4wNXogTTQzLjI4LDMzLjA1YzAtMC43OC0wLjUtMS41Ny0xLjQ5LTEuNTdjLTAuNzUsMC0xLjUxLDAuNzktMS41MSwxLjU3ICAgICBjMCwxLjA2LDAuNzYsMS41OCwxLjUxLDEuNThDNDIuNzgsMzQuNjMsNDMuMjgsMzQuMTEsNDMuMjgsMzMuMDV6Ii8+JiN4YTsJCTwvZz4mI3hhOwk8L2c+JiN4YTs8L2c+JiN4YTs8L3N2Zz4=;" vertex="1" parent="1">
          <mxGeometry x="2815.5" y="303.49999999999636" width="46" height="38" as="geometry" />
        </mxCell>
        <mxCell id="fT7zzyfTvzehRH6RShBd-26" value="" style="shape=image;verticalLabelPosition=bottom;labelBackgroundColor=#ffffff;verticalAlign=top;aspect=fixed;imageAspect=0;image=data:image/svg+xml,PHN2ZyB4bWxuczpjYz0iaHR0cDovL2NyZWF0aXZlY29tbW9ucy5vcmcvbnMjIiB4bWxuczpkYz0iaHR0cDovL3B1cmwub3JnL2RjL2VsZW1lbnRzLzEuMS8iIHhtbG5zOmlua3NjYXBlPSJodHRwOi8vd3d3Lmlua3NjYXBlLm9yZy9uYW1lc3BhY2VzL2lua3NjYXBlIiB4bWxuczpyZGY9Imh0dHA6Ly93d3cudzMub3JnLzE5OTkvMDIvMjItcmRmLXN5bnRheC1ucyMiIHhtbG5zOnNvZGlwb2RpPSJodHRwOi8vc29kaXBvZGkuc291cmNlZm9yZ2UubmV0L0RURC9zb2RpcG9kaS0wLmR0ZCIgeG1sbnM6c3ZnPSJodHRwOi8vd3d3LnczLm9yZy8yMDAwL3N2ZyIgeG1sbnM9Imh0dHA6Ly93d3cudzMub3JnLzIwMDAvc3ZnIiB4bWxuczp4bGluaz0iaHR0cDovL3d3dy53My5vcmcvMTk5OS94bGluayIgdmVyc2lvbj0iMS4xIiBpZD0ic3ZnMjMxMCIgaW5rc2NhcGU6dmVyc2lvbj0iMC45Mi4zICgyNDA1NTQ2LCAyMDE4LTAzLTExKSIgc29kaXBvZGk6ZG9jbmFtZT0ic3RvcmFnZV8xLnN2ZyIgeD0iMHB4IiB5PSIwcHgiIHZpZXdCb3g9IjAgMCA0Ni4zNSAzNy41MSIgc3R5bGU9ImVuYWJsZS1iYWNrZ3JvdW5kOm5ldyAwIDAgNDYuMzUgMzcuNTE7IiB4bWw6c3BhY2U9InByZXNlcnZlIj4mI3hhOzxzb2RpcG9kaTpuYW1lZHZpZXcgYm9yZGVyY29sb3I9IiM2NjY2NjYiIGJvcmRlcm9wYWNpdHk9IjEiIGZpdC1tYXJnaW4tYm90dG9tPSIwIiBmaXQtbWFyZ2luLWxlZnQ9IjAiIGZpdC1tYXJnaW4tcmlnaHQ9IjAiIGZpdC1tYXJnaW4tdG9wPSIwIiBncmlkdG9sZXJhbmNlPSIxMCIgZ3VpZGV0b2xlcmFuY2U9IjEwIiBpZD0ibmFtZWR2aWV3MjMxMiIgaW5rc2NhcGU6Y3VycmVudC1sYXllcj0ic3ZnMjMxMCIgaW5rc2NhcGU6Y3g9IjMwLjg3NTEzOCIgaW5rc2NhcGU6Y3k9IjI1LjAwODQzMSIgaW5rc2NhcGU6cGFnZW9wYWNpdHk9IjAiIGlua3NjYXBlOnBhZ2VzaGFkb3c9IjIiIGlua3NjYXBlOndpbmRvdy1oZWlnaHQ9IjEwMTciIGlua3NjYXBlOndpbmRvdy1tYXhpbWl6ZWQ9IjEiIGlua3NjYXBlOndpbmRvdy13aWR0aD0iMTkyMCIgaW5rc2NhcGU6d2luZG93LXg9Ii04IiBpbmtzY2FwZTp3aW5kb3cteT0iLTgiIGlua3NjYXBlOnpvb209IjE3LjMzNjY1IiBvYmplY3R0b2xlcmFuY2U9IjEwIiBwYWdlY29sb3I9IiNmZmZmZmYiIHNob3dncmlkPSJmYWxzZSI+JiN4YTsJPC9zb2RpcG9kaTpuYW1lZHZpZXc+JiN4YTs8ZyBpZD0iZzIzMDgiIHRyYW5zZm9ybT0idHJhbnNsYXRlKC0wLjAwMTkwNTU2KSI+JiN4YTsJPHRpdGxlIGlkPSJ0aXRsZTIyOTgiPlBhZ2UtMTwvdGl0bGU+JiN4YTsJPGcgaWQ9Imdyb3VwOTYzNy0xIj4mI3hhOwkJPHRpdGxlIGlkPSJ0aXRsZTIzMDAiPlN0b3JhZ2UgIzE8L3RpdGxlPiYjeGE7CQk8ZyBpZD0ic2hhcGU5NjM4LTIiPiYjeGE7CQkJPHRpdGxlIGlkPSJ0aXRsZTIzMDIiPlNoZWV0Ljk2Mzg8L3RpdGxlPiYjeGE7CQkJPHBhdGggaWQ9InBhdGgyMzA0IiBpbmtzY2FwZTpjb25uZWN0b3ItY3VydmF0dXJlPSIwIiBzdHlsZT0iZmlsbDojM0Y1NzY1OyIgZD0iTTAuMDcsMjYuNzZjMC41LTEuNTgsMS4wMS0zLjE1LDEuMjYtNC43MiAgICAgYzEuMjQtNC43MywyLjUtOS4xOCwzLjc0LTEzLjYzYzAuNzUtMi42MywxLjI2LTUuMjYsMS45OS04LjE0QzcuMzIsMCw3LjU3LDAsNy41NywwYzAuNSwwLDAuNzUsMCwxLjI0LDBjNC4yNiwwLDguNSwwLDEyLjUsMCAgICAgYzIuMjUsMCw0Ljc0LDAsNi45OSwwYzMuNDksMCw3LDAsMTAuNDksMGMwLjI1LDAsMC4yNSwwLDAuMjUsMGMwLjI1LDAsMC4yNSwwLjI3LDAuMjUsMC4yN2MwLjI1LDEuODQsMC43NCwzLjQxLDEuMjQsNC45OSAgICAgYzEuMjYsNC43MiwyLjUsOS4xNywzLjc0LDEzLjYzYzAuNzYsMi44OSwxLjI2LDUuMjYsMi4wMiw3Ljg3YzAuMjMsMC41My0wLjI1LDAuNzgtMC41MSwwLjc4Yy0xLjc0LDAtMy41LDAtNS4yNSwwICAgICBjLTQuNDksMC05LjI0LDAtMTMuNDksMGMtMS45OSwwLTMuNDgsMC01LjIzLDBjLTQuMjYsMC04LjUxLDAtMTIuNSwwYy0yLjk4LDAtNS45OSwwLTguNzQsMEMwLjMyLDI3LjU0LTAuMTgsMjcuMjksMC4wNywyNi43NnogICAgICBNNDYuMjksMjkuMzljMCwyLjYzLDAsNC45NywwLDcuNnYwLjI3Yy0wLjI1LDAuMjUtMC4yNSwwLjI1LTAuNTEsMC4yNWMtMSwwLTEuOTksMC0zLDBjLTMuNDksMC03LjI1LDAtMTAuOTksMCAgICAgYy00Ljc1LDAtOS4yNCwwLTEzLjk5LDBjLTMuOTksMC03Ljk4LDAtMTEuOTgsMGMtMS43NCwwLTMuNSwwLTUuMjUsMGMtMC4yNSwwLTAuNS0wLjI1LTAuNS0wLjUyYzAtMi42MywwLTQuOTcsMC03LjYgICAgIGMwLTAuNTIsMC4yNS0wLjUyLDAuNS0wLjUyYzEuMDEsMCwyLDAsMywwYzMuNzUsMCw3LjI1LDAsMTAuOTksMGM0Ljc1LDAsOS4yNSwwLDEzLjk5LDBjNCwwLDcuOTksMCwxMi4yMywwYzEuNSwwLDMuMjYsMCw1LDAgICAgIEM0Ni4wNCwyOC44Nyw0Ni4yOSwyOC44Nyw0Ni4yOSwyOS4zOXogTTYuMDcsMzMuMDVjMC0wLjc4LTAuNzUtMS41Ny0xLjUxLTEuNTdjLTAuNzMsMC0xLjQ5LDAuNzktMS40OSwxLjU3ICAgICBjMCwxLjA2LDAuNzYsMS41OCwxLjQ5LDEuNThDNS4zMiwzNC42Myw2LjA3LDM0LjExLDYuMDcsMzMuMDV6IE0zNy43OCwzMy4wNWMwLTAuMjUtMC4yMy0wLjc4LTAuNzQtMC43OCAgICAgYy0yNy43MywwLTI3LjczLDAtMjcuNzMsMGMtMC4yNSwwLTAuNzQsMC41My0wLjc0LDAuNzhjMCwwLjU0LDAuNDksMC43OSwwLjc0LDAuNzljMjcuNzMsMCwyNy43MywwLDI3LjczLDAgICAgIEMzNy41NSwzMy44NCwzNy43OCwzMy41OSwzNy43OCwzMy4wNXogTTQzLjI4LDMzLjA1YzAtMC43OC0wLjUtMS41Ny0xLjQ5LTEuNTdjLTAuNzUsMC0xLjUxLDAuNzktMS41MSwxLjU3ICAgICBjMCwxLjA2LDAuNzYsMS41OCwxLjUxLDEuNThDNDIuNzgsMzQuNjMsNDMuMjgsMzQuMTEsNDMuMjgsMzMuMDV6Ii8+JiN4YTsJCTwvZz4mI3hhOwk8L2c+JiN4YTs8L2c+JiN4YTs8L3N2Zz4=;" vertex="1" parent="1">
          <mxGeometry x="2905.5" y="303.49999999999636" width="46" height="38" as="geometry" />
        </mxCell>
        <mxCell id="fT7zzyfTvzehRH6RShBd-41" value="&lt;font color=&quot;#ffffff&quot;&gt;介质服务器&lt;/font&gt;" style="text;html=1;strokeColor=none;fillColor=none;align=center;verticalAlign=middle;whiteSpace=wrap;rounded=0;" vertex="1" parent="1">
          <mxGeometry x="2645" y="380" width="190" height="30" as="geometry" />
        </mxCell>
        <mxCell id="fT7zzyfTvzehRH6RShBd-42" value="&lt;font color=&quot;#ffffff&quot;&gt;管理服务器：NBU07&lt;/font&gt;" style="text;html=1;strokeColor=none;fillColor=none;align=center;verticalAlign=middle;whiteSpace=wrap;rounded=0;" vertex="1" parent="1">
          <mxGeometry x="2647.5" y="-70" width="190" height="30" as="geometry" />
        </mxCell>
        <mxCell id="fT7zzyfTvzehRH6RShBd-43" value="" style="shape=image;verticalLabelPosition=bottom;labelBackgroundColor=#ffffff;verticalAlign=top;aspect=fixed;imageAspect=0;image=data:image/svg+xml,PHN2ZyB4bWxuczpjYz0iaHR0cDovL2NyZWF0aXZlY29tbW9ucy5vcmcvbnMjIiB4bWxuczpkYz0iaHR0cDovL3B1cmwub3JnL2RjL2VsZW1lbnRzLzEuMS8iIHhtbG5zOmlua3NjYXBlPSJodHRwOi8vd3d3Lmlua3NjYXBlLm9yZy9uYW1lc3BhY2VzL2lua3NjYXBlIiB4bWxuczpyZGY9Imh0dHA6Ly93d3cudzMub3JnLzE5OTkvMDIvMjItcmRmLXN5bnRheC1ucyMiIHhtbG5zOnNvZGlwb2RpPSJodHRwOi8vc29kaXBvZGkuc291cmNlZm9yZ2UubmV0L0RURC9zb2RpcG9kaS0wLmR0ZCIgeG1sbnM6c3ZnPSJodHRwOi8vd3d3LnczLm9yZy8yMDAwL3N2ZyIgeG1sbnM9Imh0dHA6Ly93d3cudzMub3JnLzIwMDAvc3ZnIiB4bWxuczp4bGluaz0iaHR0cDovL3d3dy53My5vcmcvMTk5OS94bGluayIgdmVyc2lvbj0iMS4xIiBpZD0ic3ZnODUyOTgiIGlua3NjYXBlOnZlcnNpb249IjAuOTIuMyAoMjQwNTU0NiwgMjAxOC0wMy0xMSkiIHNvZGlwb2RpOmRvY25hbWU9ImhvbWUuc3ZnIiB4PSIwcHgiIHk9IjBweCIgdmlld0JveD0iMCAwIDM1LjkgMzAuNTciIHN0eWxlPSJlbmFibGUtYmFja2dyb3VuZDpuZXcgMCAwIDM1LjkgMzAuNTc7IiB4bWw6c3BhY2U9InByZXNlcnZlIj4mI3hhOzxzb2RpcG9kaTpuYW1lZHZpZXcgYm9yZGVyY29sb3I9IiM2NjY2NjYiIGJvcmRlcm9wYWNpdHk9IjEiIGZpdC1tYXJnaW4tYm90dG9tPSIwIiBmaXQtbWFyZ2luLWxlZnQ9IjAiIGZpdC1tYXJnaW4tcmlnaHQ9IjAiIGZpdC1tYXJnaW4tdG9wPSIwIiBncmlkdG9sZXJhbmNlPSIxMCIgZ3VpZGV0b2xlcmFuY2U9IjEwIiBpZD0ibmFtZWR2aWV3ODUzMDAiIGlua3NjYXBlOmN1cnJlbnQtbGF5ZXI9InN2Zzg1Mjk4IiBpbmtzY2FwZTpjeD0iMjMuOTMzNjkyIiBpbmtzY2FwZTpjeT0iMjAuMzgxNTM5IiBpbmtzY2FwZTpwYWdlb3BhY2l0eT0iMCIgaW5rc2NhcGU6cGFnZXNoYWRvdz0iMiIgaW5rc2NhcGU6d2luZG93LWhlaWdodD0iMTAxNyIgaW5rc2NhcGU6d2luZG93LW1heGltaXplZD0iMSIgaW5rc2NhcGU6d2luZG93LXdpZHRoPSIxOTIwIiBpbmtzY2FwZTp3aW5kb3cteD0iLTgiIGlua3NjYXBlOndpbmRvdy15PSItOCIgaW5rc2NhcGU6em9vbT0iMjEuMjcyNDI0IiBvYmplY3R0b2xlcmFuY2U9IjEwIiBwYWdlY29sb3I9IiNmZmZmZmYiIHNob3dncmlkPSJmYWxzZSI+JiN4YTsJPC9zb2RpcG9kaTpuYW1lZHZpZXc+JiN4YTs8ZyBpZD0iZzg1Mjk2IiB0cmFuc2Zvcm09InRyYW5zbGF0ZSgwLjAwMTk2NDU5LC0xLjg1NzExOGUtNSkiPiYjeGE7CTx0aXRsZSBpZD0idGl0bGU4NTI4OSI+UGFnZS0xPC90aXRsZT4mI3hhOwk8ZyBpZD0ic2hhcGU0NjcwLTEiPiYjeGE7CQk8dGl0bGUgaWQ9InRpdGxlODUyOTEiPkhvbWU8L3RpdGxlPiYjeGE7CQk8cGF0aCBpZD0icGF0aDg1MjkzIiBpbmtzY2FwZTpjb25uZWN0b3ItY3VydmF0dXJlPSIwIiBzdHlsZT0iZmlsbDojM0Y1NzY1OyIgZD0iTTQuOTEsMTQuMTVoMjYuNjF2MTYuNDJoLTkuMzhWMTkuNjkgICAgYzAtMC43My0wLjU5LTEuMzItMS4zMS0xLjMySDE1LjZjLTAuNzIsMC0xLjMsMC41OS0xLjMsMS4zMnYxMC44OEg0LjkxVjE0LjE1eiBNMTguMjEsNi41MWwxMy4zMSw3LjY0SDQuOTFMMTguMjEsNi41MXogTTE4LjI0LDAgICAgbDcuMDQsNC4yOFYyLjQyaDUuMzJWNy41bDQuMzQsMi42NGMxLjMsMS45MiwxLjEyLDMuNDQsMC4zOCw1LjE2TDE4LjQ0LDUuMDRMMC41MiwxNS4yNmMtMC40My0wLjk5LTEuMTYtMi45MywwLjYtNS4xMkwxOC4yNCwweiIvPiYjeGE7CTwvZz4mI3hhOzwvZz4mI3hhOzwvc3ZnPg==;fontColor=#FFFFFF;" vertex="1" parent="1">
          <mxGeometry x="2250" y="-70" width="46.45" height="40" as="geometry" />
        </mxCell>
        <mxCell id="fT7zzyfTvzehRH6RShBd-44" value="&lt;h1&gt;河西总部备份系统&amp;nbsp; &amp;nbsp; &lt;span style=&quot;white-space: pre;&quot;&gt;	&lt;/span&gt;架构图&lt;/h1&gt;&lt;p&gt;注释：&lt;/p&gt;&lt;p&gt;1.管理服务器NBU07为ESXI虚拟化主机。&lt;/p&gt;&lt;p style=&quot;line-height: 1.2;&quot;&gt;The management server NBU07 is an ESXI virtualization host.&lt;/p&gt;" style="text;html=1;strokeColor=none;fillColor=none;spacing=5;spacingTop=-20;whiteSpace=wrap;overflow=hidden;rounded=0;fontColor=#FFFFFF;" vertex="1" parent="1">
          <mxGeometry x="2230" y="30" width="210" height="200" as="geometry" />
        </mxCell>
        <mxCell id="fT7zzyfTvzehRH6RShBd-57" value="SAS&lt;br&gt;直连" style="text;html=1;strokeColor=#23445d;fillColor=#bac8d3;align=center;verticalAlign=middle;whiteSpace=wrap;rounded=0;" vertex="1" parent="1">
          <mxGeometry x="2460" y="250" width="40" height="40" as="geometry" />
        </mxCell>
        <mxCell id="fT7zzyfTvzehRH6RShBd-59" value="NUB04" style="text;html=1;strokeColor=none;fillColor=none;align=center;verticalAlign=middle;whiteSpace=wrap;rounded=0;fontColor=#FFFFFF;" vertex="1" parent="1">
          <mxGeometry x="2555" y="127" width="60" height="30" as="geometry" />
        </mxCell>
        <mxCell id="fT7zzyfTvzehRH6RShBd-60" value="NUB08" style="text;html=1;strokeColor=none;fillColor=none;align=center;verticalAlign=middle;whiteSpace=wrap;rounded=0;fontColor=#FFFFFF;" vertex="1" parent="1">
          <mxGeometry x="2647.5" y="127" width="60" height="30" as="geometry" />
        </mxCell>
        <mxCell id="fT7zzyfTvzehRH6RShBd-61" value="NUB09" style="text;html=1;strokeColor=none;fillColor=none;align=center;verticalAlign=middle;whiteSpace=wrap;rounded=0;fontColor=#FFFFFF;" vertex="1" parent="1">
          <mxGeometry x="2740" y="127" width="60" height="30" as="geometry" />
        </mxCell>
        <mxCell id="fT7zzyfTvzehRH6RShBd-62" value="NUB10" style="text;html=1;strokeColor=none;fillColor=none;align=center;verticalAlign=middle;whiteSpace=wrap;rounded=0;fontColor=#FFFFFF;" vertex="1" parent="1">
          <mxGeometry x="2837.5" y="127" width="60" height="30" as="geometry" />
        </mxCell>
        <mxCell id="fT7zzyfTvzehRH6RShBd-63" value="NUB11" style="text;html=1;strokeColor=none;fillColor=none;align=center;verticalAlign=middle;whiteSpace=wrap;rounded=0;fontColor=#FFFFFF;" vertex="1" parent="1">
          <mxGeometry x="2930" y="127" width="60" height="30" as="geometry" />
        </mxCell>
        <mxCell id="fT7zzyfTvzehRH6RShBd-65" value="NetBackup 5220" style="text;html=1;strokeColor=none;fillColor=none;align=center;verticalAlign=middle;whiteSpace=wrap;rounded=0;fontColor=#FFFFFF;" vertex="1" parent="1">
          <mxGeometry x="2558.5" y="258" width="67.5" height="30" as="geometry" />
        </mxCell>
        <mxCell id="fT7zzyfTvzehRH6RShBd-66" value="NetBackup 5230" style="text;html=1;strokeColor=none;fillColor=none;align=center;verticalAlign=middle;whiteSpace=wrap;rounded=0;fontColor=#FFFFFF;" vertex="1" parent="1">
          <mxGeometry x="2649.5" y="258" width="67.5" height="30" as="geometry" />
        </mxCell>
        <mxCell id="fT7zzyfTvzehRH6RShBd-67" value="NetBackup 5240" style="text;html=1;strokeColor=none;fillColor=none;align=center;verticalAlign=middle;whiteSpace=wrap;rounded=0;fontColor=#FFFFFF;" vertex="1" parent="1">
          <mxGeometry x="2740" y="258" width="67.5" height="30" as="geometry" />
        </mxCell>
        <mxCell id="fT7zzyfTvzehRH6RShBd-68" value="NetBackup 5240" style="text;html=1;strokeColor=none;fillColor=none;align=center;verticalAlign=middle;whiteSpace=wrap;rounded=0;fontColor=#FFFFFF;" vertex="1" parent="1">
          <mxGeometry x="2838" y="258" width="67.5" height="30" as="geometry" />
        </mxCell>
        <mxCell id="fT7zzyfTvzehRH6RShBd-69" value="NetBackup 5240" style="text;html=1;strokeColor=none;fillColor=none;align=center;verticalAlign=middle;whiteSpace=wrap;rounded=0;fontColor=#FFFFFF;" vertex="1" parent="1">
          <mxGeometry x="2930" y="259" width="67.5" height="29" as="geometry" />
        </mxCell>
        <mxCell id="fT7zzyfTvzehRH6RShBd-72" value="&lt;h1&gt;宝骏备份系统&lt;/h1&gt;&lt;p&gt;Lorem ipsum dolor sit amet, consectetur adipisicing elit, sed do eiusmod tempor incididunt ut labore et dolore magna aliqua.&lt;/p&gt;" style="text;html=1;strokeColor=none;fillColor=none;spacing=5;spacingTop=-20;whiteSpace=wrap;overflow=hidden;rounded=0;fontColor=#FFFFFF;" vertex="1" parent="1">
          <mxGeometry x="1740" y="121.5" width="160" height="170" as="geometry" />
        </mxCell>
        <mxCell id="fT7zzyfTvzehRH6RShBd-74" value="" style="shape=image;verticalLabelPosition=bottom;labelBackgroundColor=#ffffff;verticalAlign=top;aspect=fixed;imageAspect=0;image=data:image/svg+xml,PHN2ZyB4bWxuczpjYz0iaHR0cDovL2NyZWF0aXZlY29tbW9ucy5vcmcvbnMjIiB4bWxuczpkYz0iaHR0cDovL3B1cmwub3JnL2RjL2VsZW1lbnRzLzEuMS8iIHhtbG5zOmlua3NjYXBlPSJodHRwOi8vd3d3Lmlua3NjYXBlLm9yZy9uYW1lc3BhY2VzL2lua3NjYXBlIiB4bWxuczpyZGY9Imh0dHA6Ly93d3cudzMub3JnLzE5OTkvMDIvMjItcmRmLXN5bnRheC1ucyMiIHhtbG5zOnNvZGlwb2RpPSJodHRwOi8vc29kaXBvZGkuc291cmNlZm9yZ2UubmV0L0RURC9zb2RpcG9kaS0wLmR0ZCIgeG1sbnM6c3ZnPSJodHRwOi8vd3d3LnczLm9yZy8yMDAwL3N2ZyIgeG1sbnM9Imh0dHA6Ly93d3cudzMub3JnLzIwMDAvc3ZnIiB4bWxuczp4bGluaz0iaHR0cDovL3d3dy53My5vcmcvMTk5OS94bGluayIgdmVyc2lvbj0iMS4xIiBpZD0ic3ZnODUyOTgiIGlua3NjYXBlOnZlcnNpb249IjAuOTIuMyAoMjQwNTU0NiwgMjAxOC0wMy0xMSkiIHNvZGlwb2RpOmRvY25hbWU9ImhvbWUuc3ZnIiB4PSIwcHgiIHk9IjBweCIgdmlld0JveD0iMCAwIDM1LjkgMzAuNTciIHN0eWxlPSJlbmFibGUtYmFja2dyb3VuZDpuZXcgMCAwIDM1LjkgMzAuNTc7IiB4bWw6c3BhY2U9InByZXNlcnZlIj4mI3hhOzxzb2RpcG9kaTpuYW1lZHZpZXcgYm9yZGVyY29sb3I9IiM2NjY2NjYiIGJvcmRlcm9wYWNpdHk9IjEiIGZpdC1tYXJnaW4tYm90dG9tPSIwIiBmaXQtbWFyZ2luLWxlZnQ9IjAiIGZpdC1tYXJnaW4tcmlnaHQ9IjAiIGZpdC1tYXJnaW4tdG9wPSIwIiBncmlkdG9sZXJhbmNlPSIxMCIgZ3VpZGV0b2xlcmFuY2U9IjEwIiBpZD0ibmFtZWR2aWV3ODUzMDAiIGlua3NjYXBlOmN1cnJlbnQtbGF5ZXI9InN2Zzg1Mjk4IiBpbmtzY2FwZTpjeD0iMjMuOTMzNjkyIiBpbmtzY2FwZTpjeT0iMjAuMzgxNTM5IiBpbmtzY2FwZTpwYWdlb3BhY2l0eT0iMCIgaW5rc2NhcGU6cGFnZXNoYWRvdz0iMiIgaW5rc2NhcGU6d2luZG93LWhlaWdodD0iMTAxNyIgaW5rc2NhcGU6d2luZG93LW1heGltaXplZD0iMSIgaW5rc2NhcGU6d2luZG93LXdpZHRoPSIxOTIwIiBpbmtzY2FwZTp3aW5kb3cteD0iLTgiIGlua3NjYXBlOndpbmRvdy15PSItOCIgaW5rc2NhcGU6em9vbT0iMjEuMjcyNDI0IiBvYmplY3R0b2xlcmFuY2U9IjEwIiBwYWdlY29sb3I9IiNmZmZmZmYiIHNob3dncmlkPSJmYWxzZSI+JiN4YTsJPC9zb2RpcG9kaTpuYW1lZHZpZXc+JiN4YTs8ZyBpZD0iZzg1Mjk2IiB0cmFuc2Zvcm09InRyYW5zbGF0ZSgwLjAwMTk2NDU5LC0xLjg1NzExOGUtNSkiPiYjeGE7CTx0aXRsZSBpZD0idGl0bGU4NTI4OSI+UGFnZS0xPC90aXRsZT4mI3hhOwk8ZyBpZD0ic2hhcGU0NjcwLTEiPiYjeGE7CQk8dGl0bGUgaWQ9InRpdGxlODUyOTEiPkhvbWU8L3RpdGxlPiYjeGE7CQk8cGF0aCBpZD0icGF0aDg1MjkzIiBpbmtzY2FwZTpjb25uZWN0b3ItY3VydmF0dXJlPSIwIiBzdHlsZT0iZmlsbDojM0Y1NzY1OyIgZD0iTTQuOTEsMTQuMTVoMjYuNjF2MTYuNDJoLTkuMzhWMTkuNjkgICAgYzAtMC43My0wLjU5LTEuMzItMS4zMS0xLjMySDE1LjZjLTAuNzIsMC0xLjMsMC41OS0xLjMsMS4zMnYxMC44OEg0LjkxVjE0LjE1eiBNMTguMjEsNi41MWwxMy4zMSw3LjY0SDQuOTFMMTguMjEsNi41MXogTTE4LjI0LDAgICAgbDcuMDQsNC4yOFYyLjQyaDUuMzJWNy41bDQuMzQsMi42NGMxLjMsMS45MiwxLjEyLDMuNDQsMC4zOCw1LjE2TDE4LjQ0LDUuMDRMMC41MiwxNS4yNmMtMC40My0wLjk5LTEuMTYtMi45MywwLjYtNS4xMkwxOC4yNCwweiIvPiYjeGE7CTwvZz4mI3hhOzwvZz4mI3hhOzwvc3ZnPg==;fontColor=#FFFFFF;" vertex="1" parent="1">
          <mxGeometry x="1800" y="50" width="46.45" height="40" as="geometry" />
        </mxCell>
        <mxCell id="fT7zzyfTvzehRH6RShBd-75" value="" style="rounded=0;whiteSpace=wrap;html=1;fontColor=#ffffff;fillColor=#647687;strokeColor=#314354;" vertex="1" parent="1">
          <mxGeometry x="1935.5" y="30" width="160" height="111.5" as="geometry" />
        </mxCell>
        <mxCell id="fT7zzyfTvzehRH6RShBd-76" value="" style="rounded=0;whiteSpace=wrap;html=1;fontColor=#ffffff;fillColor=#647687;strokeColor=#314354;" vertex="1" parent="1">
          <mxGeometry x="1920.5" y="190" width="190" height="200" as="geometry" />
        </mxCell>
        <mxCell id="fT7zzyfTvzehRH6RShBd-81" value="" style="edgeStyle=orthogonalEdgeStyle;rounded=0;orthogonalLoop=1;jettySize=auto;html=1;fontColor=#FFFFFF;" edge="1" parent="1" source="fT7zzyfTvzehRH6RShBd-77" target="fT7zzyfTvzehRH6RShBd-78">
          <mxGeometry relative="1" as="geometry" />
        </mxCell>
        <mxCell id="fT7zzyfTvzehRH6RShBd-77" value="" style="shape=image;verticalLabelPosition=bottom;labelBackgroundColor=#ffffff;verticalAlign=top;aspect=fixed;imageAspect=0;image=data:image/svg+xml,PHN2ZyB4bWxuczpjYz0iaHR0cDovL2NyZWF0aXZlY29tbW9ucy5vcmcvbnMjIiB4bWxuczpkYz0iaHR0cDovL3B1cmwub3JnL2RjL2VsZW1lbnRzLzEuMS8iIHhtbG5zOmlua3NjYXBlPSJodHRwOi8vd3d3Lmlua3NjYXBlLm9yZy9uYW1lc3BhY2VzL2lua3NjYXBlIiB4bWxuczpyZGY9Imh0dHA6Ly93d3cudzMub3JnLzE5OTkvMDIvMjItcmRmLXN5bnRheC1ucyMiIHhtbG5zOnNvZGlwb2RpPSJodHRwOi8vc29kaXBvZGkuc291cmNlZm9yZ2UubmV0L0RURC9zb2RpcG9kaS0wLmR0ZCIgeG1sbnM6c3ZnPSJodHRwOi8vd3d3LnczLm9yZy8yMDAwL3N2ZyIgeG1sbnM9Imh0dHA6Ly93d3cudzMub3JnLzIwMDAvc3ZnIiB4bWxuczp4bGluaz0iaHR0cDovL3d3dy53My5vcmcvMTk5OS94bGluayIgdmVyc2lvbj0iMS4xIiBpZD0ic3ZnNjUxNSIgaW5rc2NhcGU6dmVyc2lvbj0iMC45Mi4zICgyNDA1NTQ2LCAyMDE4LTAzLTExKSIgc29kaXBvZGk6ZG9jbmFtZT0ic2VydmVyXzIuc3ZnIiB4PSIwcHgiIHk9IjBweCIgdmlld0JveD0iMCAwIDMxLjgzIDU5Ljg1IiBzdHlsZT0iZW5hYmxlLWJhY2tncm91bmQ6bmV3IDAgMCAzMS44MyA1OS44NTsiIHhtbDpzcGFjZT0icHJlc2VydmUiPiYjeGE7PHNvZGlwb2RpOm5hbWVkdmlldyBib3JkZXJjb2xvcj0iIzY2NjY2NiIgYm9yZGVyb3BhY2l0eT0iMSIgZml0LW1hcmdpbi1ib3R0b209IjAiIGZpdC1tYXJnaW4tbGVmdD0iMCIgZml0LW1hcmdpbi1yaWdodD0iMCIgZml0LW1hcmdpbi10b3A9IjAiIGdyaWR0b2xlcmFuY2U9IjEwIiBndWlkZXRvbGVyYW5jZT0iMTAiIGlkPSJuYW1lZHZpZXc2NTE3IiBpbmtzY2FwZTpjdXJyZW50LWxheWVyPSJzdmc2NTE1IiBpbmtzY2FwZTpjeD0iMjEuMjIyNDA5IiBpbmtzY2FwZTpjeT0iMzkuODk4OTE5IiBpbmtzY2FwZTpwYWdlb3BhY2l0eT0iMCIgaW5rc2NhcGU6cGFnZXNoYWRvdz0iMiIgaW5rc2NhcGU6d2luZG93LWhlaWdodD0iMTAxNyIgaW5rc2NhcGU6d2luZG93LW1heGltaXplZD0iMSIgaW5rc2NhcGU6d2luZG93LXdpZHRoPSIxOTIwIiBpbmtzY2FwZTp3aW5kb3cteD0iLTgiIGlua3NjYXBlOndpbmRvdy15PSItOCIgaW5rc2NhcGU6em9vbT0iMTAuODY0Mzc0IiBvYmplY3R0b2xlcmFuY2U9IjEwIiBwYWdlY29sb3I9IiNmZmZmZmYiIHNob3dncmlkPSJmYWxzZSI+JiN4YTsJPC9zb2RpcG9kaTpuYW1lZHZpZXc+JiN4YTs8ZyBpZD0iZzY1MTMiIHRyYW5zZm9ybT0idHJhbnNsYXRlKDAuMDA0MzM4OSkiPiYjeGE7CTx0aXRsZSBpZD0idGl0bGU2NDQ4Ij5QYWdlLTE8L3RpdGxlPiYjeGE7CTxnIGlkPSJncm91cDc2MzItMSIgdHJhbnNmb3JtPSJ0cmFuc2xhdGUoMC4zMDYyMTYpIj4mI3hhOwkJPHRpdGxlIGlkPSJ0aXRsZTY0NTAiPlNlcnZlciAjMjwvdGl0bGU+JiN4YTsJCTxnIGlkPSJzaGFwZTc2MzMtMiIgdHJhbnNmb3JtPSJ0cmFuc2xhdGUoMC4wOTUyMjI3KSI+JiN4YTsJCQk8dGl0bGUgaWQ9InRpdGxlNjQ1MiI+U2hlZXQuNzYzMzwvdGl0bGU+JiN4YTsJCQk8cGF0aCBpZD0icGF0aDY0NTQiIGlua3NjYXBlOmNvbm5lY3Rvci1jdXJ2YXR1cmU9IjAiIHN0eWxlPSJmaWxsOiMzRjU3NjU7IiBkPSJNMzEuMjMsNTguNGMwLDAuODMtMC42MiwxLjQ1LTEuMjUsMS40NSAgICAgYy0yOC43MiwwLTI4LjcyLDAtMjguNzIsMEMwLjYzLDU5Ljg1LDAsNTkuMjMsMCw1OC40QzAsMS40NywwLDEuNDcsMCwxLjQ3QzAsMC42MywwLjYzLDAsMS4yNiwwYzI4LjcyLDAsMjguNzIsMCwyOC43MiwwICAgICBjMC42MywwLDEuMjUsMC42MywxLjI1LDEuNDdWNTguNHoiLz4mI3hhOwkJPC9nPiYjeGE7CQk8ZyBpZD0ic2hhcGU3NjM0LTQiIHRyYW5zZm9ybT0idHJhbnNsYXRlKDAsLTUzLjA4NDkpIj4mI3hhOwkJCTx0aXRsZSBpZD0idGl0bGU2NDU3Ij5TaGVldC43NjM0PC90aXRsZT4mI3hhOwkJCSYjeGE7CQkJCTxwYXRoIGlkPSJwYXRoNjQ1OSIgaW5rc2NhcGU6Y29ubmVjdG9yLWN1cnZhdHVyZT0iMCIgc3R5bGU9ImZpbGw6bm9uZTtzdHJva2U6IzAwMDAwMDtzdHJva2Utd2lkdGg6MC42MTI0O3N0cm9rZS1saW5lY2FwOnJvdW5kO3N0cm9rZS1saW5lam9pbjpyb3VuZDtzdHJva2UtbWl0ZXJsaW1pdDozOyIgZD0iICAgICBNMCw1OS44NWgyOC4zOCIvPiYjeGE7CQk8L2c+JiN4YTsJCTxnIGlkPSJzaGFwZTc2MzUtNyIgdHJhbnNmb3JtPSJ0cmFuc2xhdGUoMTYuNDczNSwtNTIuMDM2NikiPiYjeGE7CQkJPHRpdGxlIGlkPSJ0aXRsZTY0NjIiPlNoZWV0Ljc2MzU8L3RpdGxlPiYjeGE7CQkJPHBhdGggaWQ9InBhdGg2NDY0IiBpbmtzY2FwZTpjb25uZWN0b3ItY3VydmF0dXJlPSIwIiBzdHlsZT0iZmlsbDojMDBCQ0YyOyIgZD0iTTE1LjA1LDU3Ljc1Yy0xNCwwLTE0LDAtMTQsMCAgICAgQzAuNDMsNTcuNzUsMCw1OC4xOCwwLDU4LjhjMCwwLjQzLDAuNDMsMS4wNSwxLjA1LDEuMDVjMTQsMCwxNCwwLDE0LDBWNTcuNzV6Ii8+JiN4YTsJCTwvZz4mI3hhOwkJPGcgaWQ9InNoYXBlNzYzNi05IiB0cmFuc2Zvcm09InRyYW5zbGF0ZSgwLC00Ni4yMjMpIj4mI3hhOwkJCTx0aXRsZSBpZD0idGl0bGU2NDY3Ij5TaGVldC43NjM2PC90aXRsZT4mI3hhOwkJCSYjeGE7CQkJCTxwYXRoIGlkPSJwYXRoNjQ2OSIgaW5rc2NhcGU6Y29ubmVjdG9yLWN1cnZhdHVyZT0iMCIgc3R5bGU9ImZpbGw6bm9uZTtzdHJva2U6IzAwMDAwMDtzdHJva2Utd2lkdGg6MC42MTI0O3N0cm9rZS1saW5lY2FwOnJvdW5kO3N0cm9rZS1saW5lam9pbjpyb3VuZDtzdHJva2UtbWl0ZXJsaW1pdDozOyIgZD0iICAgICBNMCw1OS44NWgyOC4zOCIvPiYjeGE7CQk8L2c+JiN4YTsJCTxnIGlkPSJzaGFwZTc2MzctMTIiIHRyYW5zZm9ybT0idHJhbnNsYXRlKDE2LjQ3MzUsLTQ1LjE3NDYpIj4mI3hhOwkJCTx0aXRsZSBpZD0idGl0bGU2NDcyIj5TaGVldC43NjM3PC90aXRsZT4mI3hhOwkJCTxwYXRoIGlkPSJwYXRoNjQ3NCIgaW5rc2NhcGU6Y29ubmVjdG9yLWN1cnZhdHVyZT0iMCIgc3R5bGU9ImZpbGw6IzAwQkNGMjsiIGQ9Ik0xNS4wNSw1Ny41NmMtMTQsMC0xNCwwLTE0LDAgICAgIEMwLjQzLDU3LjU2LDAsNTguMDMsMCw1OC43MWMwLDAuNjksMC40MywxLjE0LDEuMDUsMS4xNGMxNCwwLDE0LDAsMTQsMFY1Ny41NnoiLz4mI3hhOwkJPC9nPiYjeGE7CQk8ZyBpZD0ic2hhcGU3NjM4LTE0IiB0cmFuc2Zvcm09InRyYW5zbGF0ZSgwLC0zOS4zNjEpIj4mI3hhOwkJCTx0aXRsZSBpZD0idGl0bGU2NDc3Ij5TaGVldC43NjM4PC90aXRsZT4mI3hhOwkJCSYjeGE7CQkJCTxwYXRoIGlkPSJwYXRoNjQ3OSIgaW5rc2NhcGU6Y29ubmVjdG9yLWN1cnZhdHVyZT0iMCIgc3R5bGU9ImZpbGw6bm9uZTtzdHJva2U6IzAwMDAwMDtzdHJva2Utd2lkdGg6MC42MTI0O3N0cm9rZS1saW5lY2FwOnJvdW5kO3N0cm9rZS1saW5lam9pbjpyb3VuZDtzdHJva2UtbWl0ZXJsaW1pdDozOyIgZD0iICAgICBNMCw1OS44NWgyOC4zOCIvPiYjeGE7CQk8L2c+JiN4YTsJCTxnIGlkPSJzaGFwZTc2MzktMTciIHRyYW5zZm9ybT0idHJhbnNsYXRlKDE2LjQ3MzUsLTM4LjMxMjYpIj4mI3hhOwkJCTx0aXRsZSBpZD0idGl0bGU2NDgyIj5TaGVldC43NjM5PC90aXRsZT4mI3hhOwkJCTxwYXRoIGlkPSJwYXRoNjQ4NCIgaW5rc2NhcGU6Y29ubmVjdG9yLWN1cnZhdHVyZT0iMCIgc3R5bGU9ImZpbGw6IzAwQkNGMjsiIGQ9Ik0xNS4wNSw1Ny43NWMtMTQsMC0xNCwwLTE0LDAgICAgIEMwLjQzLDU3Ljc1LDAsNTguMTgsMCw1OC44YzAsMC42MywwLjQzLDEuMDUsMS4wNSwxLjA1YzE0LDAsMTQsMCwxNCwwVjU3Ljc1eiIvPiYjeGE7CQk8L2c+JiN4YTsJCTxnIGlkPSJzaGFwZTc2NDAtMTkiIHRyYW5zZm9ybT0idHJhbnNsYXRlKDAsLTMyLjQ5OSkiPiYjeGE7CQkJPHRpdGxlIGlkPSJ0aXRsZTY0ODciPlNoZWV0Ljc2NDA8L3RpdGxlPiYjeGE7CQkJJiN4YTsJCQkJPHBhdGggaWQ9InBhdGg2NDg5IiBpbmtzY2FwZTpjb25uZWN0b3ItY3VydmF0dXJlPSIwIiBzdHlsZT0iZmlsbDpub25lO3N0cm9rZTojMDAwMDAwO3N0cm9rZS13aWR0aDowLjYxMjQ7c3Ryb2tlLWxpbmVjYXA6cm91bmQ7c3Ryb2tlLWxpbmVqb2luOnJvdW5kO3N0cm9rZS1taXRlcmxpbWl0OjM7IiBkPSIgICAgIE0wLDU5Ljg1aDI4LjM4Ii8+JiN4YTsJCTwvZz4mI3hhOwkJPGcgaWQ9InNoYXBlNzY0MS0yMiIgdHJhbnNmb3JtPSJ0cmFuc2xhdGUoMTYuNDczNSwtMzEuNDUwNykiPiYjeGE7CQkJPHRpdGxlIGlkPSJ0aXRsZTY0OTIiPlNoZWV0Ljc2NDE8L3RpdGxlPiYjeGE7CQkJPHBhdGggaWQ9InBhdGg2NDk0IiBpbmtzY2FwZTpjb25uZWN0b3ItY3VydmF0dXJlPSIwIiBzdHlsZT0iZmlsbDojMDBCQ0YyOyIgZD0iTTE1LjA1LDU3Ljc1Yy0xNCwwLTE0LDAtMTQsMCAgICAgQzAuNDMsNTcuNzUsMCw1OC4zOSwwLDU4LjhjMCwwLjYzLDAuNDMsMS4wNSwxLjA1LDEuMDVjMTQsMCwxNCwwLDE0LDBWNTcuNzV6Ii8+JiN4YTsJCTwvZz4mI3hhOwkJPGcgaWQ9InNoYXBlNzY0Mi0yNCIgdHJhbnNmb3JtPSJ0cmFuc2xhdGUoMTMuOTk3NywtOS45MTE3MykiPiYjeGE7CQkJPHRpdGxlIGlkPSJ0aXRsZTY0OTciPlNoZWV0Ljc2NDI8L3RpdGxlPiYjeGE7CQkJPHBhdGggaWQ9InBhdGg2NDk5IiBpbmtzY2FwZTpjb25uZWN0b3ItY3VydmF0dXJlPSIwIiBzdHlsZT0iZmlsbDojREZERkRGOyIgZD0iTTAsNTguMDRjMC0wLjk5LDAuNzctMS44MSwxLjcxLTEuODEgICAgIGMwLjk2LDAsMS43MiwwLjgyLDEuNzIsMS44MWMwLDEtMC43NiwxLjgxLTEuNzIsMS44MUMwLjc3LDU5Ljg1LDAsNTkuMDQsMCw1OC4wNHoiLz4mI3hhOwkJPC9nPiYjeGE7CQk8ZyBpZD0ic2hhcGU3NjQzLTI2IiB0cmFuc2Zvcm09InRyYW5zbGF0ZSgwLjA5NTIyMjcpIj4mI3hhOwkJCTx0aXRsZSBpZD0idGl0bGU2NTAyIj5TaGVldC43NjQzPC90aXRsZT4mI3hhOwkJCTxwYXRoIGlkPSJwYXRoNjUwNCIgaW5rc2NhcGU6Y29ubmVjdG9yLWN1cnZhdHVyZT0iMCIgc3R5bGU9ImZpbGw6Izk2OTY5NjsiIGQ9Ik0wLDU3LjM3YzAsMC45MSwwLDAuOTEsMCwwLjkxICAgICBjMCwwLjksMC42MywxLjU3LDEuMjYsMS41N2MyOC43MiwwLDI4LjcyLDAsMjguNzIsMGMwLjYzLDAsMS4yNS0wLjY3LDEuMjUtMS41N2MwLTAuOTEsMC0wLjkxLDAtMC45MUgweiIvPiYjeGE7CQk8L2c+JiN4YTsJCTxnIGlkPSJzaGFwZTc2NDQtMjgiIHRyYW5zZm9ybT0idHJhbnNsYXRlKDAuMDk1MjIyNywtMi40Nzc5MykiPiYjeGE7CQkJPHRpdGxlIGlkPSJ0aXRsZTY1MDciPlNoZWV0Ljc2NDQ8L3RpdGxlPiYjeGE7CQkJPHBhdGggaWQ9InBhdGg2NTA5IiBpbmtzY2FwZTpjb25uZWN0b3ItY3VydmF0dXJlPSIwIiBzdHlsZT0iZmlsbDojMjMxRjIwOyIgZD0iTTAsNTYuMjN2My42MmgzMS4yM3YtMy42MkgweiIvPiYjeGE7CQk8L2c+JiN4YTsJPC9nPiYjeGE7PC9nPiYjeGE7PC9zdmc+;fontColor=#FFFFFF;" vertex="1" parent="1">
          <mxGeometry x="1999.5" y="70" width="32" height="60" as="geometry" />
        </mxCell>
        <mxCell id="fT7zzyfTvzehRH6RShBd-80" value="" style="edgeStyle=orthogonalEdgeStyle;rounded=0;orthogonalLoop=1;jettySize=auto;html=1;fontColor=#FFFFFF;" edge="1" parent="1" source="fT7zzyfTvzehRH6RShBd-78" target="fT7zzyfTvzehRH6RShBd-79">
          <mxGeometry relative="1" as="geometry" />
        </mxCell>
        <mxCell id="fT7zzyfTvzehRH6RShBd-78" value="" style="shape=image;verticalLabelPosition=bottom;labelBackgroundColor=#ffffff;verticalAlign=top;aspect=fixed;imageAspect=0;image=data:image/svg+xml,PHN2ZyB4bWxuczpjYz0iaHR0cDovL2NyZWF0aXZlY29tbW9ucy5vcmcvbnMjIiB4bWxuczpkYz0iaHR0cDovL3B1cmwub3JnL2RjL2VsZW1lbnRzLzEuMS8iIHhtbG5zOmlua3NjYXBlPSJodHRwOi8vd3d3Lmlua3NjYXBlLm9yZy9uYW1lc3BhY2VzL2lua3NjYXBlIiB4bWxuczpyZGY9Imh0dHA6Ly93d3cudzMub3JnLzE5OTkvMDIvMjItcmRmLXN5bnRheC1ucyMiIHhtbG5zOnNvZGlwb2RpPSJodHRwOi8vc29kaXBvZGkuc291cmNlZm9yZ2UubmV0L0RURC9zb2RpcG9kaS0wLmR0ZCIgeG1sbnM6c3ZnPSJodHRwOi8vd3d3LnczLm9yZy8yMDAwL3N2ZyIgeG1sbnM9Imh0dHA6Ly93d3cudzMub3JnLzIwMDAvc3ZnIiB4bWxuczp4bGluaz0iaHR0cDovL3d3dy53My5vcmcvMTk5OS94bGluayIgdmVyc2lvbj0iMS4xIiBpZD0ic3ZnNzI0MSIgaW5rc2NhcGU6dmVyc2lvbj0iMC45Mi4zICgyNDA1NTQ2LCAyMDE4LTAzLTExKSIgc29kaXBvZGk6ZG9jbmFtZT0ic2VydmVyXzMuc3ZnIiB4PSIwcHgiIHk9IjBweCIgdmlld0JveD0iMCAwIDM2Ljc1IDYyLjc2IiBzdHlsZT0iZW5hYmxlLWJhY2tncm91bmQ6bmV3IDAgMCAzNi43NSA2Mi43NjsiIHhtbDpzcGFjZT0icHJlc2VydmUiPiYjeGE7PHNvZGlwb2RpOm5hbWVkdmlldyBib3JkZXJjb2xvcj0iIzY2NjY2NiIgYm9yZGVyb3BhY2l0eT0iMSIgZml0LW1hcmdpbi1ib3R0b209IjAiIGZpdC1tYXJnaW4tbGVmdD0iMCIgZml0LW1hcmdpbi1yaWdodD0iMCIgZml0LW1hcmdpbi10b3A9IjAiIGdyaWR0b2xlcmFuY2U9IjEwIiBndWlkZXRvbGVyYW5jZT0iMTAiIGlkPSJuYW1lZHZpZXc3MjQzIiBpbmtzY2FwZTpjdXJyZW50LWxheWVyPSJzdmc3MjQxIiBpbmtzY2FwZTpjeD0iMjQuNTAwMDE1IiBpbmtzY2FwZTpjeT0iNDEuODQxNjI2IiBpbmtzY2FwZTpwYWdlb3BhY2l0eT0iMCIgaW5rc2NhcGU6cGFnZXNoYWRvdz0iMiIgaW5rc2NhcGU6d2luZG93LWhlaWdodD0iMTAxNyIgaW5rc2NhcGU6d2luZG93LW1heGltaXplZD0iMSIgaW5rc2NhcGU6d2luZG93LXdpZHRoPSIxOTIwIiBpbmtzY2FwZTp3aW5kb3cteD0iLTgiIGlua3NjYXBlOndpbmRvdy15PSItOCIgaW5rc2NhcGU6em9vbT0iMTAuMzYxMjg3IiBvYmplY3R0b2xlcmFuY2U9IjEwIiBwYWdlY29sb3I9IiNmZmZmZmYiIHNob3dncmlkPSJmYWxzZSI+JiN4YTsJPC9zb2RpcG9kaTpuYW1lZHZpZXc+JiN4YTs8ZyBpZD0iZzcyMzkiPiYjeGE7CTx0aXRsZSBpZD0idGl0bGU3MTk5Ij5QYWdlLTE8L3RpdGxlPiYjeGE7CTxnIGlkPSJncm91cDc2NDUtMSI+JiN4YTsJCTx0aXRsZSBpZD0idGl0bGU3MjAxIj5TZXJ2ZXIgIzM8L3RpdGxlPiYjeGE7CQk8ZyBpZD0ic2hhcGU3NjQ2LTIiPiYjeGE7CQkJPHRpdGxlIGlkPSJ0aXRsZTcyMDMiPlNoZWV0Ljc2NDY8L3RpdGxlPiYjeGE7CQkJPHBhdGggaWQ9InBhdGg3MjA1IiBpbmtzY2FwZTpjb25uZWN0b3ItY3VydmF0dXJlPSIwIiBzdHlsZT0iZmlsbDojM0UzRTNFOyIgZD0iTTAsMi4xMkMwLDAuOTUsMC45NSwwLDIuMTIsMGgzMi41MyAgICAgYzEuMTcsMCwyLjEsMC45NSwyLjEsMi4xMnY1OC41M2MwLDEuMTctMC45MywyLjExLTIuMSwyLjExSDIuMTJDMC45NSw2Mi43NiwwLDYxLjgyLDAsNjAuNjVWMi4xMnoiLz4mI3hhOwkJPC9nPiYjeGE7CQk8ZyBpZD0ic2hhcGU3NjQ3LTQiIHRyYW5zZm9ybT0idHJhbnNsYXRlKDUuNjA1OTMsLTQ5LjI1MDIpIj4mI3hhOwkJCTx0aXRsZSBpZD0idGl0bGU3MjA4Ij5TaGVldC43NjQ3PC90aXRsZT4mI3hhOwkJCTxwYXRoIGlkPSJwYXRoNzIxMCIgaW5rc2NhcGU6Y29ubmVjdG9yLWN1cnZhdHVyZT0iMCIgc3R5bGU9ImZpbGw6IzFFMUUxRTsiIGQ9Ik0yLjE4LDU1LjljMCwwLTIuMTgsMC0yLjE4LDMuMTIgICAgIGMwLDAuNjcsMCwwLjY3LDAsMC42N3MwLDMuMDcsMi4xOCwzLjA3YzIxLjIyLDAsMjEuMjIsMCwyMS4yMiwwczIuMTQsMCwyLjE0LTMuMDdjMC0wLjY3LDAtMC42NywwLTAuNjdzMC0zLjEyLTIuMTQtMy4xMiAgICAgYy05Ljg1LDAtOS44NSwwLTkuODUsMEgyLjE4eiIvPiYjeGE7CQk8L2c+JiN4YTsJCTxnIGlkPSJzaGFwZTc2NDgtNiIgdHJhbnNmb3JtPSJ0cmFuc2xhdGUoNi4yMjg4MSwtNDkuNDU4KSI+JiN4YTsJCQk8dGl0bGUgaWQ9InRpdGxlNzIxMyI+U2hlZXQuNzY0ODwvdGl0bGU+JiN4YTsJCQk8cGF0aCBpZD0icGF0aDcyMTUiIGlua3NjYXBlOmNvbm5lY3Rvci1jdXJ2YXR1cmU9IjAiIHN0eWxlPSJmaWxsOiNCOEQ0MzI7IiBkPSJNMCw1OS41MWMwLTEuNywxLjQ0LTMuMTksMy4xNS0zLjE5ICAgICBjMS43MiwwLDMuMDgsMS40OSwzLjA4LDMuMTljMCwxLjgzLTEuMzYsMy4yNS0zLjA4LDMuMjVDMS40NCw2Mi43NiwwLDYxLjM0LDAsNTkuNTF6Ii8+JiN4YTsJCTwvZz4mI3hhOwkJPGcgaWQ9InNoYXBlNzY0OS04IiB0cmFuc2Zvcm09InRyYW5zbGF0ZSg1LjYwNTkzLC0zNy42MTMpIj4mI3hhOwkJCTx0aXRsZSBpZD0idGl0bGU3MjE4Ij5TaGVldC43NjQ5PC90aXRsZT4mI3hhOwkJCTxwYXRoIGlkPSJwYXRoNzIyMCIgaW5rc2NhcGU6Y29ubmVjdG9yLWN1cnZhdHVyZT0iMCIgc3R5bGU9ImZpbGw6IzFFMUUxRTsiIGQ9Ik0yLjE4LDU1LjljMCwwLTIuMTgsMC0yLjE4LDMuMTIgICAgIGMwLDAuNjcsMCwwLjY3LDAsMC42N3MwLDMuMDcsMi4xOCwzLjA3YzIxLjIyLDAsMjEuMjIsMCwyMS4yMiwwczIuMTQsMCwyLjE0LTMuMDdjMC0wLjY3LDAtMC42NywwLTAuNjdzMC0zLjEyLTIuMTQtMy4xMiAgICAgYy05Ljg1LDAtOS44NSwwLTkuODUsMEgyLjE4eiIvPiYjeGE7CQk8L2c+JiN4YTsJCTxnIGlkPSJzaGFwZTc2NTAtMTAiIHRyYW5zZm9ybT0idHJhbnNsYXRlKDYuMjI4ODEsLTM3LjgyMDgpIj4mI3hhOwkJCTx0aXRsZSBpZD0idGl0bGU3MjIzIj5TaGVldC43NjUwPC90aXRsZT4mI3hhOwkJCTxwYXRoIGlkPSJwYXRoNzIyNSIgaW5rc2NhcGU6Y29ubmVjdG9yLWN1cnZhdHVyZT0iMCIgc3R5bGU9ImZpbGw6I0I4RDQzMjsiIGQ9Ik0wLDU5LjUxYzAtMS43LDEuNDQtMy4xOSwzLjE1LTMuMTkgICAgIGMxLjcyLDAsMy4wOCwxLjQ5LDMuMDgsMy4xOWMwLDEuODMtMS4zNiwzLjI1LTMuMDgsMy4yNUMxLjQ0LDYyLjc2LDAsNjEuMzQsMCw1OS41MXoiLz4mI3hhOwkJPC9nPiYjeGE7CQk8ZyBpZD0ic2hhcGU3NjUxLTEyIiB0cmFuc2Zvcm09InRyYW5zbGF0ZSg1LjYwNTkzLC0yNS45NzU4KSI+JiN4YTsJCQk8dGl0bGUgaWQ9InRpdGxlNzIyOCI+U2hlZXQuNzY1MTwvdGl0bGU+JiN4YTsJCQk8cGF0aCBpZD0icGF0aDcyMzAiIGlua3NjYXBlOmNvbm5lY3Rvci1jdXJ2YXR1cmU9IjAiIHN0eWxlPSJmaWxsOiMxRTFFMUU7IiBkPSJNMi4xOCw1NS42OWMwLDAtMi4xOCwwLTIuMTgsMy4yMSAgICAgYzAsMC43LDAsMC43LDAsMC43czAsMy4xNiwyLjE4LDMuMTZjMjEuMjIsMCwyMS4yMiwwLDIxLjIyLDBzMi4xNCwwLDIuMTQtMy4xNmMwLTAuNywwLTAuNywwLTAuN3MwLTMuMjEtMi4xNC0zLjIxICAgICBjLTkuODUsMC05Ljg1LDAtOS44NSwwSDIuMTh6Ii8+JiN4YTsJCTwvZz4mI3hhOwkJPGcgaWQ9InNoYXBlNzY1Mi0xNCIgdHJhbnNmb3JtPSJ0cmFuc2xhdGUoNi4yMjg4MSwtMjYuMTgzNikiPiYjeGE7CQkJPHRpdGxlIGlkPSJ0aXRsZTcyMzMiPlNoZWV0Ljc2NTI8L3RpdGxlPiYjeGE7CQkJPHBhdGggaWQ9InBhdGg3MjM1IiBpbmtzY2FwZTpjb25uZWN0b3ItY3VydmF0dXJlPSIwIiBzdHlsZT0iZmlsbDojQjhENDMyOyIgZD0iTTAsNTkuNTFjMC0xLjcsMS40NC0zLjE5LDMuMTUtMy4xOSAgICAgYzEuNzIsMCwzLjA4LDEuNDksMy4wOCwzLjE5YzAsMS44My0xLjM2LDMuMjUtMy4wOCwzLjI1QzEuNDQsNjIuNzYsMCw2MS4zNCwwLDU5LjUxeiIvPiYjeGE7CQk8L2c+JiN4YTsJPC9nPiYjeGE7PC9nPiYjeGE7PC9zdmc+;fontColor=#FFFFFF;" vertex="1" parent="1">
          <mxGeometry x="1997" y="210" width="37" height="63" as="geometry" />
        </mxCell>
        <mxCell id="fT7zzyfTvzehRH6RShBd-79" value="" style="shape=image;verticalLabelPosition=bottom;labelBackgroundColor=#ffffff;verticalAlign=top;aspect=fixed;imageAspect=0;image=data:image/svg+xml,PHN2ZyB4bWxuczpjYz0iaHR0cDovL2NyZWF0aXZlY29tbW9ucy5vcmcvbnMjIiB4bWxuczpkYz0iaHR0cDovL3B1cmwub3JnL2RjL2VsZW1lbnRzLzEuMS8iIHhtbG5zOmlua3NjYXBlPSJodHRwOi8vd3d3Lmlua3NjYXBlLm9yZy9uYW1lc3BhY2VzL2lua3NjYXBlIiB4bWxuczpyZGY9Imh0dHA6Ly93d3cudzMub3JnLzE5OTkvMDIvMjItcmRmLXN5bnRheC1ucyMiIHhtbG5zOnNvZGlwb2RpPSJodHRwOi8vc29kaXBvZGkuc291cmNlZm9yZ2UubmV0L0RURC9zb2RpcG9kaS0wLmR0ZCIgeG1sbnM6c3ZnPSJodHRwOi8vd3d3LnczLm9yZy8yMDAwL3N2ZyIgeG1sbnM9Imh0dHA6Ly93d3cudzMub3JnLzIwMDAvc3ZnIiB4bWxuczp4bGluaz0iaHR0cDovL3d3dy53My5vcmcvMTk5OS94bGluayIgdmVyc2lvbj0iMS4xIiBpZD0ic3ZnMjMxMCIgaW5rc2NhcGU6dmVyc2lvbj0iMC45Mi4zICgyNDA1NTQ2LCAyMDE4LTAzLTExKSIgc29kaXBvZGk6ZG9jbmFtZT0ic3RvcmFnZV8xLnN2ZyIgeD0iMHB4IiB5PSIwcHgiIHZpZXdCb3g9IjAgMCA0Ni4zNSAzNy41MSIgc3R5bGU9ImVuYWJsZS1iYWNrZ3JvdW5kOm5ldyAwIDAgNDYuMzUgMzcuNTE7IiB4bWw6c3BhY2U9InByZXNlcnZlIj4mI3hhOzxzb2RpcG9kaTpuYW1lZHZpZXcgYm9yZGVyY29sb3I9IiM2NjY2NjYiIGJvcmRlcm9wYWNpdHk9IjEiIGZpdC1tYXJnaW4tYm90dG9tPSIwIiBmaXQtbWFyZ2luLWxlZnQ9IjAiIGZpdC1tYXJnaW4tcmlnaHQ9IjAiIGZpdC1tYXJnaW4tdG9wPSIwIiBncmlkdG9sZXJhbmNlPSIxMCIgZ3VpZGV0b2xlcmFuY2U9IjEwIiBpZD0ibmFtZWR2aWV3MjMxMiIgaW5rc2NhcGU6Y3VycmVudC1sYXllcj0ic3ZnMjMxMCIgaW5rc2NhcGU6Y3g9IjMwLjg3NTEzOCIgaW5rc2NhcGU6Y3k9IjI1LjAwODQzMSIgaW5rc2NhcGU6cGFnZW9wYWNpdHk9IjAiIGlua3NjYXBlOnBhZ2VzaGFkb3c9IjIiIGlua3NjYXBlOndpbmRvdy1oZWlnaHQ9IjEwMTciIGlua3NjYXBlOndpbmRvdy1tYXhpbWl6ZWQ9IjEiIGlua3NjYXBlOndpbmRvdy13aWR0aD0iMTkyMCIgaW5rc2NhcGU6d2luZG93LXg9Ii04IiBpbmtzY2FwZTp3aW5kb3cteT0iLTgiIGlua3NjYXBlOnpvb209IjE3LjMzNjY1IiBvYmplY3R0b2xlcmFuY2U9IjEwIiBwYWdlY29sb3I9IiNmZmZmZmYiIHNob3dncmlkPSJmYWxzZSI+JiN4YTsJPC9zb2RpcG9kaTpuYW1lZHZpZXc+JiN4YTs8ZyBpZD0iZzIzMDgiIHRyYW5zZm9ybT0idHJhbnNsYXRlKC0wLjAwMTkwNTU2KSI+JiN4YTsJPHRpdGxlIGlkPSJ0aXRsZTIyOTgiPlBhZ2UtMTwvdGl0bGU+JiN4YTsJPGcgaWQ9Imdyb3VwOTYzNy0xIj4mI3hhOwkJPHRpdGxlIGlkPSJ0aXRsZTIzMDAiPlN0b3JhZ2UgIzE8L3RpdGxlPiYjeGE7CQk8ZyBpZD0ic2hhcGU5NjM4LTIiPiYjeGE7CQkJPHRpdGxlIGlkPSJ0aXRsZTIzMDIiPlNoZWV0Ljk2Mzg8L3RpdGxlPiYjeGE7CQkJPHBhdGggaWQ9InBhdGgyMzA0IiBpbmtzY2FwZTpjb25uZWN0b3ItY3VydmF0dXJlPSIwIiBzdHlsZT0iZmlsbDojM0Y1NzY1OyIgZD0iTTAuMDcsMjYuNzZjMC41LTEuNTgsMS4wMS0zLjE1LDEuMjYtNC43MiAgICAgYzEuMjQtNC43MywyLjUtOS4xOCwzLjc0LTEzLjYzYzAuNzUtMi42MywxLjI2LTUuMjYsMS45OS04LjE0QzcuMzIsMCw3LjU3LDAsNy41NywwYzAuNSwwLDAuNzUsMCwxLjI0LDBjNC4yNiwwLDguNSwwLDEyLjUsMCAgICAgYzIuMjUsMCw0Ljc0LDAsNi45OSwwYzMuNDksMCw3LDAsMTAuNDksMGMwLjI1LDAsMC4yNSwwLDAuMjUsMGMwLjI1LDAsMC4yNSwwLjI3LDAuMjUsMC4yN2MwLjI1LDEuODQsMC43NCwzLjQxLDEuMjQsNC45OSAgICAgYzEuMjYsNC43MiwyLjUsOS4xNywzLjc0LDEzLjYzYzAuNzYsMi44OSwxLjI2LDUuMjYsMi4wMiw3Ljg3YzAuMjMsMC41My0wLjI1LDAuNzgtMC41MSwwLjc4Yy0xLjc0LDAtMy41LDAtNS4yNSwwICAgICBjLTQuNDksMC05LjI0LDAtMTMuNDksMGMtMS45OSwwLTMuNDgsMC01LjIzLDBjLTQuMjYsMC04LjUxLDAtMTIuNSwwYy0yLjk4LDAtNS45OSwwLTguNzQsMEMwLjMyLDI3LjU0LTAuMTgsMjcuMjksMC4wNywyNi43NnogICAgICBNNDYuMjksMjkuMzljMCwyLjYzLDAsNC45NywwLDcuNnYwLjI3Yy0wLjI1LDAuMjUtMC4yNSwwLjI1LTAuNTEsMC4yNWMtMSwwLTEuOTksMC0zLDBjLTMuNDksMC03LjI1LDAtMTAuOTksMCAgICAgYy00Ljc1LDAtOS4yNCwwLTEzLjk5LDBjLTMuOTksMC03Ljk4LDAtMTEuOTgsMGMtMS43NCwwLTMuNSwwLTUuMjUsMGMtMC4yNSwwLTAuNS0wLjI1LTAuNS0wLjUyYzAtMi42MywwLTQuOTcsMC03LjYgICAgIGMwLTAuNTIsMC4yNS0wLjUyLDAuNS0wLjUyYzEuMDEsMCwyLDAsMywwYzMuNzUsMCw3LjI1LDAsMTAuOTksMGM0Ljc1LDAsOS4yNSwwLDEzLjk5LDBjNCwwLDcuOTksMCwxMi4yMywwYzEuNSwwLDMuMjYsMCw1LDAgICAgIEM0Ni4wNCwyOC44Nyw0Ni4yOSwyOC44Nyw0Ni4yOSwyOS4zOXogTTYuMDcsMzMuMDVjMC0wLjc4LTAuNzUtMS41Ny0xLjUxLTEuNTdjLTAuNzMsMC0xLjQ5LDAuNzktMS40OSwxLjU3ICAgICBjMCwxLjA2LDAuNzYsMS41OCwxLjQ5LDEuNThDNS4zMiwzNC42Myw2LjA3LDM0LjExLDYuMDcsMzMuMDV6IE0zNy43OCwzMy4wNWMwLTAuMjUtMC4yMy0wLjc4LTAuNzQtMC43OCAgICAgYy0yNy43MywwLTI3LjczLDAtMjcuNzMsMGMtMC4yNSwwLTAuNzQsMC41My0wLjc0LDAuNzhjMCwwLjU0LDAuNDksMC43OSwwLjc0LDAuNzljMjcuNzMsMCwyNy43MywwLDI3LjczLDAgICAgIEMzNy41NSwzMy44NCwzNy43OCwzMy41OSwzNy43OCwzMy4wNXogTTQzLjI4LDMzLjA1YzAtMC43OC0wLjUtMS41Ny0xLjQ5LTEuNTdjLTAuNzUsMC0xLjUxLDAuNzktMS41MSwxLjU3ICAgICBjMCwxLjA2LDAuNzYsMS41OCwxLjUxLDEuNThDNDIuNzgsMzQuNjMsNDMuMjgsMzQuMTEsNDMuMjgsMzMuMDV6Ii8+JiN4YTsJCTwvZz4mI3hhOwk8L2c+JiN4YTs8L2c+JiN4YTs8L3N2Zz4=;fontColor=#FFFFFF;" vertex="1" parent="1">
          <mxGeometry x="1992.5" y="319.99999999999636" width="46" height="38" as="geometry" />
        </mxCell>
        <mxCell id="fT7zzyfTvzehRH6RShBd-82" value="管理服务器：CNLDNBU02" style="text;html=1;strokeColor=none;fillColor=none;align=center;verticalAlign=middle;whiteSpace=wrap;rounded=0;fontColor=#FFFFFF;" vertex="1" parent="1">
          <mxGeometry x="1940" y="40" width="150" height="30" as="geometry" />
        </mxCell>
        <mxCell id="fT7zzyfTvzehRH6RShBd-83" value="介质服务器" style="text;html=1;strokeColor=none;fillColor=none;align=center;verticalAlign=middle;whiteSpace=wrap;rounded=0;fontColor=#FFFFFF;" vertex="1" parent="1">
          <mxGeometry x="1940" y="364" width="150" height="30" as="geometry" />
        </mxCell>
        <mxCell id="fT7zzyfTvzehRH6RShBd-84" value="CNLDNBU05" style="text;html=1;strokeColor=none;fillColor=none;align=center;verticalAlign=middle;whiteSpace=wrap;rounded=0;fontColor=#FFFFFF;" vertex="1" parent="1">
          <mxGeometry x="2039" y="228" width="60" height="30" as="geometry" />
        </mxCell>
        <mxCell id="fT7zzyfTvzehRH6RShBd-85" value="NetBackup&lt;br&gt;5230" style="text;html=1;strokeColor=none;fillColor=none;align=center;verticalAlign=middle;whiteSpace=wrap;rounded=0;fontColor=#FFFFFF;" vertex="1" parent="1">
          <mxGeometry x="2039" y="326" width="60" height="30" as="geometry" />
        </mxCell>
        <mxCell id="fT7zzyfTvzehRH6RShBd-86" value="" style="whiteSpace=wrap;html=1;rounded=1;fillColor=#1ba1e2;fontColor=#ffffff;strokeColor=#006EAF;" vertex="1" parent="1">
          <mxGeometry x="2425" y="540" width="420" height="440" as="geometry" />
        </mxCell>
        <mxCell id="fT7zzyfTvzehRH6RShBd-87" value="" style="shape=image;verticalLabelPosition=bottom;labelBackgroundColor=#ffffff;verticalAlign=top;aspect=fixed;imageAspect=0;image=data:image/svg+xml,PHN2ZyB4bWxuczpjYz0iaHR0cDovL2NyZWF0aXZlY29tbW9ucy5vcmcvbnMjIiB4bWxuczpkYz0iaHR0cDovL3B1cmwub3JnL2RjL2VsZW1lbnRzLzEuMS8iIHhtbG5zOmlua3NjYXBlPSJodHRwOi8vd3d3Lmlua3NjYXBlLm9yZy9uYW1lc3BhY2VzL2lua3NjYXBlIiB4bWxuczpyZGY9Imh0dHA6Ly93d3cudzMub3JnLzE5OTkvMDIvMjItcmRmLXN5bnRheC1ucyMiIHhtbG5zOnNvZGlwb2RpPSJodHRwOi8vc29kaXBvZGkuc291cmNlZm9yZ2UubmV0L0RURC9zb2RpcG9kaS0wLmR0ZCIgeG1sbnM6c3ZnPSJodHRwOi8vd3d3LnczLm9yZy8yMDAwL3N2ZyIgeG1sbnM9Imh0dHA6Ly93d3cudzMub3JnLzIwMDAvc3ZnIiB4bWxuczp4bGluaz0iaHR0cDovL3d3dy53My5vcmcvMTk5OS94bGluayIgdmVyc2lvbj0iMS4xIiBpZD0ic3ZnODUyOTgiIGlua3NjYXBlOnZlcnNpb249IjAuOTIuMyAoMjQwNTU0NiwgMjAxOC0wMy0xMSkiIHNvZGlwb2RpOmRvY25hbWU9ImhvbWUuc3ZnIiB4PSIwcHgiIHk9IjBweCIgdmlld0JveD0iMCAwIDM1LjkgMzAuNTciIHN0eWxlPSJlbmFibGUtYmFja2dyb3VuZDpuZXcgMCAwIDM1LjkgMzAuNTc7IiB4bWw6c3BhY2U9InByZXNlcnZlIj4mI3hhOzxzb2RpcG9kaTpuYW1lZHZpZXcgYm9yZGVyY29sb3I9IiM2NjY2NjYiIGJvcmRlcm9wYWNpdHk9IjEiIGZpdC1tYXJnaW4tYm90dG9tPSIwIiBmaXQtbWFyZ2luLWxlZnQ9IjAiIGZpdC1tYXJnaW4tcmlnaHQ9IjAiIGZpdC1tYXJnaW4tdG9wPSIwIiBncmlkdG9sZXJhbmNlPSIxMCIgZ3VpZGV0b2xlcmFuY2U9IjEwIiBpZD0ibmFtZWR2aWV3ODUzMDAiIGlua3NjYXBlOmN1cnJlbnQtbGF5ZXI9InN2Zzg1Mjk4IiBpbmtzY2FwZTpjeD0iMjMuOTMzNjkyIiBpbmtzY2FwZTpjeT0iMjAuMzgxNTM5IiBpbmtzY2FwZTpwYWdlb3BhY2l0eT0iMCIgaW5rc2NhcGU6cGFnZXNoYWRvdz0iMiIgaW5rc2NhcGU6d2luZG93LWhlaWdodD0iMTAxNyIgaW5rc2NhcGU6d2luZG93LW1heGltaXplZD0iMSIgaW5rc2NhcGU6d2luZG93LXdpZHRoPSIxOTIwIiBpbmtzY2FwZTp3aW5kb3cteD0iLTgiIGlua3NjYXBlOndpbmRvdy15PSItOCIgaW5rc2NhcGU6em9vbT0iMjEuMjcyNDI0IiBvYmplY3R0b2xlcmFuY2U9IjEwIiBwYWdlY29sb3I9IiNmZmZmZmYiIHNob3dncmlkPSJmYWxzZSI+JiN4YTsJPC9zb2RpcG9kaTpuYW1lZHZpZXc+JiN4YTs8ZyBpZD0iZzg1Mjk2IiB0cmFuc2Zvcm09InRyYW5zbGF0ZSgwLjAwMTk2NDU5LC0xLjg1NzExOGUtNSkiPiYjeGE7CTx0aXRsZSBpZD0idGl0bGU4NTI4OSI+UGFnZS0xPC90aXRsZT4mI3hhOwk8ZyBpZD0ic2hhcGU0NjcwLTEiPiYjeGE7CQk8dGl0bGUgaWQ9InRpdGxlODUyOTEiPkhvbWU8L3RpdGxlPiYjeGE7CQk8cGF0aCBpZD0icGF0aDg1MjkzIiBpbmtzY2FwZTpjb25uZWN0b3ItY3VydmF0dXJlPSIwIiBzdHlsZT0iZmlsbDojM0Y1NzY1OyIgZD0iTTQuOTEsMTQuMTVoMjYuNjF2MTYuNDJoLTkuMzhWMTkuNjkgICAgYzAtMC43My0wLjU5LTEuMzItMS4zMS0xLjMySDE1LjZjLTAuNzIsMC0xLjMsMC41OS0xLjMsMS4zMnYxMC44OEg0LjkxVjE0LjE1eiBNMTguMjEsNi41MWwxMy4zMSw3LjY0SDQuOTFMMTguMjEsNi41MXogTTE4LjI0LDAgICAgbDcuMDQsNC4yOFYyLjQyaDUuMzJWNy41bDQuMzQsMi42NGMxLjMsMS45MiwxLjEyLDMuNDQsMC4zOCw1LjE2TDE4LjQ0LDUuMDRMMC41MiwxNS4yNmMtMC40My0wLjk5LTEuMTYtMi45MywwLjYtNS4xMkwxOC4yNCwweiIvPiYjeGE7CTwvZz4mI3hhOzwvZz4mI3hhOzwvc3ZnPg==;fontColor=#FFFFFF;" vertex="1" parent="1">
          <mxGeometry x="2495" y="620" width="46.45" height="40" as="geometry" />
        </mxCell>
        <mxCell id="fT7zzyfTvzehRH6RShBd-88" value="" style="rounded=0;whiteSpace=wrap;html=1;fontColor=#ffffff;fillColor=#647687;strokeColor=#314354;" vertex="1" parent="1">
          <mxGeometry x="2630.5" y="600" width="160" height="111.5" as="geometry" />
        </mxCell>
        <mxCell id="fT7zzyfTvzehRH6RShBd-89" value="" style="rounded=0;whiteSpace=wrap;html=1;fontColor=#ffffff;fillColor=#647687;strokeColor=#314354;" vertex="1" parent="1">
          <mxGeometry x="2615.5" y="760" width="190" height="200" as="geometry" />
        </mxCell>
        <mxCell id="fT7zzyfTvzehRH6RShBd-101" style="edgeStyle=orthogonalEdgeStyle;rounded=0;orthogonalLoop=1;jettySize=auto;html=1;fontColor=#FFFFFF;" edge="1" parent="1" source="fT7zzyfTvzehRH6RShBd-91" target="fT7zzyfTvzehRH6RShBd-95">
          <mxGeometry relative="1" as="geometry" />
        </mxCell>
        <mxCell id="fT7zzyfTvzehRH6RShBd-91" value="" style="shape=image;verticalLabelPosition=bottom;labelBackgroundColor=#ffffff;verticalAlign=top;aspect=fixed;imageAspect=0;image=data:image/svg+xml,PHN2ZyB4bWxuczpjYz0iaHR0cDovL2NyZWF0aXZlY29tbW9ucy5vcmcvbnMjIiB4bWxuczpkYz0iaHR0cDovL3B1cmwub3JnL2RjL2VsZW1lbnRzLzEuMS8iIHhtbG5zOmlua3NjYXBlPSJodHRwOi8vd3d3Lmlua3NjYXBlLm9yZy9uYW1lc3BhY2VzL2lua3NjYXBlIiB4bWxuczpyZGY9Imh0dHA6Ly93d3cudzMub3JnLzE5OTkvMDIvMjItcmRmLXN5bnRheC1ucyMiIHhtbG5zOnNvZGlwb2RpPSJodHRwOi8vc29kaXBvZGkuc291cmNlZm9yZ2UubmV0L0RURC9zb2RpcG9kaS0wLmR0ZCIgeG1sbnM6c3ZnPSJodHRwOi8vd3d3LnczLm9yZy8yMDAwL3N2ZyIgeG1sbnM9Imh0dHA6Ly93d3cudzMub3JnLzIwMDAvc3ZnIiB4bWxuczp4bGluaz0iaHR0cDovL3d3dy53My5vcmcvMTk5OS94bGluayIgdmVyc2lvbj0iMS4xIiBpZD0ic3ZnNzI0MSIgaW5rc2NhcGU6dmVyc2lvbj0iMC45Mi4zICgyNDA1NTQ2LCAyMDE4LTAzLTExKSIgc29kaXBvZGk6ZG9jbmFtZT0ic2VydmVyXzMuc3ZnIiB4PSIwcHgiIHk9IjBweCIgdmlld0JveD0iMCAwIDM2Ljc1IDYyLjc2IiBzdHlsZT0iZW5hYmxlLWJhY2tncm91bmQ6bmV3IDAgMCAzNi43NSA2Mi43NjsiIHhtbDpzcGFjZT0icHJlc2VydmUiPiYjeGE7PHNvZGlwb2RpOm5hbWVkdmlldyBib3JkZXJjb2xvcj0iIzY2NjY2NiIgYm9yZGVyb3BhY2l0eT0iMSIgZml0LW1hcmdpbi1ib3R0b209IjAiIGZpdC1tYXJnaW4tbGVmdD0iMCIgZml0LW1hcmdpbi1yaWdodD0iMCIgZml0LW1hcmdpbi10b3A9IjAiIGdyaWR0b2xlcmFuY2U9IjEwIiBndWlkZXRvbGVyYW5jZT0iMTAiIGlkPSJuYW1lZHZpZXc3MjQzIiBpbmtzY2FwZTpjdXJyZW50LWxheWVyPSJzdmc3MjQxIiBpbmtzY2FwZTpjeD0iMjQuNTAwMDE1IiBpbmtzY2FwZTpjeT0iNDEuODQxNjI2IiBpbmtzY2FwZTpwYWdlb3BhY2l0eT0iMCIgaW5rc2NhcGU6cGFnZXNoYWRvdz0iMiIgaW5rc2NhcGU6d2luZG93LWhlaWdodD0iMTAxNyIgaW5rc2NhcGU6d2luZG93LW1heGltaXplZD0iMSIgaW5rc2NhcGU6d2luZG93LXdpZHRoPSIxOTIwIiBpbmtzY2FwZTp3aW5kb3cteD0iLTgiIGlua3NjYXBlOndpbmRvdy15PSItOCIgaW5rc2NhcGU6em9vbT0iMTAuMzYxMjg3IiBvYmplY3R0b2xlcmFuY2U9IjEwIiBwYWdlY29sb3I9IiNmZmZmZmYiIHNob3dncmlkPSJmYWxzZSI+JiN4YTsJPC9zb2RpcG9kaTpuYW1lZHZpZXc+JiN4YTs8ZyBpZD0iZzcyMzkiPiYjeGE7CTx0aXRsZSBpZD0idGl0bGU3MTk5Ij5QYWdlLTE8L3RpdGxlPiYjeGE7CTxnIGlkPSJncm91cDc2NDUtMSI+JiN4YTsJCTx0aXRsZSBpZD0idGl0bGU3MjAxIj5TZXJ2ZXIgIzM8L3RpdGxlPiYjeGE7CQk8ZyBpZD0ic2hhcGU3NjQ2LTIiPiYjeGE7CQkJPHRpdGxlIGlkPSJ0aXRsZTcyMDMiPlNoZWV0Ljc2NDY8L3RpdGxlPiYjeGE7CQkJPHBhdGggaWQ9InBhdGg3MjA1IiBpbmtzY2FwZTpjb25uZWN0b3ItY3VydmF0dXJlPSIwIiBzdHlsZT0iZmlsbDojM0UzRTNFOyIgZD0iTTAsMi4xMkMwLDAuOTUsMC45NSwwLDIuMTIsMGgzMi41MyAgICAgYzEuMTcsMCwyLjEsMC45NSwyLjEsMi4xMnY1OC41M2MwLDEuMTctMC45MywyLjExLTIuMSwyLjExSDIuMTJDMC45NSw2Mi43NiwwLDYxLjgyLDAsNjAuNjVWMi4xMnoiLz4mI3hhOwkJPC9nPiYjeGE7CQk8ZyBpZD0ic2hhcGU3NjQ3LTQiIHRyYW5zZm9ybT0idHJhbnNsYXRlKDUuNjA1OTMsLTQ5LjI1MDIpIj4mI3hhOwkJCTx0aXRsZSBpZD0idGl0bGU3MjA4Ij5TaGVldC43NjQ3PC90aXRsZT4mI3hhOwkJCTxwYXRoIGlkPSJwYXRoNzIxMCIgaW5rc2NhcGU6Y29ubmVjdG9yLWN1cnZhdHVyZT0iMCIgc3R5bGU9ImZpbGw6IzFFMUUxRTsiIGQ9Ik0yLjE4LDU1LjljMCwwLTIuMTgsMC0yLjE4LDMuMTIgICAgIGMwLDAuNjcsMCwwLjY3LDAsMC42N3MwLDMuMDcsMi4xOCwzLjA3YzIxLjIyLDAsMjEuMjIsMCwyMS4yMiwwczIuMTQsMCwyLjE0LTMuMDdjMC0wLjY3LDAtMC42NywwLTAuNjdzMC0zLjEyLTIuMTQtMy4xMiAgICAgYy05Ljg1LDAtOS44NSwwLTkuODUsMEgyLjE4eiIvPiYjeGE7CQk8L2c+JiN4YTsJCTxnIGlkPSJzaGFwZTc2NDgtNiIgdHJhbnNmb3JtPSJ0cmFuc2xhdGUoNi4yMjg4MSwtNDkuNDU4KSI+JiN4YTsJCQk8dGl0bGUgaWQ9InRpdGxlNzIxMyI+U2hlZXQuNzY0ODwvdGl0bGU+JiN4YTsJCQk8cGF0aCBpZD0icGF0aDcyMTUiIGlua3NjYXBlOmNvbm5lY3Rvci1jdXJ2YXR1cmU9IjAiIHN0eWxlPSJmaWxsOiNCOEQ0MzI7IiBkPSJNMCw1OS41MWMwLTEuNywxLjQ0LTMuMTksMy4xNS0zLjE5ICAgICBjMS43MiwwLDMuMDgsMS40OSwzLjA4LDMuMTljMCwxLjgzLTEuMzYsMy4yNS0zLjA4LDMuMjVDMS40NCw2Mi43NiwwLDYxLjM0LDAsNTkuNTF6Ii8+JiN4YTsJCTwvZz4mI3hhOwkJPGcgaWQ9InNoYXBlNzY0OS04IiB0cmFuc2Zvcm09InRyYW5zbGF0ZSg1LjYwNTkzLC0zNy42MTMpIj4mI3hhOwkJCTx0aXRsZSBpZD0idGl0bGU3MjE4Ij5TaGVldC43NjQ5PC90aXRsZT4mI3hhOwkJCTxwYXRoIGlkPSJwYXRoNzIyMCIgaW5rc2NhcGU6Y29ubmVjdG9yLWN1cnZhdHVyZT0iMCIgc3R5bGU9ImZpbGw6IzFFMUUxRTsiIGQ9Ik0yLjE4LDU1LjljMCwwLTIuMTgsMC0yLjE4LDMuMTIgICAgIGMwLDAuNjcsMCwwLjY3LDAsMC42N3MwLDMuMDcsMi4xOCwzLjA3YzIxLjIyLDAsMjEuMjIsMCwyMS4yMiwwczIuMTQsMCwyLjE0LTMuMDdjMC0wLjY3LDAtMC42NywwLTAuNjdzMC0zLjEyLTIuMTQtMy4xMiAgICAgYy05Ljg1LDAtOS44NSwwLTkuODUsMEgyLjE4eiIvPiYjeGE7CQk8L2c+JiN4YTsJCTxnIGlkPSJzaGFwZTc2NTAtMTAiIHRyYW5zZm9ybT0idHJhbnNsYXRlKDYuMjI4ODEsLTM3LjgyMDgpIj4mI3hhOwkJCTx0aXRsZSBpZD0idGl0bGU3MjIzIj5TaGVldC43NjUwPC90aXRsZT4mI3hhOwkJCTxwYXRoIGlkPSJwYXRoNzIyNSIgaW5rc2NhcGU6Y29ubmVjdG9yLWN1cnZhdHVyZT0iMCIgc3R5bGU9ImZpbGw6I0I4RDQzMjsiIGQ9Ik0wLDU5LjUxYzAtMS43LDEuNDQtMy4xOSwzLjE1LTMuMTkgICAgIGMxLjcyLDAsMy4wOCwxLjQ5LDMuMDgsMy4xOWMwLDEuODMtMS4zNiwzLjI1LTMuMDgsMy4yNUMxLjQ0LDYyLjc2LDAsNjEuMzQsMCw1OS41MXoiLz4mI3hhOwkJPC9nPiYjeGE7CQk8ZyBpZD0ic2hhcGU3NjUxLTEyIiB0cmFuc2Zvcm09InRyYW5zbGF0ZSg1LjYwNTkzLC0yNS45NzU4KSI+JiN4YTsJCQk8dGl0bGUgaWQ9InRpdGxlNzIyOCI+U2hlZXQuNzY1MTwvdGl0bGU+JiN4YTsJCQk8cGF0aCBpZD0icGF0aDcyMzAiIGlua3NjYXBlOmNvbm5lY3Rvci1jdXJ2YXR1cmU9IjAiIHN0eWxlPSJmaWxsOiMxRTFFMUU7IiBkPSJNMi4xOCw1NS42OWMwLDAtMi4xOCwwLTIuMTgsMy4yMSAgICAgYzAsMC43LDAsMC43LDAsMC43czAsMy4xNiwyLjE4LDMuMTZjMjEuMjIsMCwyMS4yMiwwLDIxLjIyLDBzMi4xNCwwLDIuMTQtMy4xNmMwLTAuNywwLTAuNywwLTAuN3MwLTMuMjEtMi4xNC0zLjIxICAgICBjLTkuODUsMC05Ljg1LDAtOS44NSwwSDIuMTh6Ii8+JiN4YTsJCTwvZz4mI3hhOwkJPGcgaWQ9InNoYXBlNzY1Mi0xNCIgdHJhbnNmb3JtPSJ0cmFuc2xhdGUoNi4yMjg4MSwtMjYuMTgzNikiPiYjeGE7CQkJPHRpdGxlIGlkPSJ0aXRsZTcyMzMiPlNoZWV0Ljc2NTI8L3RpdGxlPiYjeGE7CQkJPHBhdGggaWQ9InBhdGg3MjM1IiBpbmtzY2FwZTpjb25uZWN0b3ItY3VydmF0dXJlPSIwIiBzdHlsZT0iZmlsbDojQjhENDMyOyIgZD0iTTAsNTkuNTFjMC0xLjcsMS40NC0zLjE5LDMuMTUtMy4xOSAgICAgYzEuNzIsMCwzLjA4LDEuNDksMy4wOCwzLjE5YzAsMS44My0xLjM2LDMuMjUtMy4wOCwzLjI1QzEuNDQsNjIuNzYsMCw2MS4zNCwwLDU5LjUxeiIvPiYjeGE7CQk8L2c+JiN4YTsJPC9nPiYjeGE7PC9nPiYjeGE7PC9zdmc+;fontColor=#FFFFFF;" vertex="1" parent="1">
          <mxGeometry x="2692" y="780" width="37" height="63" as="geometry" />
        </mxCell>
        <mxCell id="fT7zzyfTvzehRH6RShBd-92" value="CNQDNBU02" style="text;html=1;strokeColor=none;fillColor=none;align=center;verticalAlign=middle;whiteSpace=wrap;rounded=0;fontColor=#FFFFFF;" vertex="1" parent="1">
          <mxGeometry x="2734" y="796" width="66" height="30" as="geometry" />
        </mxCell>
        <mxCell id="fT7zzyfTvzehRH6RShBd-93" value="NetBackup&lt;br&gt;5220" style="text;html=1;strokeColor=none;fillColor=none;align=center;verticalAlign=middle;whiteSpace=wrap;rounded=0;fontColor=#FFFFFF;" vertex="1" parent="1">
          <mxGeometry x="2734" y="896" width="60" height="30" as="geometry" />
        </mxCell>
        <mxCell id="fT7zzyfTvzehRH6RShBd-94" value="管理服务器：CNQDNBU01" style="text;html=1;strokeColor=none;fillColor=none;align=center;verticalAlign=middle;whiteSpace=wrap;rounded=0;fontColor=#FFFFFF;" vertex="1" parent="1">
          <mxGeometry x="2635" y="610" width="150" height="30" as="geometry" />
        </mxCell>
        <mxCell id="fT7zzyfTvzehRH6RShBd-95" value="" style="shape=image;verticalLabelPosition=bottom;labelBackgroundColor=#ffffff;verticalAlign=top;aspect=fixed;imageAspect=0;image=data:image/svg+xml,PHN2ZyB4bWxuczpjYz0iaHR0cDovL2NyZWF0aXZlY29tbW9ucy5vcmcvbnMjIiB4bWxuczpkYz0iaHR0cDovL3B1cmwub3JnL2RjL2VsZW1lbnRzLzEuMS8iIHhtbG5zOmlua3NjYXBlPSJodHRwOi8vd3d3Lmlua3NjYXBlLm9yZy9uYW1lc3BhY2VzL2lua3NjYXBlIiB4bWxuczpyZGY9Imh0dHA6Ly93d3cudzMub3JnLzE5OTkvMDIvMjItcmRmLXN5bnRheC1ucyMiIHhtbG5zOnNvZGlwb2RpPSJodHRwOi8vc29kaXBvZGkuc291cmNlZm9yZ2UubmV0L0RURC9zb2RpcG9kaS0wLmR0ZCIgeG1sbnM6c3ZnPSJodHRwOi8vd3d3LnczLm9yZy8yMDAwL3N2ZyIgeG1sbnM9Imh0dHA6Ly93d3cudzMub3JnLzIwMDAvc3ZnIiB4bWxuczp4bGluaz0iaHR0cDovL3d3dy53My5vcmcvMTk5OS94bGluayIgdmVyc2lvbj0iMS4xIiBpZD0ic3ZnMjMxMCIgaW5rc2NhcGU6dmVyc2lvbj0iMC45Mi4zICgyNDA1NTQ2LCAyMDE4LTAzLTExKSIgc29kaXBvZGk6ZG9jbmFtZT0ic3RvcmFnZV8xLnN2ZyIgeD0iMHB4IiB5PSIwcHgiIHZpZXdCb3g9IjAgMCA0Ni4zNSAzNy41MSIgc3R5bGU9ImVuYWJsZS1iYWNrZ3JvdW5kOm5ldyAwIDAgNDYuMzUgMzcuNTE7IiB4bWw6c3BhY2U9InByZXNlcnZlIj4mI3hhOzxzb2RpcG9kaTpuYW1lZHZpZXcgYm9yZGVyY29sb3I9IiM2NjY2NjYiIGJvcmRlcm9wYWNpdHk9IjEiIGZpdC1tYXJnaW4tYm90dG9tPSIwIiBmaXQtbWFyZ2luLWxlZnQ9IjAiIGZpdC1tYXJnaW4tcmlnaHQ9IjAiIGZpdC1tYXJnaW4tdG9wPSIwIiBncmlkdG9sZXJhbmNlPSIxMCIgZ3VpZGV0b2xlcmFuY2U9IjEwIiBpZD0ibmFtZWR2aWV3MjMxMiIgaW5rc2NhcGU6Y3VycmVudC1sYXllcj0ic3ZnMjMxMCIgaW5rc2NhcGU6Y3g9IjMwLjg3NTEzOCIgaW5rc2NhcGU6Y3k9IjI1LjAwODQzMSIgaW5rc2NhcGU6cGFnZW9wYWNpdHk9IjAiIGlua3NjYXBlOnBhZ2VzaGFkb3c9IjIiIGlua3NjYXBlOndpbmRvdy1oZWlnaHQ9IjEwMTciIGlua3NjYXBlOndpbmRvdy1tYXhpbWl6ZWQ9IjEiIGlua3NjYXBlOndpbmRvdy13aWR0aD0iMTkyMCIgaW5rc2NhcGU6d2luZG93LXg9Ii04IiBpbmtzY2FwZTp3aW5kb3cteT0iLTgiIGlua3NjYXBlOnpvb209IjE3LjMzNjY1IiBvYmplY3R0b2xlcmFuY2U9IjEwIiBwYWdlY29sb3I9IiNmZmZmZmYiIHNob3dncmlkPSJmYWxzZSI+JiN4YTsJPC9zb2RpcG9kaTpuYW1lZHZpZXc+JiN4YTs8ZyBpZD0iZzIzMDgiIHRyYW5zZm9ybT0idHJhbnNsYXRlKC0wLjAwMTkwNTU2KSI+JiN4YTsJPHRpdGxlIGlkPSJ0aXRsZTIyOTgiPlBhZ2UtMTwvdGl0bGU+JiN4YTsJPGcgaWQ9Imdyb3VwOTYzNy0xIj4mI3hhOwkJPHRpdGxlIGlkPSJ0aXRsZTIzMDAiPlN0b3JhZ2UgIzE8L3RpdGxlPiYjeGE7CQk8ZyBpZD0ic2hhcGU5NjM4LTIiPiYjeGE7CQkJPHRpdGxlIGlkPSJ0aXRsZTIzMDIiPlNoZWV0Ljk2Mzg8L3RpdGxlPiYjeGE7CQkJPHBhdGggaWQ9InBhdGgyMzA0IiBpbmtzY2FwZTpjb25uZWN0b3ItY3VydmF0dXJlPSIwIiBzdHlsZT0iZmlsbDojM0Y1NzY1OyIgZD0iTTAuMDcsMjYuNzZjMC41LTEuNTgsMS4wMS0zLjE1LDEuMjYtNC43MiAgICAgYzEuMjQtNC43MywyLjUtOS4xOCwzLjc0LTEzLjYzYzAuNzUtMi42MywxLjI2LTUuMjYsMS45OS04LjE0QzcuMzIsMCw3LjU3LDAsNy41NywwYzAuNSwwLDAuNzUsMCwxLjI0LDBjNC4yNiwwLDguNSwwLDEyLjUsMCAgICAgYzIuMjUsMCw0Ljc0LDAsNi45OSwwYzMuNDksMCw3LDAsMTAuNDksMGMwLjI1LDAsMC4yNSwwLDAuMjUsMGMwLjI1LDAsMC4yNSwwLjI3LDAuMjUsMC4yN2MwLjI1LDEuODQsMC43NCwzLjQxLDEuMjQsNC45OSAgICAgYzEuMjYsNC43MiwyLjUsOS4xNywzLjc0LDEzLjYzYzAuNzYsMi44OSwxLjI2LDUuMjYsMi4wMiw3Ljg3YzAuMjMsMC41My0wLjI1LDAuNzgtMC41MSwwLjc4Yy0xLjc0LDAtMy41LDAtNS4yNSwwICAgICBjLTQuNDksMC05LjI0LDAtMTMuNDksMGMtMS45OSwwLTMuNDgsMC01LjIzLDBjLTQuMjYsMC04LjUxLDAtMTIuNSwwYy0yLjk4LDAtNS45OSwwLTguNzQsMEMwLjMyLDI3LjU0LTAuMTgsMjcuMjksMC4wNywyNi43NnogICAgICBNNDYuMjksMjkuMzljMCwyLjYzLDAsNC45NywwLDcuNnYwLjI3Yy0wLjI1LDAuMjUtMC4yNSwwLjI1LTAuNTEsMC4yNWMtMSwwLTEuOTksMC0zLDBjLTMuNDksMC03LjI1LDAtMTAuOTksMCAgICAgYy00Ljc1LDAtOS4yNCwwLTEzLjk5LDBjLTMuOTksMC03Ljk4LDAtMTEuOTgsMGMtMS43NCwwLTMuNSwwLTUuMjUsMGMtMC4yNSwwLTAuNS0wLjI1LTAuNS0wLjUyYzAtMi42MywwLTQuOTcsMC03LjYgICAgIGMwLTAuNTIsMC4yNS0wLjUyLDAuNS0wLjUyYzEuMDEsMCwyLDAsMywwYzMuNzUsMCw3LjI1LDAsMTAuOTksMGM0Ljc1LDAsOS4yNSwwLDEzLjk5LDBjNCwwLDcuOTksMCwxMi4yMywwYzEuNSwwLDMuMjYsMCw1LDAgICAgIEM0Ni4wNCwyOC44Nyw0Ni4yOSwyOC44Nyw0Ni4yOSwyOS4zOXogTTYuMDcsMzMuMDVjMC0wLjc4LTAuNzUtMS41Ny0xLjUxLTEuNTdjLTAuNzMsMC0xLjQ5LDAuNzktMS40OSwxLjU3ICAgICBjMCwxLjA2LDAuNzYsMS41OCwxLjQ5LDEuNThDNS4zMiwzNC42Myw2LjA3LDM0LjExLDYuMDcsMzMuMDV6IE0zNy43OCwzMy4wNWMwLTAuMjUtMC4yMy0wLjc4LTAuNzQtMC43OCAgICAgYy0yNy43MywwLTI3LjczLDAtMjcuNzMsMGMtMC4yNSwwLTAuNzQsMC41My0wLjc0LDAuNzhjMCwwLjU0LDAuNDksMC43OSwwLjc0LDAuNzljMjcuNzMsMCwyNy43MywwLDI3LjczLDAgICAgIEMzNy41NSwzMy44NCwzNy43OCwzMy41OSwzNy43OCwzMy4wNXogTTQzLjI4LDMzLjA1YzAtMC43OC0wLjUtMS41Ny0xLjQ5LTEuNTdjLTAuNzUsMC0xLjUxLDAuNzktMS41MSwxLjU3ICAgICBjMCwxLjA2LDAuNzYsMS41OCwxLjUxLDEuNThDNDIuNzgsMzQuNjMsNDMuMjgsMzQuMTEsNDMuMjgsMzMuMDV6Ii8+JiN4YTsJCTwvZz4mI3hhOwk8L2c+JiN4YTs8L2c+JiN4YTs8L3N2Zz4=;fontColor=#FFFFFF;" vertex="1" parent="1">
          <mxGeometry x="2687.5" y="889.9999999999964" width="46" height="38" as="geometry" />
        </mxCell>
        <mxCell id="fT7zzyfTvzehRH6RShBd-96" value="介质服务器" style="text;html=1;strokeColor=none;fillColor=none;align=center;verticalAlign=middle;whiteSpace=wrap;rounded=0;fontColor=#FFFFFF;" vertex="1" parent="1">
          <mxGeometry x="2635" y="934" width="150" height="30" as="geometry" />
        </mxCell>
        <mxCell id="fT7zzyfTvzehRH6RShBd-97" value="&lt;h1&gt;青岛备份系统&lt;/h1&gt;&lt;p&gt;Lorem ipsum dolor sit amet, consectetur adipisicing elit, sed do eiusmod tempor incididunt ut labore et dolore magna aliqua.&lt;/p&gt;" style="text;html=1;strokeColor=none;fillColor=none;spacing=5;spacingTop=-20;whiteSpace=wrap;overflow=hidden;rounded=0;fontColor=#FFFFFF;" vertex="1" parent="1">
          <mxGeometry x="2435" y="691.5" width="160" height="170" as="geometry" />
        </mxCell>
        <mxCell id="fT7zzyfTvzehRH6RShBd-100" style="edgeStyle=orthogonalEdgeStyle;rounded=0;orthogonalLoop=1;jettySize=auto;html=1;entryX=0.5;entryY=0;entryDx=0;entryDy=0;fontColor=#FFFFFF;" edge="1" parent="1" source="fT7zzyfTvzehRH6RShBd-99" target="fT7zzyfTvzehRH6RShBd-91">
          <mxGeometry relative="1" as="geometry" />
        </mxCell>
        <mxCell id="fT7zzyfTvzehRH6RShBd-99" value="" style="shape=image;verticalLabelPosition=bottom;labelBackgroundColor=#ffffff;verticalAlign=top;aspect=fixed;imageAspect=0;image=data:image/svg+xml,PHN2ZyB4bWxuczpjYz0iaHR0cDovL2NyZWF0aXZlY29tbW9ucy5vcmcvbnMjIiB4bWxuczpkYz0iaHR0cDovL3B1cmwub3JnL2RjL2VsZW1lbnRzLzEuMS8iIHhtbG5zOmlua3NjYXBlPSJodHRwOi8vd3d3Lmlua3NjYXBlLm9yZy9uYW1lc3BhY2VzL2lua3NjYXBlIiB4bWxuczpyZGY9Imh0dHA6Ly93d3cudzMub3JnLzE5OTkvMDIvMjItcmRmLXN5bnRheC1ucyMiIHhtbG5zOnNvZGlwb2RpPSJodHRwOi8vc29kaXBvZGkuc291cmNlZm9yZ2UubmV0L0RURC9zb2RpcG9kaS0wLmR0ZCIgeG1sbnM6c3ZnPSJodHRwOi8vd3d3LnczLm9yZy8yMDAwL3N2ZyIgeG1sbnM9Imh0dHA6Ly93d3cudzMub3JnLzIwMDAvc3ZnIiB4bWxuczp4bGluaz0iaHR0cDovL3d3dy53My5vcmcvMTk5OS94bGluayIgdmVyc2lvbj0iMS4xIiBpZD0ic3ZnNjUxNSIgaW5rc2NhcGU6dmVyc2lvbj0iMC45Mi4zICgyNDA1NTQ2LCAyMDE4LTAzLTExKSIgc29kaXBvZGk6ZG9jbmFtZT0ic2VydmVyXzIuc3ZnIiB4PSIwcHgiIHk9IjBweCIgdmlld0JveD0iMCAwIDMxLjgzIDU5Ljg1IiBzdHlsZT0iZW5hYmxlLWJhY2tncm91bmQ6bmV3IDAgMCAzMS44MyA1OS44NTsiIHhtbDpzcGFjZT0icHJlc2VydmUiPiYjeGE7PHNvZGlwb2RpOm5hbWVkdmlldyBib3JkZXJjb2xvcj0iIzY2NjY2NiIgYm9yZGVyb3BhY2l0eT0iMSIgZml0LW1hcmdpbi1ib3R0b209IjAiIGZpdC1tYXJnaW4tbGVmdD0iMCIgZml0LW1hcmdpbi1yaWdodD0iMCIgZml0LW1hcmdpbi10b3A9IjAiIGdyaWR0b2xlcmFuY2U9IjEwIiBndWlkZXRvbGVyYW5jZT0iMTAiIGlkPSJuYW1lZHZpZXc2NTE3IiBpbmtzY2FwZTpjdXJyZW50LWxheWVyPSJzdmc2NTE1IiBpbmtzY2FwZTpjeD0iMjEuMjIyNDA5IiBpbmtzY2FwZTpjeT0iMzkuODk4OTE5IiBpbmtzY2FwZTpwYWdlb3BhY2l0eT0iMCIgaW5rc2NhcGU6cGFnZXNoYWRvdz0iMiIgaW5rc2NhcGU6d2luZG93LWhlaWdodD0iMTAxNyIgaW5rc2NhcGU6d2luZG93LW1heGltaXplZD0iMSIgaW5rc2NhcGU6d2luZG93LXdpZHRoPSIxOTIwIiBpbmtzY2FwZTp3aW5kb3cteD0iLTgiIGlua3NjYXBlOndpbmRvdy15PSItOCIgaW5rc2NhcGU6em9vbT0iMTAuODY0Mzc0IiBvYmplY3R0b2xlcmFuY2U9IjEwIiBwYWdlY29sb3I9IiNmZmZmZmYiIHNob3dncmlkPSJmYWxzZSI+JiN4YTsJPC9zb2RpcG9kaTpuYW1lZHZpZXc+JiN4YTs8ZyBpZD0iZzY1MTMiIHRyYW5zZm9ybT0idHJhbnNsYXRlKDAuMDA0MzM4OSkiPiYjeGE7CTx0aXRsZSBpZD0idGl0bGU2NDQ4Ij5QYWdlLTE8L3RpdGxlPiYjeGE7CTxnIGlkPSJncm91cDc2MzItMSIgdHJhbnNmb3JtPSJ0cmFuc2xhdGUoMC4zMDYyMTYpIj4mI3hhOwkJPHRpdGxlIGlkPSJ0aXRsZTY0NTAiPlNlcnZlciAjMjwvdGl0bGU+JiN4YTsJCTxnIGlkPSJzaGFwZTc2MzMtMiIgdHJhbnNmb3JtPSJ0cmFuc2xhdGUoMC4wOTUyMjI3KSI+JiN4YTsJCQk8dGl0bGUgaWQ9InRpdGxlNjQ1MiI+U2hlZXQuNzYzMzwvdGl0bGU+JiN4YTsJCQk8cGF0aCBpZD0icGF0aDY0NTQiIGlua3NjYXBlOmNvbm5lY3Rvci1jdXJ2YXR1cmU9IjAiIHN0eWxlPSJmaWxsOiMzRjU3NjU7IiBkPSJNMzEuMjMsNTguNGMwLDAuODMtMC42MiwxLjQ1LTEuMjUsMS40NSAgICAgYy0yOC43MiwwLTI4LjcyLDAtMjguNzIsMEMwLjYzLDU5Ljg1LDAsNTkuMjMsMCw1OC40QzAsMS40NywwLDEuNDcsMCwxLjQ3QzAsMC42MywwLjYzLDAsMS4yNiwwYzI4LjcyLDAsMjguNzIsMCwyOC43MiwwICAgICBjMC42MywwLDEuMjUsMC42MywxLjI1LDEuNDdWNTguNHoiLz4mI3hhOwkJPC9nPiYjeGE7CQk8ZyBpZD0ic2hhcGU3NjM0LTQiIHRyYW5zZm9ybT0idHJhbnNsYXRlKDAsLTUzLjA4NDkpIj4mI3hhOwkJCTx0aXRsZSBpZD0idGl0bGU2NDU3Ij5TaGVldC43NjM0PC90aXRsZT4mI3hhOwkJCSYjeGE7CQkJCTxwYXRoIGlkPSJwYXRoNjQ1OSIgaW5rc2NhcGU6Y29ubmVjdG9yLWN1cnZhdHVyZT0iMCIgc3R5bGU9ImZpbGw6bm9uZTtzdHJva2U6IzAwMDAwMDtzdHJva2Utd2lkdGg6MC42MTI0O3N0cm9rZS1saW5lY2FwOnJvdW5kO3N0cm9rZS1saW5lam9pbjpyb3VuZDtzdHJva2UtbWl0ZXJsaW1pdDozOyIgZD0iICAgICBNMCw1OS44NWgyOC4zOCIvPiYjeGE7CQk8L2c+JiN4YTsJCTxnIGlkPSJzaGFwZTc2MzUtNyIgdHJhbnNmb3JtPSJ0cmFuc2xhdGUoMTYuNDczNSwtNTIuMDM2NikiPiYjeGE7CQkJPHRpdGxlIGlkPSJ0aXRsZTY0NjIiPlNoZWV0Ljc2MzU8L3RpdGxlPiYjeGE7CQkJPHBhdGggaWQ9InBhdGg2NDY0IiBpbmtzY2FwZTpjb25uZWN0b3ItY3VydmF0dXJlPSIwIiBzdHlsZT0iZmlsbDojMDBCQ0YyOyIgZD0iTTE1LjA1LDU3Ljc1Yy0xNCwwLTE0LDAtMTQsMCAgICAgQzAuNDMsNTcuNzUsMCw1OC4xOCwwLDU4LjhjMCwwLjQzLDAuNDMsMS4wNSwxLjA1LDEuMDVjMTQsMCwxNCwwLDE0LDBWNTcuNzV6Ii8+JiN4YTsJCTwvZz4mI3hhOwkJPGcgaWQ9InNoYXBlNzYzNi05IiB0cmFuc2Zvcm09InRyYW5zbGF0ZSgwLC00Ni4yMjMpIj4mI3hhOwkJCTx0aXRsZSBpZD0idGl0bGU2NDY3Ij5TaGVldC43NjM2PC90aXRsZT4mI3hhOwkJCSYjeGE7CQkJCTxwYXRoIGlkPSJwYXRoNjQ2OSIgaW5rc2NhcGU6Y29ubmVjdG9yLWN1cnZhdHVyZT0iMCIgc3R5bGU9ImZpbGw6bm9uZTtzdHJva2U6IzAwMDAwMDtzdHJva2Utd2lkdGg6MC42MTI0O3N0cm9rZS1saW5lY2FwOnJvdW5kO3N0cm9rZS1saW5lam9pbjpyb3VuZDtzdHJva2UtbWl0ZXJsaW1pdDozOyIgZD0iICAgICBNMCw1OS44NWgyOC4zOCIvPiYjeGE7CQk8L2c+JiN4YTsJCTxnIGlkPSJzaGFwZTc2MzctMTIiIHRyYW5zZm9ybT0idHJhbnNsYXRlKDE2LjQ3MzUsLTQ1LjE3NDYpIj4mI3hhOwkJCTx0aXRsZSBpZD0idGl0bGU2NDcyIj5TaGVldC43NjM3PC90aXRsZT4mI3hhOwkJCTxwYXRoIGlkPSJwYXRoNjQ3NCIgaW5rc2NhcGU6Y29ubmVjdG9yLWN1cnZhdHVyZT0iMCIgc3R5bGU9ImZpbGw6IzAwQkNGMjsiIGQ9Ik0xNS4wNSw1Ny41NmMtMTQsMC0xNCwwLTE0LDAgICAgIEMwLjQzLDU3LjU2LDAsNTguMDMsMCw1OC43MWMwLDAuNjksMC40MywxLjE0LDEuMDUsMS4xNGMxNCwwLDE0LDAsMTQsMFY1Ny41NnoiLz4mI3hhOwkJPC9nPiYjeGE7CQk8ZyBpZD0ic2hhcGU3NjM4LTE0IiB0cmFuc2Zvcm09InRyYW5zbGF0ZSgwLC0zOS4zNjEpIj4mI3hhOwkJCTx0aXRsZSBpZD0idGl0bGU2NDc3Ij5TaGVldC43NjM4PC90aXRsZT4mI3hhOwkJCSYjeGE7CQkJCTxwYXRoIGlkPSJwYXRoNjQ3OSIgaW5rc2NhcGU6Y29ubmVjdG9yLWN1cnZhdHVyZT0iMCIgc3R5bGU9ImZpbGw6bm9uZTtzdHJva2U6IzAwMDAwMDtzdHJva2Utd2lkdGg6MC42MTI0O3N0cm9rZS1saW5lY2FwOnJvdW5kO3N0cm9rZS1saW5lam9pbjpyb3VuZDtzdHJva2UtbWl0ZXJsaW1pdDozOyIgZD0iICAgICBNMCw1OS44NWgyOC4zOCIvPiYjeGE7CQk8L2c+JiN4YTsJCTxnIGlkPSJzaGFwZTc2MzktMTciIHRyYW5zZm9ybT0idHJhbnNsYXRlKDE2LjQ3MzUsLTM4LjMxMjYpIj4mI3hhOwkJCTx0aXRsZSBpZD0idGl0bGU2NDgyIj5TaGVldC43NjM5PC90aXRsZT4mI3hhOwkJCTxwYXRoIGlkPSJwYXRoNjQ4NCIgaW5rc2NhcGU6Y29ubmVjdG9yLWN1cnZhdHVyZT0iMCIgc3R5bGU9ImZpbGw6IzAwQkNGMjsiIGQ9Ik0xNS4wNSw1Ny43NWMtMTQsMC0xNCwwLTE0LDAgICAgIEMwLjQzLDU3Ljc1LDAsNTguMTgsMCw1OC44YzAsMC42MywwLjQzLDEuMDUsMS4wNSwxLjA1YzE0LDAsMTQsMCwxNCwwVjU3Ljc1eiIvPiYjeGE7CQk8L2c+JiN4YTsJCTxnIGlkPSJzaGFwZTc2NDAtMTkiIHRyYW5zZm9ybT0idHJhbnNsYXRlKDAsLTMyLjQ5OSkiPiYjeGE7CQkJPHRpdGxlIGlkPSJ0aXRsZTY0ODciPlNoZWV0Ljc2NDA8L3RpdGxlPiYjeGE7CQkJJiN4YTsJCQkJPHBhdGggaWQ9InBhdGg2NDg5IiBpbmtzY2FwZTpjb25uZWN0b3ItY3VydmF0dXJlPSIwIiBzdHlsZT0iZmlsbDpub25lO3N0cm9rZTojMDAwMDAwO3N0cm9rZS13aWR0aDowLjYxMjQ7c3Ryb2tlLWxpbmVjYXA6cm91bmQ7c3Ryb2tlLWxpbmVqb2luOnJvdW5kO3N0cm9rZS1taXRlcmxpbWl0OjM7IiBkPSIgICAgIE0wLDU5Ljg1aDI4LjM4Ii8+JiN4YTsJCTwvZz4mI3hhOwkJPGcgaWQ9InNoYXBlNzY0MS0yMiIgdHJhbnNmb3JtPSJ0cmFuc2xhdGUoMTYuNDczNSwtMzEuNDUwNykiPiYjeGE7CQkJPHRpdGxlIGlkPSJ0aXRsZTY0OTIiPlNoZWV0Ljc2NDE8L3RpdGxlPiYjeGE7CQkJPHBhdGggaWQ9InBhdGg2NDk0IiBpbmtzY2FwZTpjb25uZWN0b3ItY3VydmF0dXJlPSIwIiBzdHlsZT0iZmlsbDojMDBCQ0YyOyIgZD0iTTE1LjA1LDU3Ljc1Yy0xNCwwLTE0LDAtMTQsMCAgICAgQzAuNDMsNTcuNzUsMCw1OC4zOSwwLDU4LjhjMCwwLjYzLDAuNDMsMS4wNSwxLjA1LDEuMDVjMTQsMCwxNCwwLDE0LDBWNTcuNzV6Ii8+JiN4YTsJCTwvZz4mI3hhOwkJPGcgaWQ9InNoYXBlNzY0Mi0yNCIgdHJhbnNmb3JtPSJ0cmFuc2xhdGUoMTMuOTk3NywtOS45MTE3MykiPiYjeGE7CQkJPHRpdGxlIGlkPSJ0aXRsZTY0OTciPlNoZWV0Ljc2NDI8L3RpdGxlPiYjeGE7CQkJPHBhdGggaWQ9InBhdGg2NDk5IiBpbmtzY2FwZTpjb25uZWN0b3ItY3VydmF0dXJlPSIwIiBzdHlsZT0iZmlsbDojREZERkRGOyIgZD0iTTAsNTguMDRjMC0wLjk5LDAuNzctMS44MSwxLjcxLTEuODEgICAgIGMwLjk2LDAsMS43MiwwLjgyLDEuNzIsMS44MWMwLDEtMC43NiwxLjgxLTEuNzIsMS44MUMwLjc3LDU5Ljg1LDAsNTkuMDQsMCw1OC4wNHoiLz4mI3hhOwkJPC9nPiYjeGE7CQk8ZyBpZD0ic2hhcGU3NjQzLTI2IiB0cmFuc2Zvcm09InRyYW5zbGF0ZSgwLjA5NTIyMjcpIj4mI3hhOwkJCTx0aXRsZSBpZD0idGl0bGU2NTAyIj5TaGVldC43NjQzPC90aXRsZT4mI3hhOwkJCTxwYXRoIGlkPSJwYXRoNjUwNCIgaW5rc2NhcGU6Y29ubmVjdG9yLWN1cnZhdHVyZT0iMCIgc3R5bGU9ImZpbGw6Izk2OTY5NjsiIGQ9Ik0wLDU3LjM3YzAsMC45MSwwLDAuOTEsMCwwLjkxICAgICBjMCwwLjksMC42MywxLjU3LDEuMjYsMS41N2MyOC43MiwwLDI4LjcyLDAsMjguNzIsMGMwLjYzLDAsMS4yNS0wLjY3LDEuMjUtMS41N2MwLTAuOTEsMC0wLjkxLDAtMC45MUgweiIvPiYjeGE7CQk8L2c+JiN4YTsJCTxnIGlkPSJzaGFwZTc2NDQtMjgiIHRyYW5zZm9ybT0idHJhbnNsYXRlKDAuMDk1MjIyNywtMi40Nzc5MykiPiYjeGE7CQkJPHRpdGxlIGlkPSJ0aXRsZTY1MDciPlNoZWV0Ljc2NDQ8L3RpdGxlPiYjeGE7CQkJPHBhdGggaWQ9InBhdGg2NTA5IiBpbmtzY2FwZTpjb25uZWN0b3ItY3VydmF0dXJlPSIwIiBzdHlsZT0iZmlsbDojMjMxRjIwOyIgZD0iTTAsNTYuMjN2My42MmgzMS4yM3YtMy42MkgweiIvPiYjeGE7CQk8L2c+JiN4YTsJPC9nPiYjeGE7PC9nPiYjeGE7PC9zdmc+;fontColor=#FFFFFF;" vertex="1" parent="1">
          <mxGeometry x="2694" y="640" width="32" height="60" as="geometry" />
        </mxCell>
        <mxCell id="fT7zzyfTvzehRH6RShBd-115" value="" style="whiteSpace=wrap;html=1;rounded=1;fillColor=#1ba1e2;fontColor=#ffffff;strokeColor=#006EAF;" vertex="1" parent="1">
          <mxGeometry x="3120" y="-50" width="420" height="440" as="geometry" />
        </mxCell>
        <mxCell id="fT7zzyfTvzehRH6RShBd-102" value="" style="shape=image;verticalLabelPosition=bottom;labelBackgroundColor=#ffffff;verticalAlign=top;aspect=fixed;imageAspect=0;image=data:image/svg+xml,PHN2ZyB4bWxuczpjYz0iaHR0cDovL2NyZWF0aXZlY29tbW9ucy5vcmcvbnMjIiB4bWxuczpkYz0iaHR0cDovL3B1cmwub3JnL2RjL2VsZW1lbnRzLzEuMS8iIHhtbG5zOmlua3NjYXBlPSJodHRwOi8vd3d3Lmlua3NjYXBlLm9yZy9uYW1lc3BhY2VzL2lua3NjYXBlIiB4bWxuczpyZGY9Imh0dHA6Ly93d3cudzMub3JnLzE5OTkvMDIvMjItcmRmLXN5bnRheC1ucyMiIHhtbG5zOnNvZGlwb2RpPSJodHRwOi8vc29kaXBvZGkuc291cmNlZm9yZ2UubmV0L0RURC9zb2RpcG9kaS0wLmR0ZCIgeG1sbnM6c3ZnPSJodHRwOi8vd3d3LnczLm9yZy8yMDAwL3N2ZyIgeG1sbnM9Imh0dHA6Ly93d3cudzMub3JnLzIwMDAvc3ZnIiB4bWxuczp4bGluaz0iaHR0cDovL3d3dy53My5vcmcvMTk5OS94bGluayIgdmVyc2lvbj0iMS4xIiBpZD0ic3ZnODUyOTgiIGlua3NjYXBlOnZlcnNpb249IjAuOTIuMyAoMjQwNTU0NiwgMjAxOC0wMy0xMSkiIHNvZGlwb2RpOmRvY25hbWU9ImhvbWUuc3ZnIiB4PSIwcHgiIHk9IjBweCIgdmlld0JveD0iMCAwIDM1LjkgMzAuNTciIHN0eWxlPSJlbmFibGUtYmFja2dyb3VuZDpuZXcgMCAwIDM1LjkgMzAuNTc7IiB4bWw6c3BhY2U9InByZXNlcnZlIj4mI3hhOzxzb2RpcG9kaTpuYW1lZHZpZXcgYm9yZGVyY29sb3I9IiM2NjY2NjYiIGJvcmRlcm9wYWNpdHk9IjEiIGZpdC1tYXJnaW4tYm90dG9tPSIwIiBmaXQtbWFyZ2luLWxlZnQ9IjAiIGZpdC1tYXJnaW4tcmlnaHQ9IjAiIGZpdC1tYXJnaW4tdG9wPSIwIiBncmlkdG9sZXJhbmNlPSIxMCIgZ3VpZGV0b2xlcmFuY2U9IjEwIiBpZD0ibmFtZWR2aWV3ODUzMDAiIGlua3NjYXBlOmN1cnJlbnQtbGF5ZXI9InN2Zzg1Mjk4IiBpbmtzY2FwZTpjeD0iMjMuOTMzNjkyIiBpbmtzY2FwZTpjeT0iMjAuMzgxNTM5IiBpbmtzY2FwZTpwYWdlb3BhY2l0eT0iMCIgaW5rc2NhcGU6cGFnZXNoYWRvdz0iMiIgaW5rc2NhcGU6d2luZG93LWhlaWdodD0iMTAxNyIgaW5rc2NhcGU6d2luZG93LW1heGltaXplZD0iMSIgaW5rc2NhcGU6d2luZG93LXdpZHRoPSIxOTIwIiBpbmtzY2FwZTp3aW5kb3cteD0iLTgiIGlua3NjYXBlOndpbmRvdy15PSItOCIgaW5rc2NhcGU6em9vbT0iMjEuMjcyNDI0IiBvYmplY3R0b2xlcmFuY2U9IjEwIiBwYWdlY29sb3I9IiNmZmZmZmYiIHNob3dncmlkPSJmYWxzZSI+JiN4YTsJPC9zb2RpcG9kaTpuYW1lZHZpZXc+JiN4YTs8ZyBpZD0iZzg1Mjk2IiB0cmFuc2Zvcm09InRyYW5zbGF0ZSgwLjAwMTk2NDU5LC0xLjg1NzExOGUtNSkiPiYjeGE7CTx0aXRsZSBpZD0idGl0bGU4NTI4OSI+UGFnZS0xPC90aXRsZT4mI3hhOwk8ZyBpZD0ic2hhcGU0NjcwLTEiPiYjeGE7CQk8dGl0bGUgaWQ9InRpdGxlODUyOTEiPkhvbWU8L3RpdGxlPiYjeGE7CQk8cGF0aCBpZD0icGF0aDg1MjkzIiBpbmtzY2FwZTpjb25uZWN0b3ItY3VydmF0dXJlPSIwIiBzdHlsZT0iZmlsbDojM0Y1NzY1OyIgZD0iTTQuOTEsMTQuMTVoMjYuNjF2MTYuNDJoLTkuMzhWMTkuNjkgICAgYzAtMC43My0wLjU5LTEuMzItMS4zMS0xLjMySDE1LjZjLTAuNzIsMC0xLjMsMC41OS0xLjMsMS4zMnYxMC44OEg0LjkxVjE0LjE1eiBNMTguMjEsNi41MWwxMy4zMSw3LjY0SDQuOTFMMTguMjEsNi41MXogTTE4LjI0LDAgICAgbDcuMDQsNC4yOFYyLjQyaDUuMzJWNy41bDQuMzQsMi42NGMxLjMsMS45MiwxLjEyLDMuNDQsMC4zOCw1LjE2TDE4LjQ0LDUuMDRMMC41MiwxNS4yNmMtMC40My0wLjk5LTEuMTYtMi45MywwLjYtNS4xMkwxOC4yNCwweiIvPiYjeGE7CTwvZz4mI3hhOzwvZz4mI3hhOzwvc3ZnPg==;fontColor=#FFFFFF;" vertex="1" parent="1">
          <mxGeometry x="3200" y="7.5" width="34.84" height="30" as="geometry" />
        </mxCell>
        <mxCell id="fT7zzyfTvzehRH6RShBd-103" value="" style="rounded=0;whiteSpace=wrap;html=1;fontColor=#ffffff;fillColor=#647687;strokeColor=#314354;" vertex="1" parent="1">
          <mxGeometry x="3335.5" y="-22.5" width="160" height="111.5" as="geometry" />
        </mxCell>
        <mxCell id="fT7zzyfTvzehRH6RShBd-104" value="" style="rounded=0;whiteSpace=wrap;html=1;fontColor=#ffffff;fillColor=#647687;strokeColor=#314354;" vertex="1" parent="1">
          <mxGeometry x="3320.5" y="137.5" width="190" height="200" as="geometry" />
        </mxCell>
        <mxCell id="fT7zzyfTvzehRH6RShBd-105" style="edgeStyle=orthogonalEdgeStyle;rounded=0;orthogonalLoop=1;jettySize=auto;html=1;fontColor=#FFFFFF;" edge="1" source="fT7zzyfTvzehRH6RShBd-106" target="fT7zzyfTvzehRH6RShBd-110" parent="1">
          <mxGeometry relative="1" as="geometry" />
        </mxCell>
        <mxCell id="fT7zzyfTvzehRH6RShBd-106" value="" style="shape=image;verticalLabelPosition=bottom;labelBackgroundColor=#ffffff;verticalAlign=top;aspect=fixed;imageAspect=0;image=data:image/svg+xml,PHN2ZyB4bWxuczpjYz0iaHR0cDovL2NyZWF0aXZlY29tbW9ucy5vcmcvbnMjIiB4bWxuczpkYz0iaHR0cDovL3B1cmwub3JnL2RjL2VsZW1lbnRzLzEuMS8iIHhtbG5zOmlua3NjYXBlPSJodHRwOi8vd3d3Lmlua3NjYXBlLm9yZy9uYW1lc3BhY2VzL2lua3NjYXBlIiB4bWxuczpyZGY9Imh0dHA6Ly93d3cudzMub3JnLzE5OTkvMDIvMjItcmRmLXN5bnRheC1ucyMiIHhtbG5zOnNvZGlwb2RpPSJodHRwOi8vc29kaXBvZGkuc291cmNlZm9yZ2UubmV0L0RURC9zb2RpcG9kaS0wLmR0ZCIgeG1sbnM6c3ZnPSJodHRwOi8vd3d3LnczLm9yZy8yMDAwL3N2ZyIgeG1sbnM9Imh0dHA6Ly93d3cudzMub3JnLzIwMDAvc3ZnIiB4bWxuczp4bGluaz0iaHR0cDovL3d3dy53My5vcmcvMTk5OS94bGluayIgdmVyc2lvbj0iMS4xIiBpZD0ic3ZnNzI0MSIgaW5rc2NhcGU6dmVyc2lvbj0iMC45Mi4zICgyNDA1NTQ2LCAyMDE4LTAzLTExKSIgc29kaXBvZGk6ZG9jbmFtZT0ic2VydmVyXzMuc3ZnIiB4PSIwcHgiIHk9IjBweCIgdmlld0JveD0iMCAwIDM2Ljc1IDYyLjc2IiBzdHlsZT0iZW5hYmxlLWJhY2tncm91bmQ6bmV3IDAgMCAzNi43NSA2Mi43NjsiIHhtbDpzcGFjZT0icHJlc2VydmUiPiYjeGE7PHNvZGlwb2RpOm5hbWVkdmlldyBib3JkZXJjb2xvcj0iIzY2NjY2NiIgYm9yZGVyb3BhY2l0eT0iMSIgZml0LW1hcmdpbi1ib3R0b209IjAiIGZpdC1tYXJnaW4tbGVmdD0iMCIgZml0LW1hcmdpbi1yaWdodD0iMCIgZml0LW1hcmdpbi10b3A9IjAiIGdyaWR0b2xlcmFuY2U9IjEwIiBndWlkZXRvbGVyYW5jZT0iMTAiIGlkPSJuYW1lZHZpZXc3MjQzIiBpbmtzY2FwZTpjdXJyZW50LWxheWVyPSJzdmc3MjQxIiBpbmtzY2FwZTpjeD0iMjQuNTAwMDE1IiBpbmtzY2FwZTpjeT0iNDEuODQxNjI2IiBpbmtzY2FwZTpwYWdlb3BhY2l0eT0iMCIgaW5rc2NhcGU6cGFnZXNoYWRvdz0iMiIgaW5rc2NhcGU6d2luZG93LWhlaWdodD0iMTAxNyIgaW5rc2NhcGU6d2luZG93LW1heGltaXplZD0iMSIgaW5rc2NhcGU6d2luZG93LXdpZHRoPSIxOTIwIiBpbmtzY2FwZTp3aW5kb3cteD0iLTgiIGlua3NjYXBlOndpbmRvdy15PSItOCIgaW5rc2NhcGU6em9vbT0iMTAuMzYxMjg3IiBvYmplY3R0b2xlcmFuY2U9IjEwIiBwYWdlY29sb3I9IiNmZmZmZmYiIHNob3dncmlkPSJmYWxzZSI+JiN4YTsJPC9zb2RpcG9kaTpuYW1lZHZpZXc+JiN4YTs8ZyBpZD0iZzcyMzkiPiYjeGE7CTx0aXRsZSBpZD0idGl0bGU3MTk5Ij5QYWdlLTE8L3RpdGxlPiYjeGE7CTxnIGlkPSJncm91cDc2NDUtMSI+JiN4YTsJCTx0aXRsZSBpZD0idGl0bGU3MjAxIj5TZXJ2ZXIgIzM8L3RpdGxlPiYjeGE7CQk8ZyBpZD0ic2hhcGU3NjQ2LTIiPiYjeGE7CQkJPHRpdGxlIGlkPSJ0aXRsZTcyMDMiPlNoZWV0Ljc2NDY8L3RpdGxlPiYjeGE7CQkJPHBhdGggaWQ9InBhdGg3MjA1IiBpbmtzY2FwZTpjb25uZWN0b3ItY3VydmF0dXJlPSIwIiBzdHlsZT0iZmlsbDojM0UzRTNFOyIgZD0iTTAsMi4xMkMwLDAuOTUsMC45NSwwLDIuMTIsMGgzMi41MyAgICAgYzEuMTcsMCwyLjEsMC45NSwyLjEsMi4xMnY1OC41M2MwLDEuMTctMC45MywyLjExLTIuMSwyLjExSDIuMTJDMC45NSw2Mi43NiwwLDYxLjgyLDAsNjAuNjVWMi4xMnoiLz4mI3hhOwkJPC9nPiYjeGE7CQk8ZyBpZD0ic2hhcGU3NjQ3LTQiIHRyYW5zZm9ybT0idHJhbnNsYXRlKDUuNjA1OTMsLTQ5LjI1MDIpIj4mI3hhOwkJCTx0aXRsZSBpZD0idGl0bGU3MjA4Ij5TaGVldC43NjQ3PC90aXRsZT4mI3hhOwkJCTxwYXRoIGlkPSJwYXRoNzIxMCIgaW5rc2NhcGU6Y29ubmVjdG9yLWN1cnZhdHVyZT0iMCIgc3R5bGU9ImZpbGw6IzFFMUUxRTsiIGQ9Ik0yLjE4LDU1LjljMCwwLTIuMTgsMC0yLjE4LDMuMTIgICAgIGMwLDAuNjcsMCwwLjY3LDAsMC42N3MwLDMuMDcsMi4xOCwzLjA3YzIxLjIyLDAsMjEuMjIsMCwyMS4yMiwwczIuMTQsMCwyLjE0LTMuMDdjMC0wLjY3LDAtMC42NywwLTAuNjdzMC0zLjEyLTIuMTQtMy4xMiAgICAgYy05Ljg1LDAtOS44NSwwLTkuODUsMEgyLjE4eiIvPiYjeGE7CQk8L2c+JiN4YTsJCTxnIGlkPSJzaGFwZTc2NDgtNiIgdHJhbnNmb3JtPSJ0cmFuc2xhdGUoNi4yMjg4MSwtNDkuNDU4KSI+JiN4YTsJCQk8dGl0bGUgaWQ9InRpdGxlNzIxMyI+U2hlZXQuNzY0ODwvdGl0bGU+JiN4YTsJCQk8cGF0aCBpZD0icGF0aDcyMTUiIGlua3NjYXBlOmNvbm5lY3Rvci1jdXJ2YXR1cmU9IjAiIHN0eWxlPSJmaWxsOiNCOEQ0MzI7IiBkPSJNMCw1OS41MWMwLTEuNywxLjQ0LTMuMTksMy4xNS0zLjE5ICAgICBjMS43MiwwLDMuMDgsMS40OSwzLjA4LDMuMTljMCwxLjgzLTEuMzYsMy4yNS0zLjA4LDMuMjVDMS40NCw2Mi43NiwwLDYxLjM0LDAsNTkuNTF6Ii8+JiN4YTsJCTwvZz4mI3hhOwkJPGcgaWQ9InNoYXBlNzY0OS04IiB0cmFuc2Zvcm09InRyYW5zbGF0ZSg1LjYwNTkzLC0zNy42MTMpIj4mI3hhOwkJCTx0aXRsZSBpZD0idGl0bGU3MjE4Ij5TaGVldC43NjQ5PC90aXRsZT4mI3hhOwkJCTxwYXRoIGlkPSJwYXRoNzIyMCIgaW5rc2NhcGU6Y29ubmVjdG9yLWN1cnZhdHVyZT0iMCIgc3R5bGU9ImZpbGw6IzFFMUUxRTsiIGQ9Ik0yLjE4LDU1LjljMCwwLTIuMTgsMC0yLjE4LDMuMTIgICAgIGMwLDAuNjcsMCwwLjY3LDAsMC42N3MwLDMuMDcsMi4xOCwzLjA3YzIxLjIyLDAsMjEuMjIsMCwyMS4yMiwwczIuMTQsMCwyLjE0LTMuMDdjMC0wLjY3LDAtMC42NywwLTAuNjdzMC0zLjEyLTIuMTQtMy4xMiAgICAgYy05Ljg1LDAtOS44NSwwLTkuODUsMEgyLjE4eiIvPiYjeGE7CQk8L2c+JiN4YTsJCTxnIGlkPSJzaGFwZTc2NTAtMTAiIHRyYW5zZm9ybT0idHJhbnNsYXRlKDYuMjI4ODEsLTM3LjgyMDgpIj4mI3hhOwkJCTx0aXRsZSBpZD0idGl0bGU3MjIzIj5TaGVldC43NjUwPC90aXRsZT4mI3hhOwkJCTxwYXRoIGlkPSJwYXRoNzIyNSIgaW5rc2NhcGU6Y29ubmVjdG9yLWN1cnZhdHVyZT0iMCIgc3R5bGU9ImZpbGw6I0I4RDQzMjsiIGQ9Ik0wLDU5LjUxYzAtMS43LDEuNDQtMy4xOSwzLjE1LTMuMTkgICAgIGMxLjcyLDAsMy4wOCwxLjQ5LDMuMDgsMy4xOWMwLDEuODMtMS4zNiwzLjI1LTMuMDgsMy4yNUMxLjQ0LDYyLjc2LDAsNjEuMzQsMCw1OS41MXoiLz4mI3hhOwkJPC9nPiYjeGE7CQk8ZyBpZD0ic2hhcGU3NjUxLTEyIiB0cmFuc2Zvcm09InRyYW5zbGF0ZSg1LjYwNTkzLC0yNS45NzU4KSI+JiN4YTsJCQk8dGl0bGUgaWQ9InRpdGxlNzIyOCI+U2hlZXQuNzY1MTwvdGl0bGU+JiN4YTsJCQk8cGF0aCBpZD0icGF0aDcyMzAiIGlua3NjYXBlOmNvbm5lY3Rvci1jdXJ2YXR1cmU9IjAiIHN0eWxlPSJmaWxsOiMxRTFFMUU7IiBkPSJNMi4xOCw1NS42OWMwLDAtMi4xOCwwLTIuMTgsMy4yMSAgICAgYzAsMC43LDAsMC43LDAsMC43czAsMy4xNiwyLjE4LDMuMTZjMjEuMjIsMCwyMS4yMiwwLDIxLjIyLDBzMi4xNCwwLDIuMTQtMy4xNmMwLTAuNywwLTAuNywwLTAuN3MwLTMuMjEtMi4xNC0zLjIxICAgICBjLTkuODUsMC05Ljg1LDAtOS44NSwwSDIuMTh6Ii8+JiN4YTsJCTwvZz4mI3hhOwkJPGcgaWQ9InNoYXBlNzY1Mi0xNCIgdHJhbnNmb3JtPSJ0cmFuc2xhdGUoNi4yMjg4MSwtMjYuMTgzNikiPiYjeGE7CQkJPHRpdGxlIGlkPSJ0aXRsZTcyMzMiPlNoZWV0Ljc2NTI8L3RpdGxlPiYjeGE7CQkJPHBhdGggaWQ9InBhdGg3MjM1IiBpbmtzY2FwZTpjb25uZWN0b3ItY3VydmF0dXJlPSIwIiBzdHlsZT0iZmlsbDojQjhENDMyOyIgZD0iTTAsNTkuNTFjMC0xLjcsMS40NC0zLjE5LDMuMTUtMy4xOSAgICAgYzEuNzIsMCwzLjA4LDEuNDksMy4wOCwzLjE5YzAsMS44My0xLjM2LDMuMjUtMy4wOCwzLjI1QzEuNDQsNjIuNzYsMCw2MS4zNCwwLDU5LjUxeiIvPiYjeGE7CQk8L2c+JiN4YTsJPC9nPiYjeGE7PC9nPiYjeGE7PC9zdmc+;fontColor=#FFFFFF;" vertex="1" parent="1">
          <mxGeometry x="3397" y="157.5" width="37" height="63" as="geometry" />
        </mxCell>
        <mxCell id="fT7zzyfTvzehRH6RShBd-107" value="CNCQNBU03" style="text;html=1;strokeColor=none;fillColor=none;align=center;verticalAlign=middle;whiteSpace=wrap;rounded=0;fontColor=#FFFFFF;" vertex="1" parent="1">
          <mxGeometry x="3439" y="173.5" width="66" height="30" as="geometry" />
        </mxCell>
        <mxCell id="fT7zzyfTvzehRH6RShBd-108" value="NetBackup&lt;br&gt;5220" style="text;html=1;strokeColor=none;fillColor=none;align=center;verticalAlign=middle;whiteSpace=wrap;rounded=0;fontColor=#FFFFFF;" vertex="1" parent="1">
          <mxGeometry x="3439" y="273.5" width="60" height="30" as="geometry" />
        </mxCell>
        <mxCell id="fT7zzyfTvzehRH6RShBd-109" value="管理服务器：CNCQNBU01" style="text;html=1;strokeColor=none;fillColor=none;align=center;verticalAlign=middle;whiteSpace=wrap;rounded=0;fontColor=#FFFFFF;" vertex="1" parent="1">
          <mxGeometry x="3340" y="-12.5" width="150" height="30" as="geometry" />
        </mxCell>
        <mxCell id="fT7zzyfTvzehRH6RShBd-110" value="" style="shape=image;verticalLabelPosition=bottom;labelBackgroundColor=#ffffff;verticalAlign=top;aspect=fixed;imageAspect=0;image=data:image/svg+xml,PHN2ZyB4bWxuczpjYz0iaHR0cDovL2NyZWF0aXZlY29tbW9ucy5vcmcvbnMjIiB4bWxuczpkYz0iaHR0cDovL3B1cmwub3JnL2RjL2VsZW1lbnRzLzEuMS8iIHhtbG5zOmlua3NjYXBlPSJodHRwOi8vd3d3Lmlua3NjYXBlLm9yZy9uYW1lc3BhY2VzL2lua3NjYXBlIiB4bWxuczpyZGY9Imh0dHA6Ly93d3cudzMub3JnLzE5OTkvMDIvMjItcmRmLXN5bnRheC1ucyMiIHhtbG5zOnNvZGlwb2RpPSJodHRwOi8vc29kaXBvZGkuc291cmNlZm9yZ2UubmV0L0RURC9zb2RpcG9kaS0wLmR0ZCIgeG1sbnM6c3ZnPSJodHRwOi8vd3d3LnczLm9yZy8yMDAwL3N2ZyIgeG1sbnM9Imh0dHA6Ly93d3cudzMub3JnLzIwMDAvc3ZnIiB4bWxuczp4bGluaz0iaHR0cDovL3d3dy53My5vcmcvMTk5OS94bGluayIgdmVyc2lvbj0iMS4xIiBpZD0ic3ZnMjMxMCIgaW5rc2NhcGU6dmVyc2lvbj0iMC45Mi4zICgyNDA1NTQ2LCAyMDE4LTAzLTExKSIgc29kaXBvZGk6ZG9jbmFtZT0ic3RvcmFnZV8xLnN2ZyIgeD0iMHB4IiB5PSIwcHgiIHZpZXdCb3g9IjAgMCA0Ni4zNSAzNy41MSIgc3R5bGU9ImVuYWJsZS1iYWNrZ3JvdW5kOm5ldyAwIDAgNDYuMzUgMzcuNTE7IiB4bWw6c3BhY2U9InByZXNlcnZlIj4mI3hhOzxzb2RpcG9kaTpuYW1lZHZpZXcgYm9yZGVyY29sb3I9IiM2NjY2NjYiIGJvcmRlcm9wYWNpdHk9IjEiIGZpdC1tYXJnaW4tYm90dG9tPSIwIiBmaXQtbWFyZ2luLWxlZnQ9IjAiIGZpdC1tYXJnaW4tcmlnaHQ9IjAiIGZpdC1tYXJnaW4tdG9wPSIwIiBncmlkdG9sZXJhbmNlPSIxMCIgZ3VpZGV0b2xlcmFuY2U9IjEwIiBpZD0ibmFtZWR2aWV3MjMxMiIgaW5rc2NhcGU6Y3VycmVudC1sYXllcj0ic3ZnMjMxMCIgaW5rc2NhcGU6Y3g9IjMwLjg3NTEzOCIgaW5rc2NhcGU6Y3k9IjI1LjAwODQzMSIgaW5rc2NhcGU6cGFnZW9wYWNpdHk9IjAiIGlua3NjYXBlOnBhZ2VzaGFkb3c9IjIiIGlua3NjYXBlOndpbmRvdy1oZWlnaHQ9IjEwMTciIGlua3NjYXBlOndpbmRvdy1tYXhpbWl6ZWQ9IjEiIGlua3NjYXBlOndpbmRvdy13aWR0aD0iMTkyMCIgaW5rc2NhcGU6d2luZG93LXg9Ii04IiBpbmtzY2FwZTp3aW5kb3cteT0iLTgiIGlua3NjYXBlOnpvb209IjE3LjMzNjY1IiBvYmplY3R0b2xlcmFuY2U9IjEwIiBwYWdlY29sb3I9IiNmZmZmZmYiIHNob3dncmlkPSJmYWxzZSI+JiN4YTsJPC9zb2RpcG9kaTpuYW1lZHZpZXc+JiN4YTs8ZyBpZD0iZzIzMDgiIHRyYW5zZm9ybT0idHJhbnNsYXRlKC0wLjAwMTkwNTU2KSI+JiN4YTsJPHRpdGxlIGlkPSJ0aXRsZTIyOTgiPlBhZ2UtMTwvdGl0bGU+JiN4YTsJPGcgaWQ9Imdyb3VwOTYzNy0xIj4mI3hhOwkJPHRpdGxlIGlkPSJ0aXRsZTIzMDAiPlN0b3JhZ2UgIzE8L3RpdGxlPiYjeGE7CQk8ZyBpZD0ic2hhcGU5NjM4LTIiPiYjeGE7CQkJPHRpdGxlIGlkPSJ0aXRsZTIzMDIiPlNoZWV0Ljk2Mzg8L3RpdGxlPiYjeGE7CQkJPHBhdGggaWQ9InBhdGgyMzA0IiBpbmtzY2FwZTpjb25uZWN0b3ItY3VydmF0dXJlPSIwIiBzdHlsZT0iZmlsbDojM0Y1NzY1OyIgZD0iTTAuMDcsMjYuNzZjMC41LTEuNTgsMS4wMS0zLjE1LDEuMjYtNC43MiAgICAgYzEuMjQtNC43MywyLjUtOS4xOCwzLjc0LTEzLjYzYzAuNzUtMi42MywxLjI2LTUuMjYsMS45OS04LjE0QzcuMzIsMCw3LjU3LDAsNy41NywwYzAuNSwwLDAuNzUsMCwxLjI0LDBjNC4yNiwwLDguNSwwLDEyLjUsMCAgICAgYzIuMjUsMCw0Ljc0LDAsNi45OSwwYzMuNDksMCw3LDAsMTAuNDksMGMwLjI1LDAsMC4yNSwwLDAuMjUsMGMwLjI1LDAsMC4yNSwwLjI3LDAuMjUsMC4yN2MwLjI1LDEuODQsMC43NCwzLjQxLDEuMjQsNC45OSAgICAgYzEuMjYsNC43MiwyLjUsOS4xNywzLjc0LDEzLjYzYzAuNzYsMi44OSwxLjI2LDUuMjYsMi4wMiw3Ljg3YzAuMjMsMC41My0wLjI1LDAuNzgtMC41MSwwLjc4Yy0xLjc0LDAtMy41LDAtNS4yNSwwICAgICBjLTQuNDksMC05LjI0LDAtMTMuNDksMGMtMS45OSwwLTMuNDgsMC01LjIzLDBjLTQuMjYsMC04LjUxLDAtMTIuNSwwYy0yLjk4LDAtNS45OSwwLTguNzQsMEMwLjMyLDI3LjU0LTAuMTgsMjcuMjksMC4wNywyNi43NnogICAgICBNNDYuMjksMjkuMzljMCwyLjYzLDAsNC45NywwLDcuNnYwLjI3Yy0wLjI1LDAuMjUtMC4yNSwwLjI1LTAuNTEsMC4yNWMtMSwwLTEuOTksMC0zLDBjLTMuNDksMC03LjI1LDAtMTAuOTksMCAgICAgYy00Ljc1LDAtOS4yNCwwLTEzLjk5LDBjLTMuOTksMC03Ljk4LDAtMTEuOTgsMGMtMS43NCwwLTMuNSwwLTUuMjUsMGMtMC4yNSwwLTAuNS0wLjI1LTAuNS0wLjUyYzAtMi42MywwLTQuOTcsMC03LjYgICAgIGMwLTAuNTIsMC4yNS0wLjUyLDAuNS0wLjUyYzEuMDEsMCwyLDAsMywwYzMuNzUsMCw3LjI1LDAsMTAuOTksMGM0Ljc1LDAsOS4yNSwwLDEzLjk5LDBjNCwwLDcuOTksMCwxMi4yMywwYzEuNSwwLDMuMjYsMCw1LDAgICAgIEM0Ni4wNCwyOC44Nyw0Ni4yOSwyOC44Nyw0Ni4yOSwyOS4zOXogTTYuMDcsMzMuMDVjMC0wLjc4LTAuNzUtMS41Ny0xLjUxLTEuNTdjLTAuNzMsMC0xLjQ5LDAuNzktMS40OSwxLjU3ICAgICBjMCwxLjA2LDAuNzYsMS41OCwxLjQ5LDEuNThDNS4zMiwzNC42Myw2LjA3LDM0LjExLDYuMDcsMzMuMDV6IE0zNy43OCwzMy4wNWMwLTAuMjUtMC4yMy0wLjc4LTAuNzQtMC43OCAgICAgYy0yNy43MywwLTI3LjczLDAtMjcuNzMsMGMtMC4yNSwwLTAuNzQsMC41My0wLjc0LDAuNzhjMCwwLjU0LDAuNDksMC43OSwwLjc0LDAuNzljMjcuNzMsMCwyNy43MywwLDI3LjczLDAgICAgIEMzNy41NSwzMy44NCwzNy43OCwzMy41OSwzNy43OCwzMy4wNXogTTQzLjI4LDMzLjA1YzAtMC43OC0wLjUtMS41Ny0xLjQ5LTEuNTdjLTAuNzUsMC0xLjUxLDAuNzktMS41MSwxLjU3ICAgICBjMCwxLjA2LDAuNzYsMS41OCwxLjUxLDEuNThDNDIuNzgsMzQuNjMsNDMuMjgsMzQuMTEsNDMuMjgsMzMuMDV6Ii8+JiN4YTsJCTwvZz4mI3hhOwk8L2c+JiN4YTs8L2c+JiN4YTs8L3N2Zz4=;fontColor=#FFFFFF;" vertex="1" parent="1">
          <mxGeometry x="3392.5" y="267.49999999999636" width="46" height="38" as="geometry" />
        </mxCell>
        <mxCell id="fT7zzyfTvzehRH6RShBd-111" value="介质服务器" style="text;html=1;strokeColor=none;fillColor=none;align=center;verticalAlign=middle;whiteSpace=wrap;rounded=0;fontColor=#FFFFFF;" vertex="1" parent="1">
          <mxGeometry x="3340" y="311.5" width="150" height="30" as="geometry" />
        </mxCell>
        <mxCell id="fT7zzyfTvzehRH6RShBd-112" value="&lt;h1&gt;重庆备份系统&lt;/h1&gt;&lt;p&gt;Lorem ipsum dolor sit amet, consectetur adipisicing elit, sed do eiusmod tempor incididunt ut labore et dolore magna aliqua.&lt;/p&gt;" style="text;html=1;strokeColor=none;fillColor=none;spacing=5;spacingTop=-20;whiteSpace=wrap;overflow=hidden;rounded=0;fontColor=#FFFFFF;" vertex="1" parent="1">
          <mxGeometry x="3140" y="69" width="160" height="170" as="geometry" />
        </mxCell>
        <mxCell id="fT7zzyfTvzehRH6RShBd-113" style="edgeStyle=orthogonalEdgeStyle;rounded=0;orthogonalLoop=1;jettySize=auto;html=1;entryX=0.5;entryY=0;entryDx=0;entryDy=0;fontColor=#FFFFFF;" edge="1" source="fT7zzyfTvzehRH6RShBd-114" target="fT7zzyfTvzehRH6RShBd-106" parent="1">
          <mxGeometry relative="1" as="geometry" />
        </mxCell>
        <mxCell id="fT7zzyfTvzehRH6RShBd-114" value="" style="shape=image;verticalLabelPosition=bottom;labelBackgroundColor=#ffffff;verticalAlign=top;aspect=fixed;imageAspect=0;image=data:image/svg+xml,PHN2ZyB4bWxuczpjYz0iaHR0cDovL2NyZWF0aXZlY29tbW9ucy5vcmcvbnMjIiB4bWxuczpkYz0iaHR0cDovL3B1cmwub3JnL2RjL2VsZW1lbnRzLzEuMS8iIHhtbG5zOmlua3NjYXBlPSJodHRwOi8vd3d3Lmlua3NjYXBlLm9yZy9uYW1lc3BhY2VzL2lua3NjYXBlIiB4bWxuczpyZGY9Imh0dHA6Ly93d3cudzMub3JnLzE5OTkvMDIvMjItcmRmLXN5bnRheC1ucyMiIHhtbG5zOnNvZGlwb2RpPSJodHRwOi8vc29kaXBvZGkuc291cmNlZm9yZ2UubmV0L0RURC9zb2RpcG9kaS0wLmR0ZCIgeG1sbnM6c3ZnPSJodHRwOi8vd3d3LnczLm9yZy8yMDAwL3N2ZyIgeG1sbnM9Imh0dHA6Ly93d3cudzMub3JnLzIwMDAvc3ZnIiB4bWxuczp4bGluaz0iaHR0cDovL3d3dy53My5vcmcvMTk5OS94bGluayIgdmVyc2lvbj0iMS4xIiBpZD0ic3ZnNjUxNSIgaW5rc2NhcGU6dmVyc2lvbj0iMC45Mi4zICgyNDA1NTQ2LCAyMDE4LTAzLTExKSIgc29kaXBvZGk6ZG9jbmFtZT0ic2VydmVyXzIuc3ZnIiB4PSIwcHgiIHk9IjBweCIgdmlld0JveD0iMCAwIDMxLjgzIDU5Ljg1IiBzdHlsZT0iZW5hYmxlLWJhY2tncm91bmQ6bmV3IDAgMCAzMS44MyA1OS44NTsiIHhtbDpzcGFjZT0icHJlc2VydmUiPiYjeGE7PHNvZGlwb2RpOm5hbWVkdmlldyBib3JkZXJjb2xvcj0iIzY2NjY2NiIgYm9yZGVyb3BhY2l0eT0iMSIgZml0LW1hcmdpbi1ib3R0b209IjAiIGZpdC1tYXJnaW4tbGVmdD0iMCIgZml0LW1hcmdpbi1yaWdodD0iMCIgZml0LW1hcmdpbi10b3A9IjAiIGdyaWR0b2xlcmFuY2U9IjEwIiBndWlkZXRvbGVyYW5jZT0iMTAiIGlkPSJuYW1lZHZpZXc2NTE3IiBpbmtzY2FwZTpjdXJyZW50LWxheWVyPSJzdmc2NTE1IiBpbmtzY2FwZTpjeD0iMjEuMjIyNDA5IiBpbmtzY2FwZTpjeT0iMzkuODk4OTE5IiBpbmtzY2FwZTpwYWdlb3BhY2l0eT0iMCIgaW5rc2NhcGU6cGFnZXNoYWRvdz0iMiIgaW5rc2NhcGU6d2luZG93LWhlaWdodD0iMTAxNyIgaW5rc2NhcGU6d2luZG93LW1heGltaXplZD0iMSIgaW5rc2NhcGU6d2luZG93LXdpZHRoPSIxOTIwIiBpbmtzY2FwZTp3aW5kb3cteD0iLTgiIGlua3NjYXBlOndpbmRvdy15PSItOCIgaW5rc2NhcGU6em9vbT0iMTAuODY0Mzc0IiBvYmplY3R0b2xlcmFuY2U9IjEwIiBwYWdlY29sb3I9IiNmZmZmZmYiIHNob3dncmlkPSJmYWxzZSI+JiN4YTsJPC9zb2RpcG9kaTpuYW1lZHZpZXc+JiN4YTs8ZyBpZD0iZzY1MTMiIHRyYW5zZm9ybT0idHJhbnNsYXRlKDAuMDA0MzM4OSkiPiYjeGE7CTx0aXRsZSBpZD0idGl0bGU2NDQ4Ij5QYWdlLTE8L3RpdGxlPiYjeGE7CTxnIGlkPSJncm91cDc2MzItMSIgdHJhbnNmb3JtPSJ0cmFuc2xhdGUoMC4zMDYyMTYpIj4mI3hhOwkJPHRpdGxlIGlkPSJ0aXRsZTY0NTAiPlNlcnZlciAjMjwvdGl0bGU+JiN4YTsJCTxnIGlkPSJzaGFwZTc2MzMtMiIgdHJhbnNmb3JtPSJ0cmFuc2xhdGUoMC4wOTUyMjI3KSI+JiN4YTsJCQk8dGl0bGUgaWQ9InRpdGxlNjQ1MiI+U2hlZXQuNzYzMzwvdGl0bGU+JiN4YTsJCQk8cGF0aCBpZD0icGF0aDY0NTQiIGlua3NjYXBlOmNvbm5lY3Rvci1jdXJ2YXR1cmU9IjAiIHN0eWxlPSJmaWxsOiMzRjU3NjU7IiBkPSJNMzEuMjMsNTguNGMwLDAuODMtMC42MiwxLjQ1LTEuMjUsMS40NSAgICAgYy0yOC43MiwwLTI4LjcyLDAtMjguNzIsMEMwLjYzLDU5Ljg1LDAsNTkuMjMsMCw1OC40QzAsMS40NywwLDEuNDcsMCwxLjQ3QzAsMC42MywwLjYzLDAsMS4yNiwwYzI4LjcyLDAsMjguNzIsMCwyOC43MiwwICAgICBjMC42MywwLDEuMjUsMC42MywxLjI1LDEuNDdWNTguNHoiLz4mI3hhOwkJPC9nPiYjeGE7CQk8ZyBpZD0ic2hhcGU3NjM0LTQiIHRyYW5zZm9ybT0idHJhbnNsYXRlKDAsLTUzLjA4NDkpIj4mI3hhOwkJCTx0aXRsZSBpZD0idGl0bGU2NDU3Ij5TaGVldC43NjM0PC90aXRsZT4mI3hhOwkJCSYjeGE7CQkJCTxwYXRoIGlkPSJwYXRoNjQ1OSIgaW5rc2NhcGU6Y29ubmVjdG9yLWN1cnZhdHVyZT0iMCIgc3R5bGU9ImZpbGw6bm9uZTtzdHJva2U6IzAwMDAwMDtzdHJva2Utd2lkdGg6MC42MTI0O3N0cm9rZS1saW5lY2FwOnJvdW5kO3N0cm9rZS1saW5lam9pbjpyb3VuZDtzdHJva2UtbWl0ZXJsaW1pdDozOyIgZD0iICAgICBNMCw1OS44NWgyOC4zOCIvPiYjeGE7CQk8L2c+JiN4YTsJCTxnIGlkPSJzaGFwZTc2MzUtNyIgdHJhbnNmb3JtPSJ0cmFuc2xhdGUoMTYuNDczNSwtNTIuMDM2NikiPiYjeGE7CQkJPHRpdGxlIGlkPSJ0aXRsZTY0NjIiPlNoZWV0Ljc2MzU8L3RpdGxlPiYjeGE7CQkJPHBhdGggaWQ9InBhdGg2NDY0IiBpbmtzY2FwZTpjb25uZWN0b3ItY3VydmF0dXJlPSIwIiBzdHlsZT0iZmlsbDojMDBCQ0YyOyIgZD0iTTE1LjA1LDU3Ljc1Yy0xNCwwLTE0LDAtMTQsMCAgICAgQzAuNDMsNTcuNzUsMCw1OC4xOCwwLDU4LjhjMCwwLjQzLDAuNDMsMS4wNSwxLjA1LDEuMDVjMTQsMCwxNCwwLDE0LDBWNTcuNzV6Ii8+JiN4YTsJCTwvZz4mI3hhOwkJPGcgaWQ9InNoYXBlNzYzNi05IiB0cmFuc2Zvcm09InRyYW5zbGF0ZSgwLC00Ni4yMjMpIj4mI3hhOwkJCTx0aXRsZSBpZD0idGl0bGU2NDY3Ij5TaGVldC43NjM2PC90aXRsZT4mI3hhOwkJCSYjeGE7CQkJCTxwYXRoIGlkPSJwYXRoNjQ2OSIgaW5rc2NhcGU6Y29ubmVjdG9yLWN1cnZhdHVyZT0iMCIgc3R5bGU9ImZpbGw6bm9uZTtzdHJva2U6IzAwMDAwMDtzdHJva2Utd2lkdGg6MC42MTI0O3N0cm9rZS1saW5lY2FwOnJvdW5kO3N0cm9rZS1saW5lam9pbjpyb3VuZDtzdHJva2UtbWl0ZXJsaW1pdDozOyIgZD0iICAgICBNMCw1OS44NWgyOC4zOCIvPiYjeGE7CQk8L2c+JiN4YTsJCTxnIGlkPSJzaGFwZTc2MzctMTIiIHRyYW5zZm9ybT0idHJhbnNsYXRlKDE2LjQ3MzUsLTQ1LjE3NDYpIj4mI3hhOwkJCTx0aXRsZSBpZD0idGl0bGU2NDcyIj5TaGVldC43NjM3PC90aXRsZT4mI3hhOwkJCTxwYXRoIGlkPSJwYXRoNjQ3NCIgaW5rc2NhcGU6Y29ubmVjdG9yLWN1cnZhdHVyZT0iMCIgc3R5bGU9ImZpbGw6IzAwQkNGMjsiIGQ9Ik0xNS4wNSw1Ny41NmMtMTQsMC0xNCwwLTE0LDAgICAgIEMwLjQzLDU3LjU2LDAsNTguMDMsMCw1OC43MWMwLDAuNjksMC40MywxLjE0LDEuMDUsMS4xNGMxNCwwLDE0LDAsMTQsMFY1Ny41NnoiLz4mI3hhOwkJPC9nPiYjeGE7CQk8ZyBpZD0ic2hhcGU3NjM4LTE0IiB0cmFuc2Zvcm09InRyYW5zbGF0ZSgwLC0zOS4zNjEpIj4mI3hhOwkJCTx0aXRsZSBpZD0idGl0bGU2NDc3Ij5TaGVldC43NjM4PC90aXRsZT4mI3hhOwkJCSYjeGE7CQkJCTxwYXRoIGlkPSJwYXRoNjQ3OSIgaW5rc2NhcGU6Y29ubmVjdG9yLWN1cnZhdHVyZT0iMCIgc3R5bGU9ImZpbGw6bm9uZTtzdHJva2U6IzAwMDAwMDtzdHJva2Utd2lkdGg6MC42MTI0O3N0cm9rZS1saW5lY2FwOnJvdW5kO3N0cm9rZS1saW5lam9pbjpyb3VuZDtzdHJva2UtbWl0ZXJsaW1pdDozOyIgZD0iICAgICBNMCw1OS44NWgyOC4zOCIvPiYjeGE7CQk8L2c+JiN4YTsJCTxnIGlkPSJzaGFwZTc2MzktMTciIHRyYW5zZm9ybT0idHJhbnNsYXRlKDE2LjQ3MzUsLTM4LjMxMjYpIj4mI3hhOwkJCTx0aXRsZSBpZD0idGl0bGU2NDgyIj5TaGVldC43NjM5PC90aXRsZT4mI3hhOwkJCTxwYXRoIGlkPSJwYXRoNjQ4NCIgaW5rc2NhcGU6Y29ubmVjdG9yLWN1cnZhdHVyZT0iMCIgc3R5bGU9ImZpbGw6IzAwQkNGMjsiIGQ9Ik0xNS4wNSw1Ny43NWMtMTQsMC0xNCwwLTE0LDAgICAgIEMwLjQzLDU3Ljc1LDAsNTguMTgsMCw1OC44YzAsMC42MywwLjQzLDEuMDUsMS4wNSwxLjA1YzE0LDAsMTQsMCwxNCwwVjU3Ljc1eiIvPiYjeGE7CQk8L2c+JiN4YTsJCTxnIGlkPSJzaGFwZTc2NDAtMTkiIHRyYW5zZm9ybT0idHJhbnNsYXRlKDAsLTMyLjQ5OSkiPiYjeGE7CQkJPHRpdGxlIGlkPSJ0aXRsZTY0ODciPlNoZWV0Ljc2NDA8L3RpdGxlPiYjeGE7CQkJJiN4YTsJCQkJPHBhdGggaWQ9InBhdGg2NDg5IiBpbmtzY2FwZTpjb25uZWN0b3ItY3VydmF0dXJlPSIwIiBzdHlsZT0iZmlsbDpub25lO3N0cm9rZTojMDAwMDAwO3N0cm9rZS13aWR0aDowLjYxMjQ7c3Ryb2tlLWxpbmVjYXA6cm91bmQ7c3Ryb2tlLWxpbmVqb2luOnJvdW5kO3N0cm9rZS1taXRlcmxpbWl0OjM7IiBkPSIgICAgIE0wLDU5Ljg1aDI4LjM4Ii8+JiN4YTsJCTwvZz4mI3hhOwkJPGcgaWQ9InNoYXBlNzY0MS0yMiIgdHJhbnNmb3JtPSJ0cmFuc2xhdGUoMTYuNDczNSwtMzEuNDUwNykiPiYjeGE7CQkJPHRpdGxlIGlkPSJ0aXRsZTY0OTIiPlNoZWV0Ljc2NDE8L3RpdGxlPiYjeGE7CQkJPHBhdGggaWQ9InBhdGg2NDk0IiBpbmtzY2FwZTpjb25uZWN0b3ItY3VydmF0dXJlPSIwIiBzdHlsZT0iZmlsbDojMDBCQ0YyOyIgZD0iTTE1LjA1LDU3Ljc1Yy0xNCwwLTE0LDAtMTQsMCAgICAgQzAuNDMsNTcuNzUsMCw1OC4zOSwwLDU4LjhjMCwwLjYzLDAuNDMsMS4wNSwxLjA1LDEuMDVjMTQsMCwxNCwwLDE0LDBWNTcuNzV6Ii8+JiN4YTsJCTwvZz4mI3hhOwkJPGcgaWQ9InNoYXBlNzY0Mi0yNCIgdHJhbnNmb3JtPSJ0cmFuc2xhdGUoMTMuOTk3NywtOS45MTE3MykiPiYjeGE7CQkJPHRpdGxlIGlkPSJ0aXRsZTY0OTciPlNoZWV0Ljc2NDI8L3RpdGxlPiYjeGE7CQkJPHBhdGggaWQ9InBhdGg2NDk5IiBpbmtzY2FwZTpjb25uZWN0b3ItY3VydmF0dXJlPSIwIiBzdHlsZT0iZmlsbDojREZERkRGOyIgZD0iTTAsNTguMDRjMC0wLjk5LDAuNzctMS44MSwxLjcxLTEuODEgICAgIGMwLjk2LDAsMS43MiwwLjgyLDEuNzIsMS44MWMwLDEtMC43NiwxLjgxLTEuNzIsMS44MUMwLjc3LDU5Ljg1LDAsNTkuMDQsMCw1OC4wNHoiLz4mI3hhOwkJPC9nPiYjeGE7CQk8ZyBpZD0ic2hhcGU3NjQzLTI2IiB0cmFuc2Zvcm09InRyYW5zbGF0ZSgwLjA5NTIyMjcpIj4mI3hhOwkJCTx0aXRsZSBpZD0idGl0bGU2NTAyIj5TaGVldC43NjQzPC90aXRsZT4mI3hhOwkJCTxwYXRoIGlkPSJwYXRoNjUwNCIgaW5rc2NhcGU6Y29ubmVjdG9yLWN1cnZhdHVyZT0iMCIgc3R5bGU9ImZpbGw6Izk2OTY5NjsiIGQ9Ik0wLDU3LjM3YzAsMC45MSwwLDAuOTEsMCwwLjkxICAgICBjMCwwLjksMC42MywxLjU3LDEuMjYsMS41N2MyOC43MiwwLDI4LjcyLDAsMjguNzIsMGMwLjYzLDAsMS4yNS0wLjY3LDEuMjUtMS41N2MwLTAuOTEsMC0wLjkxLDAtMC45MUgweiIvPiYjeGE7CQk8L2c+JiN4YTsJCTxnIGlkPSJzaGFwZTc2NDQtMjgiIHRyYW5zZm9ybT0idHJhbnNsYXRlKDAuMDk1MjIyNywtMi40Nzc5MykiPiYjeGE7CQkJPHRpdGxlIGlkPSJ0aXRsZTY1MDciPlNoZWV0Ljc2NDQ8L3RpdGxlPiYjeGE7CQkJPHBhdGggaWQ9InBhdGg2NTA5IiBpbmtzY2FwZTpjb25uZWN0b3ItY3VydmF0dXJlPSIwIiBzdHlsZT0iZmlsbDojMjMxRjIwOyIgZD0iTTAsNTYuMjN2My42MmgzMS4yM3YtMy42MkgweiIvPiYjeGE7CQk8L2c+JiN4YTsJPC9nPiYjeGE7PC9nPiYjeGE7PC9zdmc+;fontColor=#FFFFFF;" vertex="1" parent="1">
          <mxGeometry x="3399" y="17.5" width="32" height="60" as="geometry" />
        </mxCell>
        <mxCell id="fT7zzyfTvzehRH6RShBd-131" value="" style="whiteSpace=wrap;html=1;rounded=1;fillColor=#1ba1e2;fontColor=#ffffff;strokeColor=#006EAF;" vertex="1" parent="1">
          <mxGeometry x="2425" y="-610" width="420" height="440" as="geometry" />
        </mxCell>
        <mxCell id="fT7zzyfTvzehRH6RShBd-118" value="" style="shape=image;verticalLabelPosition=bottom;labelBackgroundColor=#ffffff;verticalAlign=top;aspect=fixed;imageAspect=0;image=data:image/svg+xml,PHN2ZyB4bWxuczpjYz0iaHR0cDovL2NyZWF0aXZlY29tbW9ucy5vcmcvbnMjIiB4bWxuczpkYz0iaHR0cDovL3B1cmwub3JnL2RjL2VsZW1lbnRzLzEuMS8iIHhtbG5zOmlua3NjYXBlPSJodHRwOi8vd3d3Lmlua3NjYXBlLm9yZy9uYW1lc3BhY2VzL2lua3NjYXBlIiB4bWxuczpyZGY9Imh0dHA6Ly93d3cudzMub3JnLzE5OTkvMDIvMjItcmRmLXN5bnRheC1ucyMiIHhtbG5zOnNvZGlwb2RpPSJodHRwOi8vc29kaXBvZGkuc291cmNlZm9yZ2UubmV0L0RURC9zb2RpcG9kaS0wLmR0ZCIgeG1sbnM6c3ZnPSJodHRwOi8vd3d3LnczLm9yZy8yMDAwL3N2ZyIgeG1sbnM9Imh0dHA6Ly93d3cudzMub3JnLzIwMDAvc3ZnIiB4bWxuczp4bGluaz0iaHR0cDovL3d3dy53My5vcmcvMTk5OS94bGluayIgdmVyc2lvbj0iMS4xIiBpZD0ic3ZnODUyOTgiIGlua3NjYXBlOnZlcnNpb249IjAuOTIuMyAoMjQwNTU0NiwgMjAxOC0wMy0xMSkiIHNvZGlwb2RpOmRvY25hbWU9ImhvbWUuc3ZnIiB4PSIwcHgiIHk9IjBweCIgdmlld0JveD0iMCAwIDM1LjkgMzAuNTciIHN0eWxlPSJlbmFibGUtYmFja2dyb3VuZDpuZXcgMCAwIDM1LjkgMzAuNTc7IiB4bWw6c3BhY2U9InByZXNlcnZlIj4mI3hhOzxzb2RpcG9kaTpuYW1lZHZpZXcgYm9yZGVyY29sb3I9IiM2NjY2NjYiIGJvcmRlcm9wYWNpdHk9IjEiIGZpdC1tYXJnaW4tYm90dG9tPSIwIiBmaXQtbWFyZ2luLWxlZnQ9IjAiIGZpdC1tYXJnaW4tcmlnaHQ9IjAiIGZpdC1tYXJnaW4tdG9wPSIwIiBncmlkdG9sZXJhbmNlPSIxMCIgZ3VpZGV0b2xlcmFuY2U9IjEwIiBpZD0ibmFtZWR2aWV3ODUzMDAiIGlua3NjYXBlOmN1cnJlbnQtbGF5ZXI9InN2Zzg1Mjk4IiBpbmtzY2FwZTpjeD0iMjMuOTMzNjkyIiBpbmtzY2FwZTpjeT0iMjAuMzgxNTM5IiBpbmtzY2FwZTpwYWdlb3BhY2l0eT0iMCIgaW5rc2NhcGU6cGFnZXNoYWRvdz0iMiIgaW5rc2NhcGU6d2luZG93LWhlaWdodD0iMTAxNyIgaW5rc2NhcGU6d2luZG93LW1heGltaXplZD0iMSIgaW5rc2NhcGU6d2luZG93LXdpZHRoPSIxOTIwIiBpbmtzY2FwZTp3aW5kb3cteD0iLTgiIGlua3NjYXBlOndpbmRvdy15PSItOCIgaW5rc2NhcGU6em9vbT0iMjEuMjcyNDI0IiBvYmplY3R0b2xlcmFuY2U9IjEwIiBwYWdlY29sb3I9IiNmZmZmZmYiIHNob3dncmlkPSJmYWxzZSI+JiN4YTsJPC9zb2RpcG9kaTpuYW1lZHZpZXc+JiN4YTs8ZyBpZD0iZzg1Mjk2IiB0cmFuc2Zvcm09InRyYW5zbGF0ZSgwLjAwMTk2NDU5LC0xLjg1NzExOGUtNSkiPiYjeGE7CTx0aXRsZSBpZD0idGl0bGU4NTI4OSI+UGFnZS0xPC90aXRsZT4mI3hhOwk8ZyBpZD0ic2hhcGU0NjcwLTEiPiYjeGE7CQk8dGl0bGUgaWQ9InRpdGxlODUyOTEiPkhvbWU8L3RpdGxlPiYjeGE7CQk8cGF0aCBpZD0icGF0aDg1MjkzIiBpbmtzY2FwZTpjb25uZWN0b3ItY3VydmF0dXJlPSIwIiBzdHlsZT0iZmlsbDojM0Y1NzY1OyIgZD0iTTQuOTEsMTQuMTVoMjYuNjF2MTYuNDJoLTkuMzhWMTkuNjkgICAgYzAtMC43My0wLjU5LTEuMzItMS4zMS0xLjMySDE1LjZjLTAuNzIsMC0xLjMsMC41OS0xLjMsMS4zMnYxMC44OEg0LjkxVjE0LjE1eiBNMTguMjEsNi41MWwxMy4zMSw3LjY0SDQuOTFMMTguMjEsNi41MXogTTE4LjI0LDAgICAgbDcuMDQsNC4yOFYyLjQyaDUuMzJWNy41bDQuMzQsMi42NGMxLjMsMS45MiwxLjEyLDMuNDQsMC4zOCw1LjE2TDE4LjQ0LDUuMDRMMC41MiwxNS4yNmMtMC40My0wLjk5LTEuMTYtMi45MywwLjYtNS4xMkwxOC4yNCwweiIvPiYjeGE7CTwvZz4mI3hhOzwvZz4mI3hhOzwvc3ZnPg==;fontColor=#FFFFFF;" vertex="1" parent="1">
          <mxGeometry x="2497" y="-530" width="34.84" height="30" as="geometry" />
        </mxCell>
        <mxCell id="fT7zzyfTvzehRH6RShBd-119" value="" style="rounded=0;whiteSpace=wrap;html=1;fontColor=#ffffff;fillColor=#647687;strokeColor=#314354;" vertex="1" parent="1">
          <mxGeometry x="2632.5" y="-560" width="160" height="111.5" as="geometry" />
        </mxCell>
        <mxCell id="fT7zzyfTvzehRH6RShBd-120" value="" style="rounded=0;whiteSpace=wrap;html=1;fontColor=#ffffff;fillColor=#647687;strokeColor=#314354;" vertex="1" parent="1">
          <mxGeometry x="2617.5" y="-400" width="190" height="200" as="geometry" />
        </mxCell>
        <mxCell id="fT7zzyfTvzehRH6RShBd-121" style="edgeStyle=orthogonalEdgeStyle;rounded=0;orthogonalLoop=1;jettySize=auto;html=1;fontColor=#FFFFFF;" edge="1" source="fT7zzyfTvzehRH6RShBd-122" target="fT7zzyfTvzehRH6RShBd-126" parent="1">
          <mxGeometry relative="1" as="geometry" />
        </mxCell>
        <mxCell id="fT7zzyfTvzehRH6RShBd-122" value="" style="shape=image;verticalLabelPosition=bottom;labelBackgroundColor=#ffffff;verticalAlign=top;aspect=fixed;imageAspect=0;image=data:image/svg+xml,PHN2ZyB4bWxuczpjYz0iaHR0cDovL2NyZWF0aXZlY29tbW9ucy5vcmcvbnMjIiB4bWxuczpkYz0iaHR0cDovL3B1cmwub3JnL2RjL2VsZW1lbnRzLzEuMS8iIHhtbG5zOmlua3NjYXBlPSJodHRwOi8vd3d3Lmlua3NjYXBlLm9yZy9uYW1lc3BhY2VzL2lua3NjYXBlIiB4bWxuczpyZGY9Imh0dHA6Ly93d3cudzMub3JnLzE5OTkvMDIvMjItcmRmLXN5bnRheC1ucyMiIHhtbG5zOnNvZGlwb2RpPSJodHRwOi8vc29kaXBvZGkuc291cmNlZm9yZ2UubmV0L0RURC9zb2RpcG9kaS0wLmR0ZCIgeG1sbnM6c3ZnPSJodHRwOi8vd3d3LnczLm9yZy8yMDAwL3N2ZyIgeG1sbnM9Imh0dHA6Ly93d3cudzMub3JnLzIwMDAvc3ZnIiB4bWxuczp4bGluaz0iaHR0cDovL3d3dy53My5vcmcvMTk5OS94bGluayIgdmVyc2lvbj0iMS4xIiBpZD0ic3ZnNzI0MSIgaW5rc2NhcGU6dmVyc2lvbj0iMC45Mi4zICgyNDA1NTQ2LCAyMDE4LTAzLTExKSIgc29kaXBvZGk6ZG9jbmFtZT0ic2VydmVyXzMuc3ZnIiB4PSIwcHgiIHk9IjBweCIgdmlld0JveD0iMCAwIDM2Ljc1IDYyLjc2IiBzdHlsZT0iZW5hYmxlLWJhY2tncm91bmQ6bmV3IDAgMCAzNi43NSA2Mi43NjsiIHhtbDpzcGFjZT0icHJlc2VydmUiPiYjeGE7PHNvZGlwb2RpOm5hbWVkdmlldyBib3JkZXJjb2xvcj0iIzY2NjY2NiIgYm9yZGVyb3BhY2l0eT0iMSIgZml0LW1hcmdpbi1ib3R0b209IjAiIGZpdC1tYXJnaW4tbGVmdD0iMCIgZml0LW1hcmdpbi1yaWdodD0iMCIgZml0LW1hcmdpbi10b3A9IjAiIGdyaWR0b2xlcmFuY2U9IjEwIiBndWlkZXRvbGVyYW5jZT0iMTAiIGlkPSJuYW1lZHZpZXc3MjQzIiBpbmtzY2FwZTpjdXJyZW50LWxheWVyPSJzdmc3MjQxIiBpbmtzY2FwZTpjeD0iMjQuNTAwMDE1IiBpbmtzY2FwZTpjeT0iNDEuODQxNjI2IiBpbmtzY2FwZTpwYWdlb3BhY2l0eT0iMCIgaW5rc2NhcGU6cGFnZXNoYWRvdz0iMiIgaW5rc2NhcGU6d2luZG93LWhlaWdodD0iMTAxNyIgaW5rc2NhcGU6d2luZG93LW1heGltaXplZD0iMSIgaW5rc2NhcGU6d2luZG93LXdpZHRoPSIxOTIwIiBpbmtzY2FwZTp3aW5kb3cteD0iLTgiIGlua3NjYXBlOndpbmRvdy15PSItOCIgaW5rc2NhcGU6em9vbT0iMTAuMzYxMjg3IiBvYmplY3R0b2xlcmFuY2U9IjEwIiBwYWdlY29sb3I9IiNmZmZmZmYiIHNob3dncmlkPSJmYWxzZSI+JiN4YTsJPC9zb2RpcG9kaTpuYW1lZHZpZXc+JiN4YTs8ZyBpZD0iZzcyMzkiPiYjeGE7CTx0aXRsZSBpZD0idGl0bGU3MTk5Ij5QYWdlLTE8L3RpdGxlPiYjeGE7CTxnIGlkPSJncm91cDc2NDUtMSI+JiN4YTsJCTx0aXRsZSBpZD0idGl0bGU3MjAxIj5TZXJ2ZXIgIzM8L3RpdGxlPiYjeGE7CQk8ZyBpZD0ic2hhcGU3NjQ2LTIiPiYjeGE7CQkJPHRpdGxlIGlkPSJ0aXRsZTcyMDMiPlNoZWV0Ljc2NDY8L3RpdGxlPiYjeGE7CQkJPHBhdGggaWQ9InBhdGg3MjA1IiBpbmtzY2FwZTpjb25uZWN0b3ItY3VydmF0dXJlPSIwIiBzdHlsZT0iZmlsbDojM0UzRTNFOyIgZD0iTTAsMi4xMkMwLDAuOTUsMC45NSwwLDIuMTIsMGgzMi41MyAgICAgYzEuMTcsMCwyLjEsMC45NSwyLjEsMi4xMnY1OC41M2MwLDEuMTctMC45MywyLjExLTIuMSwyLjExSDIuMTJDMC45NSw2Mi43NiwwLDYxLjgyLDAsNjAuNjVWMi4xMnoiLz4mI3hhOwkJPC9nPiYjeGE7CQk8ZyBpZD0ic2hhcGU3NjQ3LTQiIHRyYW5zZm9ybT0idHJhbnNsYXRlKDUuNjA1OTMsLTQ5LjI1MDIpIj4mI3hhOwkJCTx0aXRsZSBpZD0idGl0bGU3MjA4Ij5TaGVldC43NjQ3PC90aXRsZT4mI3hhOwkJCTxwYXRoIGlkPSJwYXRoNzIxMCIgaW5rc2NhcGU6Y29ubmVjdG9yLWN1cnZhdHVyZT0iMCIgc3R5bGU9ImZpbGw6IzFFMUUxRTsiIGQ9Ik0yLjE4LDU1LjljMCwwLTIuMTgsMC0yLjE4LDMuMTIgICAgIGMwLDAuNjcsMCwwLjY3LDAsMC42N3MwLDMuMDcsMi4xOCwzLjA3YzIxLjIyLDAsMjEuMjIsMCwyMS4yMiwwczIuMTQsMCwyLjE0LTMuMDdjMC0wLjY3LDAtMC42NywwLTAuNjdzMC0zLjEyLTIuMTQtMy4xMiAgICAgYy05Ljg1LDAtOS44NSwwLTkuODUsMEgyLjE4eiIvPiYjeGE7CQk8L2c+JiN4YTsJCTxnIGlkPSJzaGFwZTc2NDgtNiIgdHJhbnNmb3JtPSJ0cmFuc2xhdGUoNi4yMjg4MSwtNDkuNDU4KSI+JiN4YTsJCQk8dGl0bGUgaWQ9InRpdGxlNzIxMyI+U2hlZXQuNzY0ODwvdGl0bGU+JiN4YTsJCQk8cGF0aCBpZD0icGF0aDcyMTUiIGlua3NjYXBlOmNvbm5lY3Rvci1jdXJ2YXR1cmU9IjAiIHN0eWxlPSJmaWxsOiNCOEQ0MzI7IiBkPSJNMCw1OS41MWMwLTEuNywxLjQ0LTMuMTksMy4xNS0zLjE5ICAgICBjMS43MiwwLDMuMDgsMS40OSwzLjA4LDMuMTljMCwxLjgzLTEuMzYsMy4yNS0zLjA4LDMuMjVDMS40NCw2Mi43NiwwLDYxLjM0LDAsNTkuNTF6Ii8+JiN4YTsJCTwvZz4mI3hhOwkJPGcgaWQ9InNoYXBlNzY0OS04IiB0cmFuc2Zvcm09InRyYW5zbGF0ZSg1LjYwNTkzLC0zNy42MTMpIj4mI3hhOwkJCTx0aXRsZSBpZD0idGl0bGU3MjE4Ij5TaGVldC43NjQ5PC90aXRsZT4mI3hhOwkJCTxwYXRoIGlkPSJwYXRoNzIyMCIgaW5rc2NhcGU6Y29ubmVjdG9yLWN1cnZhdHVyZT0iMCIgc3R5bGU9ImZpbGw6IzFFMUUxRTsiIGQ9Ik0yLjE4LDU1LjljMCwwLTIuMTgsMC0yLjE4LDMuMTIgICAgIGMwLDAuNjcsMCwwLjY3LDAsMC42N3MwLDMuMDcsMi4xOCwzLjA3YzIxLjIyLDAsMjEuMjIsMCwyMS4yMiwwczIuMTQsMCwyLjE0LTMuMDdjMC0wLjY3LDAtMC42NywwLTAuNjdzMC0zLjEyLTIuMTQtMy4xMiAgICAgYy05Ljg1LDAtOS44NSwwLTkuODUsMEgyLjE4eiIvPiYjeGE7CQk8L2c+JiN4YTsJCTxnIGlkPSJzaGFwZTc2NTAtMTAiIHRyYW5zZm9ybT0idHJhbnNsYXRlKDYuMjI4ODEsLTM3LjgyMDgpIj4mI3hhOwkJCTx0aXRsZSBpZD0idGl0bGU3MjIzIj5TaGVldC43NjUwPC90aXRsZT4mI3hhOwkJCTxwYXRoIGlkPSJwYXRoNzIyNSIgaW5rc2NhcGU6Y29ubmVjdG9yLWN1cnZhdHVyZT0iMCIgc3R5bGU9ImZpbGw6I0I4RDQzMjsiIGQ9Ik0wLDU5LjUxYzAtMS43LDEuNDQtMy4xOSwzLjE1LTMuMTkgICAgIGMxLjcyLDAsMy4wOCwxLjQ5LDMuMDgsMy4xOWMwLDEuODMtMS4zNiwzLjI1LTMuMDgsMy4yNUMxLjQ0LDYyLjc2LDAsNjEuMzQsMCw1OS41MXoiLz4mI3hhOwkJPC9nPiYjeGE7CQk8ZyBpZD0ic2hhcGU3NjUxLTEyIiB0cmFuc2Zvcm09InRyYW5zbGF0ZSg1LjYwNTkzLC0yNS45NzU4KSI+JiN4YTsJCQk8dGl0bGUgaWQ9InRpdGxlNzIyOCI+U2hlZXQuNzY1MTwvdGl0bGU+JiN4YTsJCQk8cGF0aCBpZD0icGF0aDcyMzAiIGlua3NjYXBlOmNvbm5lY3Rvci1jdXJ2YXR1cmU9IjAiIHN0eWxlPSJmaWxsOiMxRTFFMUU7IiBkPSJNMi4xOCw1NS42OWMwLDAtMi4xOCwwLTIuMTgsMy4yMSAgICAgYzAsMC43LDAsMC43LDAsMC43czAsMy4xNiwyLjE4LDMuMTZjMjEuMjIsMCwyMS4yMiwwLDIxLjIyLDBzMi4xNCwwLDIuMTQtMy4xNmMwLTAuNywwLTAuNywwLTAuN3MwLTMuMjEtMi4xNC0zLjIxICAgICBjLTkuODUsMC05Ljg1LDAtOS44NSwwSDIuMTh6Ii8+JiN4YTsJCTwvZz4mI3hhOwkJPGcgaWQ9InNoYXBlNzY1Mi0xNCIgdHJhbnNmb3JtPSJ0cmFuc2xhdGUoNi4yMjg4MSwtMjYuMTgzNikiPiYjeGE7CQkJPHRpdGxlIGlkPSJ0aXRsZTcyMzMiPlNoZWV0Ljc2NTI8L3RpdGxlPiYjeGE7CQkJPHBhdGggaWQ9InBhdGg3MjM1IiBpbmtzY2FwZTpjb25uZWN0b3ItY3VydmF0dXJlPSIwIiBzdHlsZT0iZmlsbDojQjhENDMyOyIgZD0iTTAsNTkuNTFjMC0xLjcsMS40NC0zLjE5LDMuMTUtMy4xOSAgICAgYzEuNzIsMCwzLjA4LDEuNDksMy4wOCwzLjE5YzAsMS44My0xLjM2LDMuMjUtMy4wOCwzLjI1QzEuNDQsNjIuNzYsMCw2MS4zNCwwLDU5LjUxeiIvPiYjeGE7CQk8L2c+JiN4YTsJPC9nPiYjeGE7PC9nPiYjeGE7PC9zdmc+;fontColor=#FFFFFF;" vertex="1" parent="1">
          <mxGeometry x="2694" y="-380" width="37" height="63" as="geometry" />
        </mxCell>
        <mxCell id="fT7zzyfTvzehRH6RShBd-123" value="CNSHNBU06" style="text;html=1;strokeColor=none;fillColor=none;align=center;verticalAlign=middle;whiteSpace=wrap;rounded=0;fontColor=#FFFFFF;" vertex="1" parent="1">
          <mxGeometry x="2736" y="-364" width="66" height="30" as="geometry" />
        </mxCell>
        <mxCell id="fT7zzyfTvzehRH6RShBd-124" value="NetBackup&lt;br&gt;5220" style="text;html=1;strokeColor=none;fillColor=none;align=center;verticalAlign=middle;whiteSpace=wrap;rounded=0;fontColor=#FFFFFF;" vertex="1" parent="1">
          <mxGeometry x="2736" y="-264" width="60" height="30" as="geometry" />
        </mxCell>
        <mxCell id="fT7zzyfTvzehRH6RShBd-125" value="管理服务器：CNSHNBU05" style="text;html=1;strokeColor=none;fillColor=none;align=center;verticalAlign=middle;whiteSpace=wrap;rounded=0;fontColor=#FFFFFF;" vertex="1" parent="1">
          <mxGeometry x="2637" y="-550" width="150" height="30" as="geometry" />
        </mxCell>
        <mxCell id="fT7zzyfTvzehRH6RShBd-126" value="" style="shape=image;verticalLabelPosition=bottom;labelBackgroundColor=#ffffff;verticalAlign=top;aspect=fixed;imageAspect=0;image=data:image/svg+xml,PHN2ZyB4bWxuczpjYz0iaHR0cDovL2NyZWF0aXZlY29tbW9ucy5vcmcvbnMjIiB4bWxuczpkYz0iaHR0cDovL3B1cmwub3JnL2RjL2VsZW1lbnRzLzEuMS8iIHhtbG5zOmlua3NjYXBlPSJodHRwOi8vd3d3Lmlua3NjYXBlLm9yZy9uYW1lc3BhY2VzL2lua3NjYXBlIiB4bWxuczpyZGY9Imh0dHA6Ly93d3cudzMub3JnLzE5OTkvMDIvMjItcmRmLXN5bnRheC1ucyMiIHhtbG5zOnNvZGlwb2RpPSJodHRwOi8vc29kaXBvZGkuc291cmNlZm9yZ2UubmV0L0RURC9zb2RpcG9kaS0wLmR0ZCIgeG1sbnM6c3ZnPSJodHRwOi8vd3d3LnczLm9yZy8yMDAwL3N2ZyIgeG1sbnM9Imh0dHA6Ly93d3cudzMub3JnLzIwMDAvc3ZnIiB4bWxuczp4bGluaz0iaHR0cDovL3d3dy53My5vcmcvMTk5OS94bGluayIgdmVyc2lvbj0iMS4xIiBpZD0ic3ZnMjMxMCIgaW5rc2NhcGU6dmVyc2lvbj0iMC45Mi4zICgyNDA1NTQ2LCAyMDE4LTAzLTExKSIgc29kaXBvZGk6ZG9jbmFtZT0ic3RvcmFnZV8xLnN2ZyIgeD0iMHB4IiB5PSIwcHgiIHZpZXdCb3g9IjAgMCA0Ni4zNSAzNy41MSIgc3R5bGU9ImVuYWJsZS1iYWNrZ3JvdW5kOm5ldyAwIDAgNDYuMzUgMzcuNTE7IiB4bWw6c3BhY2U9InByZXNlcnZlIj4mI3hhOzxzb2RpcG9kaTpuYW1lZHZpZXcgYm9yZGVyY29sb3I9IiM2NjY2NjYiIGJvcmRlcm9wYWNpdHk9IjEiIGZpdC1tYXJnaW4tYm90dG9tPSIwIiBmaXQtbWFyZ2luLWxlZnQ9IjAiIGZpdC1tYXJnaW4tcmlnaHQ9IjAiIGZpdC1tYXJnaW4tdG9wPSIwIiBncmlkdG9sZXJhbmNlPSIxMCIgZ3VpZGV0b2xlcmFuY2U9IjEwIiBpZD0ibmFtZWR2aWV3MjMxMiIgaW5rc2NhcGU6Y3VycmVudC1sYXllcj0ic3ZnMjMxMCIgaW5rc2NhcGU6Y3g9IjMwLjg3NTEzOCIgaW5rc2NhcGU6Y3k9IjI1LjAwODQzMSIgaW5rc2NhcGU6cGFnZW9wYWNpdHk9IjAiIGlua3NjYXBlOnBhZ2VzaGFkb3c9IjIiIGlua3NjYXBlOndpbmRvdy1oZWlnaHQ9IjEwMTciIGlua3NjYXBlOndpbmRvdy1tYXhpbWl6ZWQ9IjEiIGlua3NjYXBlOndpbmRvdy13aWR0aD0iMTkyMCIgaW5rc2NhcGU6d2luZG93LXg9Ii04IiBpbmtzY2FwZTp3aW5kb3cteT0iLTgiIGlua3NjYXBlOnpvb209IjE3LjMzNjY1IiBvYmplY3R0b2xlcmFuY2U9IjEwIiBwYWdlY29sb3I9IiNmZmZmZmYiIHNob3dncmlkPSJmYWxzZSI+JiN4YTsJPC9zb2RpcG9kaTpuYW1lZHZpZXc+JiN4YTs8ZyBpZD0iZzIzMDgiIHRyYW5zZm9ybT0idHJhbnNsYXRlKC0wLjAwMTkwNTU2KSI+JiN4YTsJPHRpdGxlIGlkPSJ0aXRsZTIyOTgiPlBhZ2UtMTwvdGl0bGU+JiN4YTsJPGcgaWQ9Imdyb3VwOTYzNy0xIj4mI3hhOwkJPHRpdGxlIGlkPSJ0aXRsZTIzMDAiPlN0b3JhZ2UgIzE8L3RpdGxlPiYjeGE7CQk8ZyBpZD0ic2hhcGU5NjM4LTIiPiYjeGE7CQkJPHRpdGxlIGlkPSJ0aXRsZTIzMDIiPlNoZWV0Ljk2Mzg8L3RpdGxlPiYjeGE7CQkJPHBhdGggaWQ9InBhdGgyMzA0IiBpbmtzY2FwZTpjb25uZWN0b3ItY3VydmF0dXJlPSIwIiBzdHlsZT0iZmlsbDojM0Y1NzY1OyIgZD0iTTAuMDcsMjYuNzZjMC41LTEuNTgsMS4wMS0zLjE1LDEuMjYtNC43MiAgICAgYzEuMjQtNC43MywyLjUtOS4xOCwzLjc0LTEzLjYzYzAuNzUtMi42MywxLjI2LTUuMjYsMS45OS04LjE0QzcuMzIsMCw3LjU3LDAsNy41NywwYzAuNSwwLDAuNzUsMCwxLjI0LDBjNC4yNiwwLDguNSwwLDEyLjUsMCAgICAgYzIuMjUsMCw0Ljc0LDAsNi45OSwwYzMuNDksMCw3LDAsMTAuNDksMGMwLjI1LDAsMC4yNSwwLDAuMjUsMGMwLjI1LDAsMC4yNSwwLjI3LDAuMjUsMC4yN2MwLjI1LDEuODQsMC43NCwzLjQxLDEuMjQsNC45OSAgICAgYzEuMjYsNC43MiwyLjUsOS4xNywzLjc0LDEzLjYzYzAuNzYsMi44OSwxLjI2LDUuMjYsMi4wMiw3Ljg3YzAuMjMsMC41My0wLjI1LDAuNzgtMC41MSwwLjc4Yy0xLjc0LDAtMy41LDAtNS4yNSwwICAgICBjLTQuNDksMC05LjI0LDAtMTMuNDksMGMtMS45OSwwLTMuNDgsMC01LjIzLDBjLTQuMjYsMC04LjUxLDAtMTIuNSwwYy0yLjk4LDAtNS45OSwwLTguNzQsMEMwLjMyLDI3LjU0LTAuMTgsMjcuMjksMC4wNywyNi43NnogICAgICBNNDYuMjksMjkuMzljMCwyLjYzLDAsNC45NywwLDcuNnYwLjI3Yy0wLjI1LDAuMjUtMC4yNSwwLjI1LTAuNTEsMC4yNWMtMSwwLTEuOTksMC0zLDBjLTMuNDksMC03LjI1LDAtMTAuOTksMCAgICAgYy00Ljc1LDAtOS4yNCwwLTEzLjk5LDBjLTMuOTksMC03Ljk4LDAtMTEuOTgsMGMtMS43NCwwLTMuNSwwLTUuMjUsMGMtMC4yNSwwLTAuNS0wLjI1LTAuNS0wLjUyYzAtMi42MywwLTQuOTcsMC03LjYgICAgIGMwLTAuNTIsMC4yNS0wLjUyLDAuNS0wLjUyYzEuMDEsMCwyLDAsMywwYzMuNzUsMCw3LjI1LDAsMTAuOTksMGM0Ljc1LDAsOS4yNSwwLDEzLjk5LDBjNCwwLDcuOTksMCwxMi4yMywwYzEuNSwwLDMuMjYsMCw1LDAgICAgIEM0Ni4wNCwyOC44Nyw0Ni4yOSwyOC44Nyw0Ni4yOSwyOS4zOXogTTYuMDcsMzMuMDVjMC0wLjc4LTAuNzUtMS41Ny0xLjUxLTEuNTdjLTAuNzMsMC0xLjQ5LDAuNzktMS40OSwxLjU3ICAgICBjMCwxLjA2LDAuNzYsMS41OCwxLjQ5LDEuNThDNS4zMiwzNC42Myw2LjA3LDM0LjExLDYuMDcsMzMuMDV6IE0zNy43OCwzMy4wNWMwLTAuMjUtMC4yMy0wLjc4LTAuNzQtMC43OCAgICAgYy0yNy43MywwLTI3LjczLDAtMjcuNzMsMGMtMC4yNSwwLTAuNzQsMC41My0wLjc0LDAuNzhjMCwwLjU0LDAuNDksMC43OSwwLjc0LDAuNzljMjcuNzMsMCwyNy43MywwLDI3LjczLDAgICAgIEMzNy41NSwzMy44NCwzNy43OCwzMy41OSwzNy43OCwzMy4wNXogTTQzLjI4LDMzLjA1YzAtMC43OC0wLjUtMS41Ny0xLjQ5LTEuNTdjLTAuNzUsMC0xLjUxLDAuNzktMS41MSwxLjU3ICAgICBjMCwxLjA2LDAuNzYsMS41OCwxLjUxLDEuNThDNDIuNzgsMzQuNjMsNDMuMjgsMzQuMTEsNDMuMjgsMzMuMDV6Ii8+JiN4YTsJCTwvZz4mI3hhOwk8L2c+JiN4YTs8L2c+JiN4YTs8L3N2Zz4=;fontColor=#FFFFFF;" vertex="1" parent="1">
          <mxGeometry x="2689.5" y="-270.00000000000364" width="46" height="38" as="geometry" />
        </mxCell>
        <mxCell id="fT7zzyfTvzehRH6RShBd-127" value="介质服务器" style="text;html=1;strokeColor=none;fillColor=none;align=center;verticalAlign=middle;whiteSpace=wrap;rounded=0;fontColor=#FFFFFF;" vertex="1" parent="1">
          <mxGeometry x="2637" y="-226" width="150" height="30" as="geometry" />
        </mxCell>
        <mxCell id="fT7zzyfTvzehRH6RShBd-128" value="&lt;h1&gt;上海前瞻备份系统&lt;/h1&gt;&lt;p&gt;Lorem ipsum dolor sit amet, consectetur adipisicing elit, sed do eiusmod tempor incididunt ut labore et dolore magna aliqua.&lt;/p&gt;" style="text;html=1;strokeColor=none;fillColor=none;spacing=5;spacingTop=-20;whiteSpace=wrap;overflow=hidden;rounded=0;fontColor=#FFFFFF;" vertex="1" parent="1">
          <mxGeometry x="2437" y="-468.5" width="160" height="170" as="geometry" />
        </mxCell>
        <mxCell id="fT7zzyfTvzehRH6RShBd-129" style="edgeStyle=orthogonalEdgeStyle;rounded=0;orthogonalLoop=1;jettySize=auto;html=1;entryX=0.5;entryY=0;entryDx=0;entryDy=0;fontColor=#FFFFFF;" edge="1" source="fT7zzyfTvzehRH6RShBd-130" target="fT7zzyfTvzehRH6RShBd-122" parent="1">
          <mxGeometry relative="1" as="geometry" />
        </mxCell>
        <mxCell id="fT7zzyfTvzehRH6RShBd-130" value="" style="shape=image;verticalLabelPosition=bottom;labelBackgroundColor=#ffffff;verticalAlign=top;aspect=fixed;imageAspect=0;image=data:image/svg+xml,PHN2ZyB4bWxuczpjYz0iaHR0cDovL2NyZWF0aXZlY29tbW9ucy5vcmcvbnMjIiB4bWxuczpkYz0iaHR0cDovL3B1cmwub3JnL2RjL2VsZW1lbnRzLzEuMS8iIHhtbG5zOmlua3NjYXBlPSJodHRwOi8vd3d3Lmlua3NjYXBlLm9yZy9uYW1lc3BhY2VzL2lua3NjYXBlIiB4bWxuczpyZGY9Imh0dHA6Ly93d3cudzMub3JnLzE5OTkvMDIvMjItcmRmLXN5bnRheC1ucyMiIHhtbG5zOnNvZGlwb2RpPSJodHRwOi8vc29kaXBvZGkuc291cmNlZm9yZ2UubmV0L0RURC9zb2RpcG9kaS0wLmR0ZCIgeG1sbnM6c3ZnPSJodHRwOi8vd3d3LnczLm9yZy8yMDAwL3N2ZyIgeG1sbnM9Imh0dHA6Ly93d3cudzMub3JnLzIwMDAvc3ZnIiB4bWxuczp4bGluaz0iaHR0cDovL3d3dy53My5vcmcvMTk5OS94bGluayIgdmVyc2lvbj0iMS4xIiBpZD0ic3ZnNjUxNSIgaW5rc2NhcGU6dmVyc2lvbj0iMC45Mi4zICgyNDA1NTQ2LCAyMDE4LTAzLTExKSIgc29kaXBvZGk6ZG9jbmFtZT0ic2VydmVyXzIuc3ZnIiB4PSIwcHgiIHk9IjBweCIgdmlld0JveD0iMCAwIDMxLjgzIDU5Ljg1IiBzdHlsZT0iZW5hYmxlLWJhY2tncm91bmQ6bmV3IDAgMCAzMS44MyA1OS44NTsiIHhtbDpzcGFjZT0icHJlc2VydmUiPiYjeGE7PHNvZGlwb2RpOm5hbWVkdmlldyBib3JkZXJjb2xvcj0iIzY2NjY2NiIgYm9yZGVyb3BhY2l0eT0iMSIgZml0LW1hcmdpbi1ib3R0b209IjAiIGZpdC1tYXJnaW4tbGVmdD0iMCIgZml0LW1hcmdpbi1yaWdodD0iMCIgZml0LW1hcmdpbi10b3A9IjAiIGdyaWR0b2xlcmFuY2U9IjEwIiBndWlkZXRvbGVyYW5jZT0iMTAiIGlkPSJuYW1lZHZpZXc2NTE3IiBpbmtzY2FwZTpjdXJyZW50LWxheWVyPSJzdmc2NTE1IiBpbmtzY2FwZTpjeD0iMjEuMjIyNDA5IiBpbmtzY2FwZTpjeT0iMzkuODk4OTE5IiBpbmtzY2FwZTpwYWdlb3BhY2l0eT0iMCIgaW5rc2NhcGU6cGFnZXNoYWRvdz0iMiIgaW5rc2NhcGU6d2luZG93LWhlaWdodD0iMTAxNyIgaW5rc2NhcGU6d2luZG93LW1heGltaXplZD0iMSIgaW5rc2NhcGU6d2luZG93LXdpZHRoPSIxOTIwIiBpbmtzY2FwZTp3aW5kb3cteD0iLTgiIGlua3NjYXBlOndpbmRvdy15PSItOCIgaW5rc2NhcGU6em9vbT0iMTAuODY0Mzc0IiBvYmplY3R0b2xlcmFuY2U9IjEwIiBwYWdlY29sb3I9IiNmZmZmZmYiIHNob3dncmlkPSJmYWxzZSI+JiN4YTsJPC9zb2RpcG9kaTpuYW1lZHZpZXc+JiN4YTs8ZyBpZD0iZzY1MTMiIHRyYW5zZm9ybT0idHJhbnNsYXRlKDAuMDA0MzM4OSkiPiYjeGE7CTx0aXRsZSBpZD0idGl0bGU2NDQ4Ij5QYWdlLTE8L3RpdGxlPiYjeGE7CTxnIGlkPSJncm91cDc2MzItMSIgdHJhbnNmb3JtPSJ0cmFuc2xhdGUoMC4zMDYyMTYpIj4mI3hhOwkJPHRpdGxlIGlkPSJ0aXRsZTY0NTAiPlNlcnZlciAjMjwvdGl0bGU+JiN4YTsJCTxnIGlkPSJzaGFwZTc2MzMtMiIgdHJhbnNmb3JtPSJ0cmFuc2xhdGUoMC4wOTUyMjI3KSI+JiN4YTsJCQk8dGl0bGUgaWQ9InRpdGxlNjQ1MiI+U2hlZXQuNzYzMzwvdGl0bGU+JiN4YTsJCQk8cGF0aCBpZD0icGF0aDY0NTQiIGlua3NjYXBlOmNvbm5lY3Rvci1jdXJ2YXR1cmU9IjAiIHN0eWxlPSJmaWxsOiMzRjU3NjU7IiBkPSJNMzEuMjMsNTguNGMwLDAuODMtMC42MiwxLjQ1LTEuMjUsMS40NSAgICAgYy0yOC43MiwwLTI4LjcyLDAtMjguNzIsMEMwLjYzLDU5Ljg1LDAsNTkuMjMsMCw1OC40QzAsMS40NywwLDEuNDcsMCwxLjQ3QzAsMC42MywwLjYzLDAsMS4yNiwwYzI4LjcyLDAsMjguNzIsMCwyOC43MiwwICAgICBjMC42MywwLDEuMjUsMC42MywxLjI1LDEuNDdWNTguNHoiLz4mI3hhOwkJPC9nPiYjeGE7CQk8ZyBpZD0ic2hhcGU3NjM0LTQiIHRyYW5zZm9ybT0idHJhbnNsYXRlKDAsLTUzLjA4NDkpIj4mI3hhOwkJCTx0aXRsZSBpZD0idGl0bGU2NDU3Ij5TaGVldC43NjM0PC90aXRsZT4mI3hhOwkJCSYjeGE7CQkJCTxwYXRoIGlkPSJwYXRoNjQ1OSIgaW5rc2NhcGU6Y29ubmVjdG9yLWN1cnZhdHVyZT0iMCIgc3R5bGU9ImZpbGw6bm9uZTtzdHJva2U6IzAwMDAwMDtzdHJva2Utd2lkdGg6MC42MTI0O3N0cm9rZS1saW5lY2FwOnJvdW5kO3N0cm9rZS1saW5lam9pbjpyb3VuZDtzdHJva2UtbWl0ZXJsaW1pdDozOyIgZD0iICAgICBNMCw1OS44NWgyOC4zOCIvPiYjeGE7CQk8L2c+JiN4YTsJCTxnIGlkPSJzaGFwZTc2MzUtNyIgdHJhbnNmb3JtPSJ0cmFuc2xhdGUoMTYuNDczNSwtNTIuMDM2NikiPiYjeGE7CQkJPHRpdGxlIGlkPSJ0aXRsZTY0NjIiPlNoZWV0Ljc2MzU8L3RpdGxlPiYjeGE7CQkJPHBhdGggaWQ9InBhdGg2NDY0IiBpbmtzY2FwZTpjb25uZWN0b3ItY3VydmF0dXJlPSIwIiBzdHlsZT0iZmlsbDojMDBCQ0YyOyIgZD0iTTE1LjA1LDU3Ljc1Yy0xNCwwLTE0LDAtMTQsMCAgICAgQzAuNDMsNTcuNzUsMCw1OC4xOCwwLDU4LjhjMCwwLjQzLDAuNDMsMS4wNSwxLjA1LDEuMDVjMTQsMCwxNCwwLDE0LDBWNTcuNzV6Ii8+JiN4YTsJCTwvZz4mI3hhOwkJPGcgaWQ9InNoYXBlNzYzNi05IiB0cmFuc2Zvcm09InRyYW5zbGF0ZSgwLC00Ni4yMjMpIj4mI3hhOwkJCTx0aXRsZSBpZD0idGl0bGU2NDY3Ij5TaGVldC43NjM2PC90aXRsZT4mI3hhOwkJCSYjeGE7CQkJCTxwYXRoIGlkPSJwYXRoNjQ2OSIgaW5rc2NhcGU6Y29ubmVjdG9yLWN1cnZhdHVyZT0iMCIgc3R5bGU9ImZpbGw6bm9uZTtzdHJva2U6IzAwMDAwMDtzdHJva2Utd2lkdGg6MC42MTI0O3N0cm9rZS1saW5lY2FwOnJvdW5kO3N0cm9rZS1saW5lam9pbjpyb3VuZDtzdHJva2UtbWl0ZXJsaW1pdDozOyIgZD0iICAgICBNMCw1OS44NWgyOC4zOCIvPiYjeGE7CQk8L2c+JiN4YTsJCTxnIGlkPSJzaGFwZTc2MzctMTIiIHRyYW5zZm9ybT0idHJhbnNsYXRlKDE2LjQ3MzUsLTQ1LjE3NDYpIj4mI3hhOwkJCTx0aXRsZSBpZD0idGl0bGU2NDcyIj5TaGVldC43NjM3PC90aXRsZT4mI3hhOwkJCTxwYXRoIGlkPSJwYXRoNjQ3NCIgaW5rc2NhcGU6Y29ubmVjdG9yLWN1cnZhdHVyZT0iMCIgc3R5bGU9ImZpbGw6IzAwQkNGMjsiIGQ9Ik0xNS4wNSw1Ny41NmMtMTQsMC0xNCwwLTE0LDAgICAgIEMwLjQzLDU3LjU2LDAsNTguMDMsMCw1OC43MWMwLDAuNjksMC40MywxLjE0LDEuMDUsMS4xNGMxNCwwLDE0LDAsMTQsMFY1Ny41NnoiLz4mI3hhOwkJPC9nPiYjeGE7CQk8ZyBpZD0ic2hhcGU3NjM4LTE0IiB0cmFuc2Zvcm09InRyYW5zbGF0ZSgwLC0zOS4zNjEpIj4mI3hhOwkJCTx0aXRsZSBpZD0idGl0bGU2NDc3Ij5TaGVldC43NjM4PC90aXRsZT4mI3hhOwkJCSYjeGE7CQkJCTxwYXRoIGlkPSJwYXRoNjQ3OSIgaW5rc2NhcGU6Y29ubmVjdG9yLWN1cnZhdHVyZT0iMCIgc3R5bGU9ImZpbGw6bm9uZTtzdHJva2U6IzAwMDAwMDtzdHJva2Utd2lkdGg6MC42MTI0O3N0cm9rZS1saW5lY2FwOnJvdW5kO3N0cm9rZS1saW5lam9pbjpyb3VuZDtzdHJva2UtbWl0ZXJsaW1pdDozOyIgZD0iICAgICBNMCw1OS44NWgyOC4zOCIvPiYjeGE7CQk8L2c+JiN4YTsJCTxnIGlkPSJzaGFwZTc2MzktMTciIHRyYW5zZm9ybT0idHJhbnNsYXRlKDE2LjQ3MzUsLTM4LjMxMjYpIj4mI3hhOwkJCTx0aXRsZSBpZD0idGl0bGU2NDgyIj5TaGVldC43NjM5PC90aXRsZT4mI3hhOwkJCTxwYXRoIGlkPSJwYXRoNjQ4NCIgaW5rc2NhcGU6Y29ubmVjdG9yLWN1cnZhdHVyZT0iMCIgc3R5bGU9ImZpbGw6IzAwQkNGMjsiIGQ9Ik0xNS4wNSw1Ny43NWMtMTQsMC0xNCwwLTE0LDAgICAgIEMwLjQzLDU3Ljc1LDAsNTguMTgsMCw1OC44YzAsMC42MywwLjQzLDEuMDUsMS4wNSwxLjA1YzE0LDAsMTQsMCwxNCwwVjU3Ljc1eiIvPiYjeGE7CQk8L2c+JiN4YTsJCTxnIGlkPSJzaGFwZTc2NDAtMTkiIHRyYW5zZm9ybT0idHJhbnNsYXRlKDAsLTMyLjQ5OSkiPiYjeGE7CQkJPHRpdGxlIGlkPSJ0aXRsZTY0ODciPlNoZWV0Ljc2NDA8L3RpdGxlPiYjeGE7CQkJJiN4YTsJCQkJPHBhdGggaWQ9InBhdGg2NDg5IiBpbmtzY2FwZTpjb25uZWN0b3ItY3VydmF0dXJlPSIwIiBzdHlsZT0iZmlsbDpub25lO3N0cm9rZTojMDAwMDAwO3N0cm9rZS13aWR0aDowLjYxMjQ7c3Ryb2tlLWxpbmVjYXA6cm91bmQ7c3Ryb2tlLWxpbmVqb2luOnJvdW5kO3N0cm9rZS1taXRlcmxpbWl0OjM7IiBkPSIgICAgIE0wLDU5Ljg1aDI4LjM4Ii8+JiN4YTsJCTwvZz4mI3hhOwkJPGcgaWQ9InNoYXBlNzY0MS0yMiIgdHJhbnNmb3JtPSJ0cmFuc2xhdGUoMTYuNDczNSwtMzEuNDUwNykiPiYjeGE7CQkJPHRpdGxlIGlkPSJ0aXRsZTY0OTIiPlNoZWV0Ljc2NDE8L3RpdGxlPiYjeGE7CQkJPHBhdGggaWQ9InBhdGg2NDk0IiBpbmtzY2FwZTpjb25uZWN0b3ItY3VydmF0dXJlPSIwIiBzdHlsZT0iZmlsbDojMDBCQ0YyOyIgZD0iTTE1LjA1LDU3Ljc1Yy0xNCwwLTE0LDAtMTQsMCAgICAgQzAuNDMsNTcuNzUsMCw1OC4zOSwwLDU4LjhjMCwwLjYzLDAuNDMsMS4wNSwxLjA1LDEuMDVjMTQsMCwxNCwwLDE0LDBWNTcuNzV6Ii8+JiN4YTsJCTwvZz4mI3hhOwkJPGcgaWQ9InNoYXBlNzY0Mi0yNCIgdHJhbnNmb3JtPSJ0cmFuc2xhdGUoMTMuOTk3NywtOS45MTE3MykiPiYjeGE7CQkJPHRpdGxlIGlkPSJ0aXRsZTY0OTciPlNoZWV0Ljc2NDI8L3RpdGxlPiYjeGE7CQkJPHBhdGggaWQ9InBhdGg2NDk5IiBpbmtzY2FwZTpjb25uZWN0b3ItY3VydmF0dXJlPSIwIiBzdHlsZT0iZmlsbDojREZERkRGOyIgZD0iTTAsNTguMDRjMC0wLjk5LDAuNzctMS44MSwxLjcxLTEuODEgICAgIGMwLjk2LDAsMS43MiwwLjgyLDEuNzIsMS44MWMwLDEtMC43NiwxLjgxLTEuNzIsMS44MUMwLjc3LDU5Ljg1LDAsNTkuMDQsMCw1OC4wNHoiLz4mI3hhOwkJPC9nPiYjeGE7CQk8ZyBpZD0ic2hhcGU3NjQzLTI2IiB0cmFuc2Zvcm09InRyYW5zbGF0ZSgwLjA5NTIyMjcpIj4mI3hhOwkJCTx0aXRsZSBpZD0idGl0bGU2NTAyIj5TaGVldC43NjQzPC90aXRsZT4mI3hhOwkJCTxwYXRoIGlkPSJwYXRoNjUwNCIgaW5rc2NhcGU6Y29ubmVjdG9yLWN1cnZhdHVyZT0iMCIgc3R5bGU9ImZpbGw6Izk2OTY5NjsiIGQ9Ik0wLDU3LjM3YzAsMC45MSwwLDAuOTEsMCwwLjkxICAgICBjMCwwLjksMC42MywxLjU3LDEuMjYsMS41N2MyOC43MiwwLDI4LjcyLDAsMjguNzIsMGMwLjYzLDAsMS4yNS0wLjY3LDEuMjUtMS41N2MwLTAuOTEsMC0wLjkxLDAtMC45MUgweiIvPiYjeGE7CQk8L2c+JiN4YTsJCTxnIGlkPSJzaGFwZTc2NDQtMjgiIHRyYW5zZm9ybT0idHJhbnNsYXRlKDAuMDk1MjIyNywtMi40Nzc5MykiPiYjeGE7CQkJPHRpdGxlIGlkPSJ0aXRsZTY1MDciPlNoZWV0Ljc2NDQ8L3RpdGxlPiYjeGE7CQkJPHBhdGggaWQ9InBhdGg2NTA5IiBpbmtzY2FwZTpjb25uZWN0b3ItY3VydmF0dXJlPSIwIiBzdHlsZT0iZmlsbDojMjMxRjIwOyIgZD0iTTAsNTYuMjN2My42MmgzMS4yM3YtMy42MkgweiIvPiYjeGE7CQk8L2c+JiN4YTsJPC9nPiYjeGE7PC9nPiYjeGE7PC9zdmc+;fontColor=#FFFFFF;" vertex="1" parent="1">
          <mxGeometry x="2696" y="-520" width="32" height="60" as="geometry" />
        </mxCell>
      </root>
    </mxGraphModel>
  </diagram>
</mxfile>
